<svg width="20" height="20" viewBox="0 0 20 20" fill="none" xmlns="http://www.w3.org/2000/svg">
<path d="M5.55618 6.36402C5.46712 7.31402 5.40462 8.99527 5.96555 9.71089C5.96555 9.71089 5.70149 7.86402 8.06868 5.54683C9.0218 4.61402 9.24212 3.34527 8.9093 2.3937C8.72024 1.85464 8.37493 1.40933 8.07493 1.09839C7.89993 0.915579 8.0343 0.614016 8.28899 0.624954C9.82962 0.693704 12.3265 1.12183 13.3874 3.78433C13.8531 4.95308 13.8874 6.16089 13.6656 7.38902C13.5249 8.17339 13.0249 9.91714 14.1656 10.1312C14.9796 10.2843 15.3734 9.63745 15.5499 9.17183C15.6234 8.97808 15.8781 8.92964 16.0156 9.08433C17.3906 10.6484 17.5077 12.4906 17.2234 14.0765C16.6734 17.1421 13.5687 19.3734 10.4843 19.3734C6.63118 19.3734 3.56399 17.1687 2.76868 13.1781C2.44837 11.5671 2.61087 8.37964 5.09524 6.12964C5.27962 5.96089 5.58118 6.11089 5.55618 6.36402Z" fill="url(#paint0_radial_155_3279)"/>
<path d="M11.8921 12.0968C10.4718 10.2687 11.1077 8.18277 11.4562 7.35152C11.5031 7.24214 11.3781 7.13902 11.2796 7.20621C10.6687 7.62183 9.41712 8.59996 8.83431 9.97652C8.04524 11.8375 8.10149 12.7484 8.56868 13.8609C8.84993 14.5312 8.52337 14.6734 8.35931 14.6984C8.19993 14.7234 8.05306 14.6171 7.93587 14.5062C7.59874 14.1825 7.3585 13.7713 7.24212 13.3187C7.21712 13.2218 7.09056 13.1953 7.03274 13.275C6.59524 13.8796 6.36868 14.85 6.35774 15.5359C6.32337 17.6562 8.07493 19.375 10.1937 19.375C12.864 19.375 14.8093 16.4218 13.2749 13.9531C12.8296 13.2343 12.4109 12.764 11.8921 12.0968Z" fill="url(#paint1_radial_155_3279)"/>
<defs>
<radialGradient id="paint0_radial_155_3279" cx="0" cy="0" r="1" gradientUnits="userSpaceOnUse" gradientTransform="translate(9.72114 19.422) rotate(-179.751) scale(11.0293 18.0969)">
<stop offset="0.314" stop-color="#FF9800"/>
<stop offset="0.662" stop-color="#FF6D00"/>
<stop offset="0.972" stop-color="#F44336"/>
</radialGradient>
<radialGradient id="paint1_radial_155_3279" cx="0" cy="0" r="1" gradientUnits="userSpaceOnUse" gradientTransform="translate(10.3405 8.44658) rotate(90.5787) scale(11.5401 8.68476)">
<stop offset="0.214" stop-color="#FFF176"/>
<stop offset="0.328" stop-color="#FFF27D"/>
<stop offset="0.487" stop-color="#FFF48F"/>
<stop offset="0.672" stop-color="#FFF7AD"/>
<stop offset="0.793" stop-color="#FFF9C4"/>
<stop offset="0.822" stop-color="#FFF8BD" stop-opacity="0.804"/>
<stop offset="0.863" stop-color="#FFF6AB" stop-opacity="0.529"/>
<stop offset="0.91" stop-color="#FFF38D" stop-opacity="0.209"/>
<stop offset="0.941" stop-color="#FFF176" stop-opacity="0"/>
</radialGradient>
</defs>
</svg>
