<svg width="19" height="16" viewBox="0 0 19 16" fill="none" xmlns="http://www.w3.org/2000/svg">
<path d="M10.9844 16V10.9064C10.9844 7.99001 11.6573 5.59301 13.0031 3.71535C14.3885 1.79775 16.3875 0.559301 19 0V3.29588C17.7333 3.61548 16.7437 4.21473 16.0312 5.09363C15.3188 5.93258 14.8833 6.97129 14.725 8.20974H17.8125V16H10.9844ZM0 16V10.9064C0 7.99001 0.672917 5.59301 2.01875 3.71535C3.40417 1.79775 5.40313 0.559301 8.01562 0V3.29588C6.74896 3.61548 5.75938 4.21473 5.04688 5.09363C4.33437 5.93258 3.89896 6.97129 3.74062 8.20974H6.82812V16H0Z" fill="black"/>
</svg>
