<svg width="19" height="16" viewBox="0 0 19 16" fill="none" xmlns="http://www.w3.org/2000/svg">
<path d="M10.9844 16V12.7041C12.2906 12.3845 13.3 11.8052 14.0125 10.9663C14.725 10.0874 15.1604 9.02871 15.3188 7.79026H12.1719V0H19V5.09363C19 8.00999 18.3271 10.427 16.9813 12.3446C15.6354 14.2222 13.6365 15.4407 10.9844 16ZM0 16V12.7041C1.30625 12.3845 2.31562 11.8052 3.02813 10.9663C3.74062 10.0874 4.17604 9.02871 4.33438 7.79026H1.1875V0H8.01562V5.09363C8.01562 8.00999 7.34271 10.427 5.99687 12.3446C4.65104 14.2222 2.65208 15.4407 0 16Z" fill="black"/>
</svg>
