<svg width="48" height="48" viewBox="0 0 48 48" fill="none" xmlns="http://www.w3.org/2000/svg">
<path fill-rule="evenodd" clip-rule="evenodd" d="M45.2914 12.1845V34.8808H2.7074V12.1845C2.70803 12.1177 2.73476 12.0539 2.78187 12.0066C2.82898 11.9593 2.89273 11.9323 2.95949 11.9314H11.5282C11.4571 12.1299 11.3912 12.3316 11.3301 12.5342L8.57812 13.0068C8.31658 13.0519 8.07938 13.1879 7.90838 13.3908C7.73738 13.5938 7.64358 13.8506 7.64352 14.116V18.5982C7.64358 18.8635 7.73742 19.1202 7.90844 19.3229C8.07947 19.5257 8.31667 19.6615 8.57812 19.7062L11.3305 20.1787C11.5839 21.0218 11.9218 21.8373 12.3392 22.6125L10.7257 24.8933C10.5729 25.1101 10.5015 25.3739 10.5241 25.6382C10.5468 25.9025 10.662 26.1503 10.8496 26.3379L14.0183 29.5078C14.206 29.6952 14.4539 29.8104 14.7181 29.8329C14.9824 29.8554 15.2462 29.7838 15.4628 29.6308L17.7446 28.0173C18.5195 28.4343 19.3345 28.7722 20.1772 29.0257L20.65 31.7795C20.6948 32.0411 20.8307 32.2784 21.0337 32.4494C21.2366 32.6204 21.4935 32.7141 21.7589 32.714H26.2401C26.5056 32.7141 26.7625 32.6204 26.9655 32.4493C27.1685 32.2783 27.3045 32.0411 27.3494 31.7795L27.8218 29.0271C28.6643 28.7728 29.4792 28.4348 30.2544 28.0182L32.5367 29.6307C32.7534 29.7837 33.0171 29.8552 33.2814 29.8327C33.5456 29.8102 33.7935 29.6951 33.9812 29.5077L37.1499 26.3378C37.3376 26.1503 37.4529 25.9025 37.4756 25.6382C37.4983 25.3738 37.4268 25.11 37.2738 24.8933L35.6603 22.6115C36.0769 21.8366 36.4149 21.022 36.6692 20.1798L39.4219 19.7062C39.6833 19.6615 39.9205 19.5257 40.0915 19.323C40.2625 19.1202 40.3564 18.8636 40.3565 18.5983V14.1161C40.3564 13.8507 40.2626 13.5939 40.0916 13.3909C39.9206 13.188 39.6834 13.052 39.4219 13.0069L36.6693 12.5344C36.6082 12.3318 36.5428 12.1301 36.4716 11.9316H45.0393C45.106 11.9324 45.1698 11.9594 45.2169 12.0067C45.2641 12.054 45.2908 12.1179 45.2914 12.1847V12.1845ZM26.0586 45.75H21.941V42.5616H26.0586V45.75ZM37.15 6.375L33.9813 3.20625C33.7937 3.0186 33.5458 2.90338 33.2814 2.88097C33.017 2.85856 32.7533 2.93042 32.5368 3.08381L30.2545 4.69631C29.4797 4.27933 28.6647 3.94156 27.8221 3.68813L27.3497 0.934875C27.3048 0.673248 27.1689 0.435911 26.9659 0.264829C26.763 0.0937477 26.5061 -5.76488e-05 26.2406 2.658e-08H21.7594C21.4939 -5.76488e-05 21.237 0.0937477 21.034 0.264829C20.8311 0.435911 20.6952 0.673248 20.6503 0.934875L20.1775 3.68813C19.3349 3.94165 18.5199 4.27935 17.7449 4.69613L15.4631 3.08362C15.2466 2.93025 14.9828 2.85843 14.7184 2.88087C14.4541 2.90332 14.2062 3.01858 14.0186 3.20625L10.8496 6.375C10.662 6.56276 10.5468 6.81071 10.5241 7.07514C10.5014 7.33956 10.5729 7.6035 10.7257 7.82044L12.042 9.68166H2.95949C2.29593 9.68235 1.65976 9.94633 1.19065 10.4156C0.721535 10.8849 0.457819 11.5212 0.457397 12.1848V40.0587C0.457894 40.7223 0.721633 41.3585 1.19073 41.8278C1.65983 42.2971 2.29595 42.5611 2.95949 42.5618H19.691V45.75H18.2876C17.9892 45.75 17.7031 45.8685 17.4921 46.0795C17.2811 46.2905 17.1626 46.5766 17.1626 46.875C17.1626 47.1734 17.2811 47.4595 17.4921 47.6705C17.7031 47.8815 17.9892 48 18.2876 48H29.7129C30.0113 48 30.2974 47.8815 30.5084 47.6705C30.7194 47.4595 30.8379 47.1734 30.8379 46.875C30.8379 46.5766 30.7194 46.2905 30.5084 46.0795C30.2974 45.8685 30.0113 45.75 29.7129 45.75H28.3086V42.5616H45.0393C45.7029 42.5608 46.3391 42.2968 46.8084 41.8276C47.2777 41.3583 47.5416 40.7221 47.5424 40.0584V12.1845C47.5417 11.5208 47.2778 10.8846 46.8085 10.4153C46.3392 9.94601 45.7029 9.68207 45.0393 9.68137H35.9576L37.2739 7.82016C37.427 7.60337 37.4986 7.33942 37.4759 7.07495C37.4533 6.81049 37.3378 6.56257 37.15 6.375ZM30.6375 16.3568L26.8325 20.1618C26.7245 20.2654 26.6382 20.3896 26.5788 20.5269C26.5194 20.6643 26.488 20.8122 26.4865 20.9618C26.4849 21.1115 26.5132 21.26 26.5698 21.3986C26.6263 21.5371 26.71 21.6631 26.8158 21.7689C26.9216 21.8748 27.0475 21.9584 27.1861 22.015C27.3246 22.0716 27.4731 22.1 27.6228 22.0984C27.7725 22.0969 27.9203 22.0656 28.0577 22.0062C28.1951 21.9468 28.3193 21.8606 28.4229 21.7526L33.0246 17.1524C33.2353 16.9413 33.3536 16.6552 33.3536 16.3569C33.3536 16.0587 33.2353 15.7726 33.0246 15.5615L28.4227 10.9603C28.319 10.8526 28.1949 10.7666 28.0575 10.7075C27.9202 10.6483 27.7724 10.6171 27.6229 10.6157C27.4734 10.6143 27.3251 10.6427 27.1867 10.6993C27.0482 10.7559 26.9225 10.8395 26.8168 10.9453C26.7111 11.051 26.6275 11.1768 26.5709 11.3152C26.5144 11.4537 26.486 11.602 26.4874 11.7515C26.4889 11.9011 26.5201 12.0488 26.5793 12.1861C26.6385 12.3234 26.7245 12.4476 26.8323 12.5513L30.6375 16.3568ZM23.998 9.89062L21.7866 22.4325C21.7348 22.7262 21.8018 23.0285 21.9728 23.2729C22.1438 23.5172 22.4048 23.6837 22.6986 23.7356C22.7636 23.7465 22.8295 23.752 22.8954 23.752C23.1596 23.7519 23.4152 23.6587 23.6175 23.4889C23.8198 23.319 23.9558 23.0833 24.0017 22.8232L26.2131 10.2811C26.2432 10.1339 26.2434 9.98211 26.2138 9.83479C26.1842 9.68747 26.1254 9.54757 26.0409 9.42334C25.9564 9.29912 25.8478 9.19309 25.7216 9.11151C25.5954 9.02993 25.4542 8.97446 25.3062 8.94837C25.1582 8.92228 25.0065 8.92609 24.86 8.95959C24.7135 8.99309 24.5753 9.0556 24.4533 9.14342C24.3314 9.23124 24.2283 9.34259 24.1501 9.47091C24.0719 9.59923 24.0203 9.74191 23.9981 9.89053L23.998 9.89062ZM14.9757 17.1522L19.5769 21.7524C19.6809 21.8588 19.805 21.9435 19.942 22.0016C20.079 22.0597 20.2261 22.0901 20.3749 22.0909C20.5237 22.0917 20.6712 22.063 20.8088 22.0065C20.9464 21.9499 21.0715 21.8666 21.1767 21.7614C21.2819 21.6562 21.3652 21.5312 21.4218 21.3936C21.4783 21.2559 21.507 21.1085 21.5062 20.9597C21.5054 20.8109 21.4751 20.6637 21.417 20.5267C21.3589 20.3897 21.2742 20.2656 21.1678 20.1616L17.3625 16.3568L21.1678 12.5513C21.2737 12.4471 21.3579 12.323 21.4155 12.1862C21.4732 12.0493 21.5032 11.9024 21.5038 11.7539C21.5044 11.6054 21.4756 11.4582 21.4191 11.3209C21.3625 11.1836 21.2793 11.0588 21.1743 10.9538C21.0693 10.8488 20.9445 10.7656 20.8072 10.7091C20.6699 10.6525 20.5227 10.6237 20.3742 10.6243C20.2257 10.6249 20.0788 10.6549 19.942 10.7126C19.8051 10.7703 19.681 10.8545 19.5769 10.9603L14.9757 15.5615C14.7647 15.7724 14.6462 16.0586 14.6462 16.3569C14.6462 16.6553 14.7647 16.9414 14.9757 17.1524V17.1522Z" fill="black"/>
</svg>
