<svg width="48" height="48" viewBox="0 0 48 48" fill="none" xmlns="http://www.w3.org/2000/svg">
<path d="M41.4978 38.6079C40.4684 35.5442 36.3656 33.6264 33.4405 32.341C32.2945 31.8391 29.122 30.9875 28.7407 29.5446C28.6042 29.0248 28.6226 28.5346 28.7345 28.0649C28.5582 28.0986 28.3793 28.1186 28.1943 28.1186H26.2883C24.7667 28.1186 23.5303 26.8806 23.5303 25.36C23.5303 23.8405 24.7672 22.6051 26.2883 22.6051H28.1943C28.824 22.6051 29.421 22.8182 29.9025 23.1985C30.6083 23.1045 31.2891 22.9537 31.924 22.7559C32.7576 21.0094 33.4077 18.9209 33.5534 17.1233C34.1755 9.4319 29.4603 4.93197 22.6997 5.7099C17.7842 6.27571 14.8478 9.94098 14.5304 14.6597C14.2094 19.4693 15.9927 23.0217 17.887 25.6274C18.7165 26.7667 19.588 27.4991 19.4541 28.872C19.2987 30.4953 17.5629 30.9477 16.3214 31.4465C14.8504 32.0374 13.2659 32.9339 12.5176 33.3484C9.94001 34.7719 7.11095 36.4862 6.47511 38.8312C5.06696 44.0283 9.82246 45.6026 13.7484 46.3294C17.1177 46.9509 20.9169 47 24.0419 47C29.6944 47 39.8586 46.7736 41.4978 42.5246C41.964 41.3189 41.7641 39.3975 41.4978 38.6079Z" fill="black"/>
<path d="M29.4005 24.5838C29.1419 24.1897 28.6998 23.928 28.1953 23.928H26.2893C25.494 23.928 24.8526 24.5705 24.8526 25.3617C24.8526 26.156 25.494 26.7995 26.2893 26.7995H28.1953C28.7519 26.7995 29.2242 26.4821 29.4624 26.0231C32.1197 25.8141 34.431 25.0024 36.0533 23.8038C36.4259 24.0441 36.8665 24.1846 37.3419 24.1846H37.4615C38.7863 24.1846 39.8576 23.1123 39.8576 21.7859V16.9977C39.8576 16.0439 39.2984 15.221 38.4919 14.8387C38.1402 7.14989 31.7752 0.999023 24 0.999023C16.2248 0.999023 9.85874 7.14989 9.50862 14.8387C8.70053 15.2215 8.14188 16.0439 8.14188 16.9977V21.7859C8.14188 23.1123 9.21421 24.1846 10.536 24.1846H10.6571C11.9799 24.1846 13.0528 23.1123 13.0528 21.7859V16.9977C13.0528 16.0577 12.5094 15.2471 11.7197 14.8551C12.0617 8.37658 17.4377 3.2127 24 3.2127C30.5598 3.2127 35.9383 8.37658 36.2787 14.8551C35.4901 15.2476 34.9472 16.0577 34.9472 16.9977V21.7859C34.9472 22.1038 35.0091 22.3998 35.118 22.6763C33.7216 23.6755 31.6888 24.3875 29.4005 24.5838Z" fill="black"/>
</svg>
