<svg width="48" height="48" viewBox="0 0 48 48" fill="none" xmlns="http://www.w3.org/2000/svg">
<path d="M45.1643 19.7412H36.058C35.046 19.7412 34.2222 20.565 34.2222 21.577V40.9055C34.2222 41.9175 35.046 42.7412 36.0571 42.7412H45.1634C46.1763 42.7412 47 41.9175 47 40.9055V21.577C47 20.565 46.1763 19.7412 45.1643 19.7412ZM41.8889 40.1857H39.3333C38.8623 40.1857 38.4815 39.804 38.4815 39.3338C38.4815 38.8636 38.8623 38.482 39.3333 38.482H41.8889C42.36 38.482 42.7407 38.8636 42.7407 39.3338C42.7407 39.804 42.36 40.1857 41.8889 40.1857Z" fill="black"/>
<path d="M42.7407 18.0375V8.47891C42.7407 7.63132 42.3974 6.80247 41.7977 6.20362C41.1895 5.59454 40.3803 5.25977 39.5207 5.25977H4.21915C2.44389 5.25977 1 6.70365 1 8.47891V29.2999C1 30.1475 1.3433 30.9772 1.94215 31.5752C2.5427 32.1757 3.37156 32.519 4.21915 32.519H32.5185V21.577C32.5185 19.6254 34.1055 18.0375 36.0571 18.0375H42.7407ZM23.1481 29.4975H20.5926C20.1224 29.4975 19.7407 29.1159 19.7407 28.6457C19.7407 28.1754 20.1224 27.7938 20.5926 27.7938H23.1481C23.6184 27.7938 24 28.1754 24 28.6457C24 29.1159 23.6184 29.4975 23.1481 29.4975Z" fill="black"/>
<path d="M30.8148 41.0375H27.4074V34.2227H16.3334V41.0375H12.9259C12.4557 41.0375 12.0741 41.4191 12.0741 41.8893C12.0741 42.3595 12.4557 42.7412 12.9259 42.7412H16.3334H27.4074H30.8148C31.2859 42.7412 31.6667 42.3595 31.6667 41.8893C31.6667 41.4191 31.2859 41.0375 30.8148 41.0375Z" fill="black"/>
</svg>
