<svg width="48" height="48" viewBox="0 0 48 48" fill="none" xmlns="http://www.w3.org/2000/svg">
<path d="M46.6304 19.0687L26.4725 5.7409C25.7381 5.25754 24.8786 5 24 5C23.1214 5 22.2619 5.25754 21.5275 5.7409L1.36964 19.0687C1.25613 19.1448 1.16303 19.2476 1.09857 19.3682C1.0341 19.4888 1.00025 19.6234 1 19.7602V22.1805C1.00231 22.3282 1.04379 22.4727 1.12021 22.599C1.19662 22.7253 1.3052 22.829 1.43481 22.8994C1.56442 22.9698 1.71038 23.0044 1.85772 22.9996C2.00506 22.9947 2.14846 22.9507 2.27321 22.872L22.4311 9.54415C22.8958 9.23416 23.4417 9.06877 24 9.06877C24.5583 9.06877 25.1041 9.23416 25.5689 9.54415L45.7268 22.872C45.8516 22.9506 45.9949 22.9946 46.1423 22.9994C46.2896 23.0042 46.4355 22.9696 46.5651 22.8992C46.6947 22.8289 46.8032 22.7252 46.8797 22.5989C46.9561 22.4726 46.9976 22.3282 47 22.1805V19.7602C46.9998 19.6234 46.9659 19.4888 46.9014 19.3682C46.837 19.2476 46.7439 19.1448 46.6304 19.0687Z" fill="black"/>
<path d="M39.0476 21.2627L26.3889 12.7299C25.6793 12.2537 24.8489 12 24 12C23.1511 12 22.3207 12.2537 21.6111 12.7299L8.95238 21.2627C8.35225 21.6672 7.85972 22.2176 7.51897 22.8645C7.17822 23.5114 6.9999 24.2347 7 24.9694V40.3802C7.00149 41.0759 7.27314 41.7426 7.75528 42.2339C8.23742 42.7251 8.89063 43.0006 9.57143 43H38.4286C39.1094 43.0006 39.7626 42.7251 40.2447 42.2339C40.7269 41.7426 40.9985 41.0759 41 40.3802V24.9694C41.0001 24.2347 40.8218 23.5114 40.481 22.8645C40.1403 22.2176 39.6478 21.6672 39.0476 21.2627ZM23.1349 25.5858V30.3713C23.1343 30.5862 23.0505 30.7921 22.9018 30.9441C22.7531 31.0961 22.5516 31.1817 22.3413 31.1824H17.6587C17.4484 31.1817 17.2469 31.0961 17.0982 30.9441C16.9495 30.7921 16.8657 30.5862 16.8651 30.3713V25.5858C16.8657 25.3709 16.9495 25.1649 17.0982 25.013C17.2469 24.861 17.4484 24.7753 17.6587 24.7747H22.3413C22.5516 24.7753 22.7531 24.861 22.9018 25.013C23.0505 25.1649 23.1343 25.3709 23.1349 25.5858ZM16.8651 33.8103C16.8657 33.5954 16.9495 33.3894 17.0982 33.2375C17.2469 33.0855 17.4484 32.9998 17.6587 32.9992H22.3413C22.5516 32.9998 22.7531 33.0855 22.9018 33.2374C23.0505 33.3894 23.1343 33.5954 23.1349 33.8103V38.5876C23.1353 38.6943 23.115 38.7999 23.0753 38.8985C23.0355 38.9971 22.9771 39.0866 22.9033 39.162C22.8295 39.2374 22.7419 39.2971 22.6454 39.3378C22.549 39.3784 22.4456 39.3991 22.3413 39.3987H17.6587C17.5544 39.3991 17.451 39.3784 17.3546 39.3378C17.2581 39.2971 17.1705 39.2374 17.0967 39.162C17.023 39.0866 16.9645 38.997 16.9248 38.8985C16.885 38.7999 16.8647 38.6943 16.8651 38.5876V33.8103ZM30.3492 24.7747C30.5595 24.7753 30.761 24.861 30.9097 25.013C31.0584 25.1649 31.1422 25.3709 31.1429 25.5858V30.3713C31.1422 30.5862 31.0584 30.7921 30.9097 30.9441C30.761 31.0961 30.5595 31.1817 30.3492 31.1824H25.6746C25.5703 31.1827 25.4669 31.162 25.3705 31.1214C25.274 31.0807 25.1864 31.021 25.1126 30.9456C25.0388 30.8702 24.9804 30.7807 24.9406 30.6821C24.9009 30.5835 24.8806 30.4779 24.881 30.3713V25.5858C24.8806 25.4792 24.9009 25.3735 24.9406 25.275C24.9804 25.1764 25.0388 25.0868 25.1126 25.0114C25.1864 24.936 25.274 24.8763 25.3705 24.8357C25.4669 24.7951 25.5703 24.7743 25.6746 24.7747H30.3492ZM24.881 33.8103C24.8806 33.7037 24.9009 33.598 24.9406 33.4995C24.9804 33.4009 25.0388 33.3113 25.1126 33.2359C25.1864 33.1605 25.274 33.1008 25.3705 33.0602C25.4669 33.0196 25.5703 32.9988 25.6746 32.9992H30.3492C30.5595 32.9998 30.761 33.0855 30.9097 33.2375C31.0584 33.3894 31.1422 33.5954 31.1429 33.8103V38.5876C31.1432 38.6943 31.1229 38.7999 31.0832 38.8985C31.0434 38.997 30.985 39.0866 30.9112 39.162C30.8374 39.2374 30.7498 39.2971 30.6534 39.3378C30.5569 39.3784 30.4535 39.3991 30.3492 39.3987H25.6746C25.5701 39.3998 25.4664 39.3795 25.3697 39.3391C25.2729 39.2988 25.185 39.239 25.1111 39.1635C25.0372 39.088 24.9788 38.9982 24.9393 38.8993C24.8997 38.8004 24.8799 38.6944 24.881 38.5876V33.8103Z" fill="black"/>
</svg>
