<svg width="48" height="48" viewBox="0 0 48 48" fill="none" xmlns="http://www.w3.org/2000/svg">
<path d="M18.3719 1.99902H29.628V16.325H18.3719V1.99902Z" fill="black"/>
<path d="M25.0233 18.3721H45.489V30.1398H25.0233V18.3721Z" fill="black"/>
<path d="M31.6746 16.325H45.4889V7.51965C45.4876 6.0559 44.9055 4.6525 43.8705 3.61747C42.8355 2.58245 41.4321 2.00038 39.9683 1.99902H31.6746V16.325Z" fill="black"/>
<path d="M25.0233 32.1865V46.0009H39.9683C41.4321 45.9995 42.8355 45.4174 43.8705 44.3824C44.9055 43.3474 45.4876 41.944 45.489 40.4802V32.1865H25.0233Z" fill="black"/>
<path d="M22.9767 18.3721H2.51099V40.4801C2.51234 41.9439 3.09441 43.3473 4.12944 44.3823C5.16446 45.4173 6.56786 45.9994 8.03161 46.0008H22.9767V18.3721Z" fill="black"/>
<path d="M16.3253 16.325V1.99902H8.03161C6.56786 2.00038 5.16446 2.58245 4.12944 3.61747C3.09441 4.6525 2.51234 6.0559 2.51099 7.51965V16.325H16.3253Z" fill="black"/>
</svg>
