<svg width="48" height="48" viewBox="0 0 48 48" fill="none" xmlns="http://www.w3.org/2000/svg">
<g clip-path="url(#clip0_121_2486)">
<path d="M24 3.24422L27.0491 4.99753L28.451 2.55928L24 0L19.5491 2.55928L20.951 4.99753L24 3.24422Z" fill="black"/>
<path d="M24 44.7562L20.951 43.0029L19.5491 45.4412L24 48.0005L28.451 45.4412L27.0491 43.0029L24 44.7562Z" fill="black"/>
<path d="M27.2325 8.25H20.7675C16.8647 8.25 13.6997 11.4141 13.6997 15.3178V19.5487H22.5938V14.655H25.4063V19.5487H34.3003V15.3178C34.3003 11.4141 31.1353 8.25 27.2325 8.25Z" fill="black"/>
<path d="M13.6997 32.6823C13.6997 36.586 16.8647 39.7501 20.7675 39.7501H27.2325C31.1353 39.7501 34.3003 36.586 34.3003 32.6823V22.3613H13.6997V32.6823Z" fill="black"/>
</g>
<defs>
<clipPath id="clip0_121_2486">
<rect width="48" height="48" fill="white"/>
</clipPath>
</defs>
</svg>
