<svg width="48" height="48" viewBox="0 0 48 48" fill="none" xmlns="http://www.w3.org/2000/svg">
<rect width="48" height="48" rx="24" fill="black"/>
<path d="M29.9762 39.9117L38 37.8981L34.5263 14.1682C34.5165 14.0985 34.4834 14.0342 34.4325 13.986C34.3815 13.9378 34.3158 13.9086 34.2463 13.9033L31.875 13.8768L29.9762 12.0134V39.9205V39.9117ZM29.1012 11.7308L28.1562 12.031C28.0385 11.6441 27.8862 11.2687 27.7013 10.9094C27.0275 9.61123 26.0387 8.92238 24.8575 8.92238H24.8487L24.6038 8.94004L24.49 8.8164C24.2405 8.54166 23.9337 8.32626 23.5918 8.18575C23.2498 8.04525 22.8812 7.98314 22.5125 8.00391C20.9812 8.04807 19.45 9.16966 18.2075 11.1567C17.3325 12.5609 16.6675 14.3184 16.4837 15.6784L13.4562 16.6233C12.5638 16.9059 12.5375 16.9413 12.415 17.7803L10 36.6264L29.3375 40V11.6954C29.25 11.6954 29.1625 11.7219 29.1012 11.7308ZM24.6388 13.1349L21.375 14.1506C21.6651 12.9607 22.2286 11.8564 23.02 10.9271C23.3 10.6268 23.6762 10.3001 24.1312 10.1058C24.56 11.0066 24.6562 12.2695 24.6388 13.1349ZM22.5387 9.03719C22.9062 9.03719 23.2125 9.10784 23.4663 9.28446C23.055 9.49642 22.6525 9.81435 22.2762 10.2206C21.2368 11.4413 20.5391 12.92 20.255 14.5038L17.5775 15.334C18.1025 12.8435 20.1763 9.10784 22.5475 9.03719H22.5387ZM19.555 23.2292C19.66 24.8895 23.9825 25.2604 24.2275 29.1462C24.42 32.2019 22.6175 34.2949 20.0275 34.4627C16.9212 34.6658 15.2062 32.8113 15.2062 32.8113L15.8625 29.9852C15.8625 29.9852 17.5862 31.2923 18.9688 31.2039C19.1343 31.1996 19.2972 31.1614 19.4477 31.0917C19.5983 31.022 19.7332 30.9223 19.8444 30.7984C19.9557 30.6746 20.0409 30.5293 20.0949 30.3713C20.1489 30.2134 20.1706 30.0459 20.1587 29.8792C20.0275 27.7156 16.5013 27.848 16.2738 24.2801C16.09 21.2863 18.0413 18.2571 22.3375 17.9834C24 17.8774 24.84 18.3013 24.84 18.3013L23.86 22.0105C23.86 22.0105 22.7663 21.5071 21.4625 21.5954C19.555 21.719 19.5375 22.9289 19.555 23.2292ZM25.6625 12.8082C25.665 11.8459 25.5053 10.8903 25.19 9.98214C26.3625 10.2118 26.94 11.5453 27.1762 12.3401L25.6625 12.8082Z" fill="white"/>
</svg>
