<svg width="48" height="48" viewBox="0 0 48 48" fill="none" xmlns="http://www.w3.org/2000/svg">
<g clip-path="url(#clip0_121_2520)">
<path d="M46.53 0H42.2479C41.436 0 40.778 0.658081 40.778 1.46997C40.778 2.28186 41.436 2.93994 42.2479 2.93994H45.0601V5.75208C45.0601 6.56396 45.7181 7.22205 46.53 7.22205C47.3419 7.22205 48 6.56396 48 5.75208V1.46997C48 0.658081 47.3419 0 46.53 0Z" fill="black"/>
<path d="M46.53 25.8838C45.7181 25.8838 45.0601 26.5419 45.0601 27.3538V30.1659H42.2479C41.436 30.1659 40.778 30.824 40.778 31.6359C40.778 32.4478 41.436 33.1058 42.2479 33.1058H46.53C47.3419 33.1058 48 32.4478 48 31.6359V27.3538C48 26.5419 47.3419 25.8838 46.53 25.8838Z" fill="black"/>
<path d="M16.3649 7.22205C17.1768 7.22205 17.8348 6.56396 17.8348 5.75208V2.93994H20.647C21.4589 2.93994 22.1169 2.28186 22.1169 1.46997C22.1169 0.658081 21.4589 0 20.647 0H16.3649C15.553 0 14.8949 0.658081 14.8949 1.46997V5.75208C14.8949 6.56396 15.553 7.22205 16.3649 7.22205Z" fill="black"/>
<path d="M22.9731 21.5576L0.717407 43.8134C-0.239136 44.7699 -0.239136 46.3201 0.717407 47.2766C1.67395 48.2332 3.22412 48.2332 4.18066 47.2766L26.4364 25.0209L25.4967 22.4973L22.9731 21.5576Z" fill="black"/>
<path d="M43.4626 19.6469L40.2096 14.6082C39.9855 14.2592 39.9177 13.8311 40.0254 13.4301L41.5668 7.68605C41.7718 6.9214 41.072 6.22157 40.3074 6.42701L34.5641 7.96913C34.1634 8.07679 33.735 8.00904 33.3863 7.78492L28.3473 4.53187C27.6804 4.10157 26.7978 4.55714 26.7631 5.35035L26.5009 11.2764C26.4822 11.699 26.2833 12.0919 25.9541 12.3574L21.2695 16.1272C20.6484 16.6271 20.8081 17.6129 21.5552 17.8912L25.2594 19.2719C28.1821 20.3602 27.6354 19.8153 28.7227 22.7351L30.1033 26.4393C30.3816 27.1864 31.3674 27.3461 31.8673 26.725L35.6371 22.0404C35.9026 21.7112 36.2955 21.5123 36.7181 21.4937L42.6442 21.2315C43.4374 21.1963 43.8929 20.3141 43.4626 19.6469Z" fill="black"/>
</g>
<defs>
<clipPath id="clip0_121_2520">
<rect width="48" height="48" fill="white"/>
</clipPath>
</defs>
</svg>
