<svg width="48" height="48" viewBox="0 0 48 48" fill="none" xmlns="http://www.w3.org/2000/svg">
<g clip-path="url(#clip0_121_2549)">
<path d="M0.750001 23.9996C0.75002 25.1104 0.829472 26.2197 0.987751 27.3191C1.0414 27.6885 1.20367 28.0337 1.45393 28.3106C1.7042 28.5876 2.03115 28.7839 2.39325 28.8746C2.68851 28.9504 2.99782 28.9526 3.29413 28.8811C3.59043 28.8096 3.8647 28.6665 4.09293 28.4645C4.32117 28.2625 4.49641 28.0076 4.60333 27.7221C4.71025 27.4367 4.74559 27.1294 4.70625 26.8271C4.10769 22.7713 4.80359 18.63 6.69492 14.9925C8.58625 11.3551 11.5767 8.4068 15.2406 6.56728C18.9045 4.72775 23.0553 4.09069 27.1022 4.74675C31.1492 5.40281 34.8861 7.31856 37.7812 10.2214L36.1688 11.8339C36.096 11.9066 36.0446 11.998 36.0201 12.0979C35.9956 12.1979 35.999 12.3026 36.03 12.4008C36.0609 12.4989 36.1182 12.5867 36.1955 12.6546C36.2729 12.7224 36.3674 12.7678 36.4688 12.7856L43.6298 14.0486C43.7188 14.0644 43.8103 14.0584 43.8966 14.0313C43.9828 14.0041 44.0613 13.9565 44.1252 13.8925C44.1891 13.8285 44.2366 13.75 44.2637 13.6637C44.2908 13.5775 44.2966 13.4859 44.2808 13.3969L43.0148 6.23664C42.9969 6.13529 42.9515 6.04079 42.8837 5.96343C42.8158 5.88606 42.7281 5.82879 42.6299 5.79785C42.5318 5.76692 42.427 5.7635 42.327 5.78797C42.2271 5.81244 42.1358 5.86386 42.063 5.93664L40.425 7.57464C37.178 4.31747 33.0372 2.0976 28.5272 1.19638C24.0173 0.295169 19.3413 0.753182 15.0919 2.51237C10.8425 4.27156 7.2111 7.25273 4.65786 11.078C2.10463 14.9033 0.744549 19.4005 0.750001 23.9996Z" fill="black"/>
<path d="M43.5 23.9999C43.5027 27.8567 42.3608 31.6276 40.2189 34.835C38.077 38.0425 35.0315 40.5422 31.4681 42.0176C27.9046 43.493 23.9835 43.8778 20.2012 43.1233C16.4189 42.3687 12.9455 40.5088 10.221 37.7789L11.8343 36.1656C11.907 36.0929 11.9585 36.0016 11.9829 35.9016C12.0074 35.8016 12.004 35.6969 11.973 35.5987C11.9421 35.5006 11.8848 35.4128 11.8075 35.345C11.7301 35.2771 11.6356 35.2318 11.5343 35.2139L4.37325 33.9509C4.28421 33.9351 4.19266 33.9411 4.10641 33.9683C4.02016 33.9955 3.94175 34.0431 3.87784 34.1071C3.81393 34.171 3.76641 34.2495 3.73932 34.3358C3.71223 34.4221 3.70638 34.5136 3.72225 34.6026L4.98525 41.7629C5.00313 41.8642 5.04846 41.9587 5.11632 42.0361C5.18417 42.1135 5.27195 42.1707 5.3701 42.2017C5.46825 42.2326 5.573 42.236 5.67296 42.2116C5.77292 42.1871 5.86425 42.1357 5.937 42.0629L7.575 40.4249C11.0249 43.8774 15.4743 46.1561 20.2921 46.9375C25.1098 47.719 30.0514 46.9636 34.4157 44.7786C38.78 42.5935 42.3455 39.0897 44.6064 34.7642C46.8673 30.4387 47.7088 25.5111 47.0115 20.6804C46.9581 20.311 46.796 19.9659 46.5459 19.6889C46.2957 19.4119 45.9688 19.2156 45.6068 19.1249C45.3114 19.0491 45.002 19.0469 44.7057 19.1185C44.4093 19.19 44.135 19.3331 43.9067 19.5352C43.6785 19.7374 43.5032 19.9924 43.3964 20.2779C43.2895 20.5634 43.2543 20.8708 43.2938 21.1731C43.4312 22.1091 43.5002 23.0539 43.5 23.9999Z" fill="black"/>
<path d="M37.5 21.1875H34.6912C34.4393 20.2192 34.0557 19.2901 33.5513 18.426L35.5343 16.443C35.5865 16.3908 35.628 16.3287 35.6563 16.2605C35.6846 16.1922 35.6991 16.119 35.6991 16.0451C35.6991 15.9712 35.6846 15.8981 35.6563 15.8298C35.628 15.7615 35.5865 15.6995 35.5343 15.6473L32.3528 12.4658C32.3005 12.4135 32.2385 12.372 32.1702 12.3437C32.1019 12.3154 32.0288 12.3009 31.9549 12.3009C31.881 12.3009 31.8078 12.3154 31.7395 12.3437C31.6713 12.372 31.6092 12.4135 31.557 12.4658L29.574 14.4487C28.7099 13.9443 27.7808 13.5607 26.8125 13.3088V10.5C26.8125 10.3508 26.7532 10.2077 26.6477 10.1023C26.5423 9.99676 26.3992 9.9375 26.25 9.9375H21.75C21.6008 9.9375 21.4577 9.99676 21.3523 10.1023C21.2468 10.2077 21.1875 10.3508 21.1875 10.5V13.3088C20.2192 13.5607 19.2901 13.9443 18.426 14.4487L16.443 12.4658C16.3908 12.4135 16.3287 12.372 16.2605 12.3437C16.1922 12.3154 16.119 12.3009 16.0451 12.3009C15.9712 12.3009 15.8981 12.3154 15.8298 12.3437C15.7615 12.372 15.6995 12.4135 15.6473 12.4658L12.4658 15.6473C12.4135 15.6995 12.372 15.7615 12.3437 15.8298C12.3154 15.8981 12.3009 15.9712 12.3009 16.0451C12.3009 16.119 12.3154 16.1922 12.3437 16.2605C12.372 16.3287 12.4135 16.3908 12.4658 16.443L14.4487 18.426C13.9443 19.2901 13.5607 20.2192 13.3088 21.1875H10.5C10.3508 21.1875 10.2077 21.2468 10.1023 21.3523C9.99676 21.4577 9.9375 21.6008 9.9375 21.75V26.25C9.9375 26.3992 9.99676 26.5423 10.1023 26.6477C10.2077 26.7532 10.3508 26.8125 10.5 26.8125H13.3088C13.5607 27.7808 13.9443 28.7099 14.4487 29.574L12.4658 31.557C12.4135 31.6092 12.372 31.6713 12.3437 31.7395C12.3154 31.8078 12.3009 31.881 12.3009 31.9549C12.3009 32.0288 12.3154 32.1019 12.3437 32.1702C12.372 32.2385 12.4135 32.3005 12.4658 32.3528L15.6473 35.535C15.6995 35.5873 15.7615 35.6287 15.8298 35.657C15.8981 35.6853 15.9712 35.6999 16.0451 35.6999C16.119 35.6999 16.1922 35.6853 16.2605 35.657C16.3287 35.6287 16.3908 35.5873 16.443 35.535L18.426 33.5513C19.2899 34.0559 20.2191 34.4395 21.1875 34.6912V37.5C21.1875 37.6492 21.2468 37.7923 21.3523 37.8977C21.4577 38.0032 21.6008 38.0625 21.75 38.0625H26.25C26.3992 38.0625 26.5423 38.0032 26.6477 37.8977C26.7532 37.7923 26.8125 37.6492 26.8125 37.5V34.6912C27.7809 34.4395 28.7101 34.0559 29.574 33.5513L31.557 35.535C31.6092 35.5873 31.6713 35.6287 31.7395 35.657C31.8078 35.6853 31.881 35.6999 31.9549 35.6999C32.0288 35.6999 32.1019 35.6853 32.1702 35.657C32.2385 35.6287 32.3005 35.5873 32.3528 35.535L35.5343 32.3528C35.5865 32.3005 35.628 32.2385 35.6563 32.1702C35.6846 32.1019 35.6991 32.0288 35.6991 31.9549C35.6991 31.881 35.6846 31.8078 35.6563 31.7395C35.628 31.6713 35.5865 31.6092 35.5343 31.557L33.5513 29.574C34.0557 28.7099 34.4393 27.7808 34.6912 26.8125H37.5C37.6492 26.8125 37.7923 26.7532 37.8977 26.6477C38.0032 26.5423 38.0625 26.3992 38.0625 26.25V21.75C38.0625 21.6008 38.0032 21.4577 37.8977 21.3523C37.7923 21.2468 37.6492 21.1875 37.5 21.1875ZM24 30.5625C22.7021 30.5625 21.4333 30.1776 20.3541 29.4565C19.2749 28.7354 18.4337 27.7105 17.937 26.5114C17.4403 25.3122 17.3104 23.9927 17.5636 22.7197C17.8168 21.4467 18.4418 20.2774 19.3596 19.3596C20.2774 18.4418 21.4467 17.8168 22.7197 17.5636C23.9927 17.3104 25.3122 17.4403 26.5114 17.937C27.7105 18.4337 28.7354 19.2749 29.4565 20.3541C30.1776 21.4333 30.5625 22.7021 30.5625 24C30.5605 25.7399 29.8685 27.4079 28.6382 28.6382C27.4079 29.8685 25.7399 30.5605 24 30.5625Z" fill="black"/>
<path d="M24 18.5625C22.9246 18.5625 21.8733 18.8814 20.9791 19.4789C20.0849 20.0764 19.388 20.9256 18.9764 21.9192C18.5649 22.9127 18.4572 24.006 18.667 25.0608C18.8768 26.1156 19.3947 27.0844 20.1551 27.8449C20.9156 28.6053 21.8844 29.1232 22.9392 29.333C23.994 29.5428 25.0873 29.4351 26.0808 29.0236C27.0744 28.612 27.9236 27.9151 28.5211 27.0209C29.1186 26.1267 29.4375 25.0754 29.4375 24C29.4359 22.5584 28.8625 21.1762 27.8431 20.1569C26.8238 19.1375 25.4416 18.5641 24 18.5625ZM24 27.1875C23.3696 27.1875 22.7533 27.0006 22.2291 26.6503C21.7049 26.3001 21.2964 25.8022 21.0551 25.2198C20.8139 24.6374 20.7508 23.9965 20.8737 23.3781C20.9967 22.7598 21.3003 22.1919 21.7461 21.7461C22.1919 21.3003 22.7598 20.9967 23.3782 20.8737C23.9965 20.7508 24.6374 20.8139 25.2198 21.0551C25.8022 21.2964 26.3001 21.7049 26.6503 22.2291C27.0006 22.7533 27.1875 23.3696 27.1875 24C27.1875 24.8454 26.8517 25.6561 26.2539 26.2539C25.6561 26.8517 24.8454 27.1875 24 27.1875Z" fill="black"/>
</g>
<defs>
<clipPath id="clip0_121_2549">
<rect width="48" height="48" fill="white"/>
</clipPath>
</defs>
</svg>
