<svg width="48" height="48" viewBox="0 0 48 48" fill="none" xmlns="http://www.w3.org/2000/svg">
<path d="M1.40625 10.7095C2.18288 10.7095 2.8125 10.0799 2.8125 9.30328V2.8125H9.30328C10.0799 2.8125 10.7095 2.18288 10.7095 1.40625C10.7095 0.629625 10.0799 0 9.30328 0H1.40625C0.629625 0 0 0.629625 0 1.40625V9.30328C0 10.08 0.629625 10.7095 1.40625 10.7095Z" fill="black"/>
<path d="M46.5937 0H38.6967C37.9201 0 37.2905 0.629625 37.2905 1.40625C37.2905 2.18288 37.9201 2.8125 38.6967 2.8125H45.1875V9.30328C45.1875 10.0799 45.8171 10.7095 46.5937 10.7095C47.3704 10.7095 48 10.0799 48 9.30328V1.40625C48 0.629625 47.3704 0 46.5937 0Z" fill="black"/>
<path d="M46.5937 37.29C45.8171 37.29 45.1875 37.9197 45.1875 38.6963V45.1871H38.6967C37.9201 45.1871 37.2905 45.8167 37.2905 46.5933C37.2905 47.3699 37.9201 47.9996 38.6967 47.9996H46.5937C47.3704 47.9996 48 47.3699 48 46.5933V38.6963C48 37.9196 47.3704 37.29 46.5937 37.29Z" fill="black"/>
<path d="M9.30328 45.1871H2.8125V38.6963C2.8125 37.9197 2.18288 37.29 1.40625 37.29C0.629625 37.29 0 37.9197 0 38.6963V46.5933C0 47.3699 0.629625 47.9996 1.40625 47.9996H9.30328C10.0799 47.9996 10.7095 47.3699 10.7095 46.5933C10.7095 45.8167 10.08 45.1871 9.30328 45.1871Z" fill="black"/>
<path d="M39.3431 17.9414V9.06051C39.3431 8.61988 38.9859 8.2627 38.5444 8.2627H24H9.45561C9.01405 8.2627 8.65686 8.61988 8.65686 9.06051V17.9414C8.65686 18.383 9.01405 18.7402 9.45561 18.7402H13.6969C14.1375 18.7402 14.4947 18.383 14.4947 17.9414V14.8993C14.4947 14.4577 14.8528 14.1005 15.2934 14.1005H20.2819C20.7234 14.1005 21.0806 14.4577 21.0806 14.8993V36.8499C21.0806 37.2914 20.7234 37.6486 20.2819 37.6486H18.1003C17.6587 37.6486 17.3015 38.0058 17.3015 38.4474V42.6886C17.3015 43.1293 17.6587 43.4864 18.1003 43.4864H24H29.8997C30.3412 43.4864 30.6984 43.1293 30.6984 42.6886V38.4474C30.6984 38.0058 30.3412 37.6486 29.8997 37.6486H27.7181C27.2765 37.6486 26.9194 37.2914 26.9194 36.8499V14.8993C26.9194 14.4577 27.2765 14.1005 27.7181 14.1005H32.7065C33.1472 14.1005 33.5053 14.4577 33.5053 14.8993V17.9414C33.5053 18.383 33.8625 18.7402 34.3031 18.7402H38.5444C38.9859 18.7402 39.3431 18.383 39.3431 17.9414Z" fill="black"/>
</svg>
