<svg width="236" height="274" viewBox="0 0 236 274" fill="none" xmlns="http://www.w3.org/2000/svg">
<path d="M234.391 3.24901C233.503 3.24901 232.782 2.5217 232.782 1.62451C232.782 0.727316 233.503 -1.09166e-07 234.391 -7.03253e-08C235.28 -3.14844e-08 236 0.727316 236 1.62451C236 2.5217 235.28 3.24901 234.391 3.24901Z" fill="#E9E0D6"/>
<path d="M207.576 3.24901C206.687 3.24901 205.967 2.52169 205.967 1.6245C205.967 0.727315 206.687 -1.2813e-06 207.576 -1.24246e-06C208.464 -1.20362e-06 209.185 0.727315 209.185 1.6245C209.185 2.52169 208.464 3.24901 207.576 3.24901Z" fill="#E9E0D6"/>
<path d="M180.761 3.24901C179.872 3.24901 179.152 2.52169 179.152 1.6245C179.152 0.727314 179.872 -2.45343e-06 180.761 -2.41459e-06C181.649 -2.37575e-06 182.37 0.727314 182.37 1.6245C182.37 2.52169 181.649 3.24901 180.761 3.24901Z" fill="#E9E0D6"/>
<path d="M153.946 3.24901C153.057 3.24901 152.337 2.52169 152.337 1.6245C152.337 0.727312 153.057 -3.62555e-06 153.946 -3.58671e-06C154.834 -3.54787e-06 155.554 0.727313 155.554 1.6245C155.554 2.52169 154.834 3.24901 153.946 3.24901Z" fill="#E9E0D6"/>
<path d="M127.13 3.24901C126.242 3.24901 125.521 2.52169 125.521 1.6245C125.521 0.727311 126.242 -4.79768e-06 127.13 -4.75884e-06C128.019 -4.72e-06 128.739 0.727311 128.739 1.6245C128.739 2.52169 128.019 3.24901 127.13 3.24901Z" fill="#E9E0D6"/>
<path d="M100.315 3.24901C99.4266 3.24901 98.7064 2.52169 98.7064 1.6245C98.7064 0.72731 99.4266 -5.96981e-06 100.315 -5.93097e-06C101.204 -5.89213e-06 101.924 0.72731 101.924 1.6245C101.924 2.52169 101.204 3.24901 100.315 3.24901Z" fill="#E9E0D6"/>
<path d="M73.5 3.249C72.6114 3.249 71.891 2.52169 71.891 1.6245C71.891 0.727309 72.6114 -7.14194e-06 73.5 -7.1031e-06C74.3886 -7.06426e-06 75.1089 0.727309 75.1089 1.6245C75.1089 2.52169 74.3886 3.249 73.5 3.249Z" fill="#E9E0D6"/>
<path d="M46.6848 3.249C45.7962 3.249 45.0758 2.52169 45.0758 1.6245C45.0758 0.727308 45.7962 -8.31407e-06 46.6848 -8.27523e-06C47.5734 -8.23639e-06 48.2939 0.727308 48.2939 1.6245C48.2939 2.52169 47.5734 3.249 46.6848 3.249Z" fill="#E9E0D6"/>
<path d="M19.8696 3.249C18.9811 3.249 18.2608 2.52169 18.2608 1.6245C18.2608 0.727307 18.9811 -9.4862e-06 19.8696 -9.44736e-06C20.7582 -9.40852e-06 21.4787 0.727307 21.4787 1.6245C21.4787 2.52169 20.7582 3.249 19.8696 3.249Z" fill="#E9E0D6"/>
<path d="M-6.94556 3.249C-7.83412 3.249 -8.55441 2.52168 -8.55441 1.6245C-8.55441 0.727305 -7.83412 -1.06583e-05 -6.94556 -1.06195e-05C-6.05698 -1.05806e-05 -5.33653 0.727305 -5.33653 1.6245C-5.33653 2.52169 -6.05698 3.249 -6.94556 3.249Z" fill="#E9E0D6"/>
<path d="M-33.7607 3.249C-34.6493 3.249 -35.3696 2.52168 -35.3696 1.62449C-35.3696 0.727304 -34.6493 -1.18305e-05 -33.7607 -1.17916e-05C-32.8722 -1.17528e-05 -32.1517 0.727304 -32.1517 1.62449C-32.1517 2.52168 -32.8722 3.249 -33.7607 3.249Z" fill="#E9E0D6"/>
<path d="M-60.5759 3.249C-61.4645 3.249 -62.1848 2.52168 -62.1848 1.62449C-62.1848 0.727303 -61.4645 -1.30026e-05 -60.5759 -1.29637e-05C-59.6874 -1.29249e-05 -58.9669 0.727303 -58.9669 1.62449C-58.9669 2.52168 -59.6874 3.249 -60.5759 3.249Z" fill="#E9E0D6"/>
<path d="M-87.3909 3.249C-88.2795 3.249 -89 2.52168 -89 1.62449C-89 0.727302 -88.2795 -1.41747e-05 -87.3909 -1.41359e-05C-86.5024 -1.4097e-05 -85.7821 0.727302 -85.7821 1.62449C-85.7821 2.52168 -86.5024 3.249 -87.3909 3.249Z" fill="#E9E0D6"/>
<path d="M234.391 30.3241C233.503 30.3241 232.782 29.5968 232.782 28.6996C232.782 27.8024 233.503 27.0751 234.391 27.0751C235.28 27.0751 236 27.8024 236 28.6996C236 29.5968 235.28 30.3241 234.391 30.3241Z" fill="#E9E0D6"/>
<path d="M207.576 30.3241C206.687 30.3241 205.967 29.5968 205.967 28.6996C205.967 27.8024 206.687 27.0751 207.576 27.0751C208.464 27.0751 209.185 27.8024 209.185 28.6996C209.185 29.5968 208.464 30.3241 207.576 30.3241Z" fill="#E9E0D6"/>
<path d="M180.761 30.3241C179.872 30.3241 179.152 29.5968 179.152 28.6996C179.152 27.8024 179.872 27.0751 180.761 27.0751C181.649 27.0751 182.37 27.8024 182.37 28.6996C182.37 29.5968 181.649 30.3241 180.761 30.3241Z" fill="#E9E0D6"/>
<path d="M153.946 30.3241C153.057 30.3241 152.337 29.5968 152.337 28.6996C152.337 27.8024 153.057 27.0751 153.946 27.0751C154.834 27.0751 155.554 27.8024 155.554 28.6996C155.554 29.5968 154.834 30.3241 153.946 30.3241Z" fill="#E9E0D6"/>
<path d="M127.13 30.3241C126.242 30.3241 125.521 29.5968 125.521 28.6996C125.521 27.8024 126.242 27.0751 127.13 27.0751C128.019 27.0751 128.739 27.8024 128.739 28.6996C128.739 29.5968 128.019 30.3241 127.13 30.3241Z" fill="#E9E0D6"/>
<path d="M100.315 30.3241C99.4266 30.3241 98.7064 29.5968 98.7064 28.6996C98.7064 27.8024 99.4266 27.0751 100.315 27.0751C101.204 27.0751 101.924 27.8024 101.924 28.6996C101.924 29.5968 101.204 30.3241 100.315 30.3241Z" fill="#E9E0D6"/>
<path d="M73.5 30.3241C72.6114 30.3241 71.891 29.5968 71.891 28.6996C71.891 27.8024 72.6114 27.0751 73.5 27.0751C74.3886 27.0751 75.1089 27.8024 75.1089 28.6996C75.1089 29.5968 74.3886 30.3241 73.5 30.3241Z" fill="#E9E0D6"/>
<path d="M46.6848 30.3241C45.7962 30.3241 45.0758 29.5968 45.0758 28.6996C45.0758 27.8024 45.7962 27.0751 46.6848 27.0751C47.5734 27.0751 48.2939 27.8024 48.2939 28.6996C48.2939 29.5968 47.5734 30.3241 46.6848 30.3241Z" fill="#E9E0D6"/>
<path d="M19.8696 30.3241C18.9811 30.3241 18.2608 29.5968 18.2608 28.6996C18.2608 27.8024 18.9811 27.0751 19.8696 27.0751C20.7582 27.0751 21.4787 27.8024 21.4787 28.6996C21.4787 29.5968 20.7582 30.3241 19.8696 30.3241Z" fill="#E9E0D6"/>
<path d="M-6.94556 30.3241C-7.83412 30.3241 -8.55441 29.5968 -8.55441 28.6996C-8.55441 27.8024 -7.83412 27.0751 -6.94556 27.0751C-6.05698 27.0751 -5.33653 27.8024 -5.33653 28.6996C-5.33653 29.5968 -6.05698 30.3241 -6.94556 30.3241Z" fill="#E9E0D6"/>
<path d="M-33.7607 30.3241C-34.6493 30.3241 -35.3696 29.5968 -35.3696 28.6996C-35.3696 27.8024 -34.6493 27.0751 -33.7607 27.0751C-32.8722 27.0751 -32.1517 27.8024 -32.1517 28.6996C-32.1517 29.5968 -32.8722 30.3241 -33.7607 30.3241Z" fill="#E9E0D6"/>
<path d="M-60.5759 30.3241C-61.4645 30.3241 -62.1848 29.5968 -62.1848 28.6996C-62.1848 27.8024 -61.4645 27.0751 -60.5759 27.0751C-59.6874 27.0751 -58.9669 27.8024 -58.9669 28.6996C-58.9669 29.5968 -59.6874 30.3241 -60.5759 30.3241Z" fill="#E9E0D6"/>
<path d="M-87.3909 30.3241C-88.2795 30.3241 -89 29.5968 -89 28.6996C-89 27.8024 -88.2795 27.0751 -87.3909 27.0751C-86.5024 27.0751 -85.7821 27.8024 -85.7821 28.6996C-85.7821 29.5968 -86.5024 30.3241 -87.3909 30.3241Z" fill="#E9E0D6"/>
<path d="M234.391 57.3992C233.503 57.3992 232.782 56.6719 232.782 55.7747C232.782 54.8775 233.503 54.1502 234.391 54.1502C235.28 54.1502 236 54.8775 236 55.7747C236 56.6719 235.28 57.3992 234.391 57.3992Z" fill="#E9E0D6"/>
<path d="M207.576 57.3992C206.687 57.3992 205.967 56.6719 205.967 55.7747C205.967 54.8775 206.687 54.1502 207.576 54.1502C208.464 54.1502 209.185 54.8775 209.185 55.7747C209.185 56.6719 208.464 57.3992 207.576 57.3992Z" fill="#E9E0D6"/>
<path d="M180.761 57.3992C179.872 57.3992 179.152 56.6719 179.152 55.7747C179.152 54.8775 179.872 54.1502 180.761 54.1502C181.649 54.1502 182.37 54.8775 182.37 55.7747C182.37 56.6719 181.649 57.3992 180.761 57.3992Z" fill="#E9E0D6"/>
<path d="M153.946 57.3992C153.057 57.3992 152.337 56.6719 152.337 55.7747C152.337 54.8775 153.057 54.1502 153.946 54.1502C154.834 54.1502 155.554 54.8775 155.554 55.7747C155.554 56.6719 154.834 57.3992 153.946 57.3992Z" fill="#E9E0D6"/>
<path d="M127.13 57.3992C126.242 57.3992 125.521 56.6719 125.521 55.7747C125.521 54.8775 126.242 54.1502 127.13 54.1502C128.019 54.1502 128.739 54.8775 128.739 55.7747C128.739 56.6719 128.019 57.3992 127.13 57.3992Z" fill="#E9E0D6"/>
<path d="M100.315 57.3992C99.4266 57.3992 98.7064 56.6719 98.7064 55.7747C98.7064 54.8775 99.4266 54.1502 100.315 54.1502C101.204 54.1502 101.924 54.8775 101.924 55.7747C101.924 56.6719 101.204 57.3992 100.315 57.3992Z" fill="#E9E0D6"/>
<path d="M73.5 57.3992C72.6114 57.3992 71.891 56.6719 71.891 55.7747C71.891 54.8775 72.6114 54.1502 73.5 54.1502C74.3886 54.1502 75.1089 54.8775 75.1089 55.7747C75.1089 56.6719 74.3886 57.3992 73.5 57.3992Z" fill="#E9E0D6"/>
<path d="M46.6848 57.3992C45.7962 57.3992 45.0758 56.6719 45.0758 55.7747C45.0758 54.8775 45.7962 54.1502 46.6848 54.1502C47.5734 54.1502 48.2939 54.8775 48.2939 55.7747C48.2939 56.6719 47.5734 57.3992 46.6848 57.3992Z" fill="#E9E0D6"/>
<path d="M19.8696 57.3992C18.9811 57.3992 18.2608 56.6719 18.2608 55.7747C18.2608 54.8775 18.9811 54.1502 19.8696 54.1502C20.7582 54.1502 21.4787 54.8775 21.4787 55.7747C21.4787 56.6719 20.7582 57.3992 19.8696 57.3992Z" fill="#E9E0D6"/>
<path d="M-6.94556 57.3992C-7.83412 57.3992 -8.55442 56.6719 -8.55442 55.7747C-8.55442 54.8775 -7.83412 54.1502 -6.94556 54.1502C-6.05698 54.1502 -5.33653 54.8775 -5.33654 55.7747C-5.33654 56.6719 -6.05698 57.3992 -6.94556 57.3992Z" fill="#E9E0D6"/>
<path d="M-33.7607 57.3992C-34.6493 57.3992 -35.3696 56.6719 -35.3696 55.7747C-35.3696 54.8775 -34.6493 54.1502 -33.7607 54.1502C-32.8722 54.1502 -32.1517 54.8775 -32.1517 55.7747C-32.1517 56.6719 -32.8722 57.3992 -33.7607 57.3992Z" fill="#E9E0D6"/>
<path d="M-60.5759 57.3992C-61.4645 57.3992 -62.1848 56.6719 -62.1848 55.7747C-62.1848 54.8775 -61.4645 54.1502 -60.5759 54.1502C-59.6874 54.1502 -58.9669 54.8775 -58.9669 55.7747C-58.9669 56.6719 -59.6874 57.3992 -60.5759 57.3992Z" fill="#E9E0D6"/>
<path d="M-87.3909 57.3992C-88.2795 57.3992 -89 56.6719 -89 55.7747C-89 54.8775 -88.2795 54.1502 -87.3909 54.1502C-86.5024 54.1502 -85.7821 54.8775 -85.7821 55.7747C-85.7821 56.6719 -86.5024 57.3992 -87.3909 57.3992Z" fill="#E9E0D6"/>
<path d="M234.391 84.4743C233.503 84.4743 232.782 83.747 232.782 82.8498C232.782 81.9526 233.503 81.2253 234.391 81.2253C235.28 81.2253 236 81.9526 236 82.8498C236 83.747 235.28 84.4743 234.391 84.4743Z" fill="#E9E0D6"/>
<path d="M207.576 84.4743C206.687 84.4743 205.967 83.747 205.967 82.8498C205.967 81.9526 206.687 81.2253 207.576 81.2253C208.464 81.2253 209.185 81.9526 209.185 82.8498C209.185 83.747 208.464 84.4743 207.576 84.4743Z" fill="#E9E0D6"/>
<path d="M180.761 84.4743C179.872 84.4743 179.152 83.747 179.152 82.8498C179.152 81.9526 179.872 81.2253 180.761 81.2253C181.649 81.2253 182.37 81.9526 182.37 82.8498C182.37 83.747 181.649 84.4743 180.761 84.4743Z" fill="#E9E0D6"/>
<path d="M153.946 84.4743C153.057 84.4743 152.337 83.747 152.337 82.8498C152.337 81.9526 153.057 81.2253 153.946 81.2253C154.834 81.2253 155.554 81.9526 155.554 82.8498C155.554 83.747 154.834 84.4743 153.946 84.4743Z" fill="#E9E0D6"/>
<path d="M127.13 84.4743C126.242 84.4743 125.521 83.747 125.521 82.8498C125.521 81.9526 126.242 81.2253 127.13 81.2253C128.019 81.2253 128.739 81.9526 128.739 82.8498C128.739 83.747 128.019 84.4743 127.13 84.4743Z" fill="#E9E0D6"/>
<path d="M100.315 84.4743C99.4266 84.4743 98.7064 83.747 98.7064 82.8498C98.7064 81.9526 99.4266 81.2253 100.315 81.2253C101.204 81.2253 101.924 81.9526 101.924 82.8498C101.924 83.747 101.204 84.4743 100.315 84.4743Z" fill="#E9E0D6"/>
<path d="M73.5 84.4743C72.6114 84.4743 71.891 83.747 71.891 82.8498C71.891 81.9526 72.6114 81.2253 73.5 81.2253C74.3886 81.2253 75.1089 81.9526 75.1089 82.8498C75.1089 83.747 74.3886 84.4743 73.5 84.4743Z" fill="#E9E0D6"/>
<path d="M46.6848 84.4743C45.7962 84.4743 45.0758 83.747 45.0758 82.8498C45.0758 81.9526 45.7962 81.2253 46.6848 81.2253C47.5734 81.2253 48.2939 81.9526 48.2939 82.8498C48.2939 83.747 47.5734 84.4743 46.6848 84.4743Z" fill="#E9E0D6"/>
<path d="M19.8696 84.4743C18.9811 84.4743 18.2608 83.747 18.2608 82.8498C18.2608 81.9526 18.9811 81.2253 19.8696 81.2253C20.7582 81.2253 21.4786 81.9526 21.4786 82.8498C21.4786 83.747 20.7582 84.4743 19.8696 84.4743Z" fill="#E9E0D6"/>
<path d="M-6.94556 84.4743C-7.83413 84.4743 -8.55442 83.747 -8.55442 82.8498C-8.55442 81.9526 -7.83413 81.2253 -6.94556 81.2253C-6.05698 81.2253 -5.33654 81.9526 -5.33654 82.8498C-5.33654 83.747 -6.05698 84.4743 -6.94556 84.4743Z" fill="#E9E0D6"/>
<path d="M-33.7607 84.4743C-34.6493 84.4743 -35.3696 83.747 -35.3696 82.8498C-35.3696 81.9526 -34.6493 81.2253 -33.7607 81.2253C-32.8722 81.2253 -32.1517 81.9526 -32.1517 82.8498C-32.1517 83.747 -32.8722 84.4743 -33.7607 84.4743Z" fill="#E9E0D6"/>
<path d="M-60.5759 84.4743C-61.4645 84.4743 -62.1848 83.747 -62.1848 82.8498C-62.1848 81.9526 -61.4645 81.2253 -60.5759 81.2253C-59.6874 81.2253 -58.9669 81.9526 -58.9669 82.8498C-58.9669 83.747 -59.6874 84.4743 -60.5759 84.4743Z" fill="#E9E0D6"/>
<path d="M-87.3909 84.4743C-88.2795 84.4743 -89 83.747 -89 82.8498C-89 81.9526 -88.2795 81.2253 -87.3909 81.2253C-86.5024 81.2253 -85.7821 81.9526 -85.7821 82.8498C-85.7821 83.747 -86.5024 84.4743 -87.3909 84.4743Z" fill="#E9E0D6"/>
<path d="M234.391 111.549C233.503 111.549 232.782 110.822 232.782 109.925C232.782 109.028 233.503 108.3 234.391 108.3C235.28 108.3 236 109.028 236 109.925C236 110.822 235.28 111.549 234.391 111.549Z" fill="#E9E0D6"/>
<path d="M207.576 111.549C206.687 111.549 205.967 110.822 205.967 109.925C205.967 109.028 206.687 108.3 207.576 108.3C208.464 108.3 209.185 109.028 209.185 109.925C209.185 110.822 208.464 111.549 207.576 111.549Z" fill="#E9E0D6"/>
<path d="M180.761 111.549C179.872 111.549 179.152 110.822 179.152 109.925C179.152 109.028 179.872 108.3 180.761 108.3C181.649 108.3 182.37 109.028 182.37 109.925C182.37 110.822 181.649 111.549 180.761 111.549Z" fill="#E9E0D6"/>
<path d="M153.946 111.549C153.057 111.549 152.337 110.822 152.337 109.925C152.337 109.028 153.057 108.3 153.946 108.3C154.834 108.3 155.554 109.028 155.554 109.925C155.554 110.822 154.834 111.549 153.946 111.549Z" fill="#E9E0D6"/>
<path d="M127.13 111.549C126.242 111.549 125.521 110.822 125.521 109.925C125.521 109.028 126.242 108.3 127.13 108.3C128.019 108.3 128.739 109.028 128.739 109.925C128.739 110.822 128.019 111.549 127.13 111.549Z" fill="#E9E0D6"/>
<path d="M100.315 111.549C99.4266 111.549 98.7064 110.822 98.7064 109.925C98.7064 109.028 99.4266 108.3 100.315 108.3C101.204 108.3 101.924 109.028 101.924 109.925C101.924 110.822 101.204 111.549 100.315 111.549Z" fill="#E9E0D6"/>
<path d="M73.5 111.549C72.6114 111.549 71.891 110.822 71.891 109.925C71.891 109.028 72.6114 108.3 73.5 108.3C74.3886 108.3 75.1089 109.028 75.1089 109.925C75.1089 110.822 74.3886 111.549 73.5 111.549Z" fill="#E9E0D6"/>
<path d="M46.6848 111.549C45.7962 111.549 45.0758 110.822 45.0758 109.925C45.0758 109.028 45.7962 108.3 46.6848 108.3C47.5734 108.3 48.2938 109.028 48.2938 109.925C48.2938 110.822 47.5734 111.549 46.6848 111.549Z" fill="#E9E0D6"/>
<path d="M19.8696 111.549C18.9811 111.549 18.2608 110.822 18.2608 109.925C18.2608 109.028 18.9811 108.3 19.8696 108.3C20.7582 108.3 21.4786 109.028 21.4786 109.925C21.4786 110.822 20.7582 111.549 19.8696 111.549Z" fill="#E9E0D6"/>
<path d="M-6.94556 111.549C-7.83413 111.549 -8.55442 110.822 -8.55442 109.925C-8.55442 109.028 -7.83413 108.3 -6.94556 108.3C-6.05698 108.3 -5.33654 109.028 -5.33654 109.925C-5.33654 110.822 -6.05698 111.549 -6.94556 111.549Z" fill="#E9E0D6"/>
<path d="M-33.7607 111.549C-34.6493 111.549 -35.3696 110.822 -35.3696 109.925C-35.3696 109.028 -34.6493 108.3 -33.7607 108.3C-32.8722 108.3 -32.1517 109.028 -32.1517 109.925C-32.1517 110.822 -32.8722 111.549 -33.7607 111.549Z" fill="#E9E0D6"/>
<path d="M-60.5759 111.549C-61.4645 111.549 -62.1848 110.822 -62.1848 109.925C-62.1848 109.028 -61.4645 108.3 -60.5759 108.3C-59.6874 108.3 -58.9669 109.028 -58.9669 109.925C-58.9669 110.822 -59.6874 111.549 -60.5759 111.549Z" fill="#E9E0D6"/>
<path d="M-87.391 111.549C-88.2795 111.549 -89 110.822 -89 109.925C-89 109.028 -88.2795 108.3 -87.391 108.3C-86.5024 108.3 -85.7821 109.028 -85.7821 109.925C-85.7821 110.822 -86.5024 111.549 -87.391 111.549Z" fill="#E9E0D6"/>
<path d="M234.391 138.624C233.503 138.624 232.782 137.897 232.782 137C232.782 136.103 233.503 135.375 234.391 135.375C235.28 135.375 236 136.103 236 137C236 137.897 235.28 138.624 234.391 138.624Z" fill="#E9E0D6"/>
<path d="M207.576 138.624C206.687 138.624 205.967 137.897 205.967 137C205.967 136.103 206.687 135.375 207.576 135.375C208.464 135.375 209.185 136.103 209.185 137C209.185 137.897 208.464 138.624 207.576 138.624Z" fill="#E9E0D6"/>
<path d="M180.761 138.624C179.872 138.624 179.152 137.897 179.152 137C179.152 136.103 179.872 135.375 180.761 135.375C181.649 135.375 182.37 136.103 182.37 137C182.37 137.897 181.649 138.624 180.761 138.624Z" fill="#E9E0D6"/>
<path d="M153.946 138.624C153.057 138.624 152.337 137.897 152.337 137C152.337 136.103 153.057 135.375 153.946 135.375C154.834 135.375 155.554 136.103 155.554 137C155.554 137.897 154.834 138.624 153.946 138.624Z" fill="#E9E0D6"/>
<path d="M127.13 138.624C126.242 138.624 125.521 137.897 125.521 137C125.521 136.103 126.242 135.375 127.13 135.375C128.019 135.375 128.739 136.103 128.739 137C128.739 137.897 128.019 138.624 127.13 138.624Z" fill="#E9E0D6"/>
<path d="M100.315 138.624C99.4266 138.624 98.7064 137.897 98.7064 137C98.7064 136.103 99.4266 135.375 100.315 135.375C101.204 135.375 101.924 136.103 101.924 137C101.924 137.897 101.204 138.624 100.315 138.624Z" fill="#E9E0D6"/>
<path d="M73.5 138.624C72.6114 138.624 71.891 137.897 71.891 137C71.891 136.103 72.6114 135.375 73.5 135.375C74.3886 135.375 75.1089 136.103 75.1089 137C75.1089 137.897 74.3886 138.624 73.5 138.624Z" fill="#E9E0D6"/>
<path d="M46.6848 138.624C45.7962 138.624 45.0758 137.897 45.0758 137C45.0758 136.103 45.7962 135.375 46.6848 135.375C47.5734 135.375 48.2938 136.103 48.2938 137C48.2938 137.897 47.5734 138.624 46.6848 138.624Z" fill="#E9E0D6"/>
<path d="M19.8696 138.624C18.9811 138.624 18.2608 137.897 18.2608 137C18.2608 136.103 18.9811 135.375 19.8696 135.375C20.7582 135.375 21.4786 136.103 21.4786 137C21.4786 137.897 20.7582 138.624 19.8696 138.624Z" fill="#E9E0D6"/>
<path d="M-6.94556 138.624C-7.83413 138.624 -8.55442 137.897 -8.55442 137C-8.55442 136.103 -7.83413 135.375 -6.94556 135.375C-6.05698 135.375 -5.33654 136.103 -5.33654 137C-5.33654 137.897 -6.05698 138.624 -6.94556 138.624Z" fill="#E9E0D6"/>
<path d="M-33.7607 138.624C-34.6493 138.624 -35.3696 137.897 -35.3696 137C-35.3696 136.103 -34.6493 135.375 -33.7607 135.375C-32.8722 135.375 -32.1517 136.103 -32.1517 137C-32.1517 137.897 -32.8722 138.624 -33.7607 138.624Z" fill="#E9E0D6"/>
<path d="M-60.5759 138.624C-61.4645 138.624 -62.1848 137.897 -62.1848 137C-62.1848 136.103 -61.4645 135.375 -60.5759 135.375C-59.6874 135.375 -58.9669 136.103 -58.9669 137C-58.9669 137.897 -59.6874 138.624 -60.5759 138.624Z" fill="#E9E0D6"/>
<path d="M-87.391 138.624C-88.2795 138.624 -89 137.897 -89 137C-89 136.103 -88.2795 135.375 -87.391 135.375C-86.5024 135.375 -85.7821 136.103 -85.7821 137C-85.7821 137.897 -86.5024 138.624 -87.391 138.624Z" fill="#E9E0D6"/>
<path d="M234.391 165.7C233.503 165.7 232.782 164.972 232.782 164.075C232.782 163.178 233.503 162.451 234.391 162.451C235.28 162.451 236 163.178 236 164.075C236 164.972 235.28 165.7 234.391 165.7Z" fill="#E9E0D6"/>
<path d="M207.576 165.7C206.687 165.7 205.967 164.972 205.967 164.075C205.967 163.178 206.687 162.451 207.576 162.451C208.464 162.451 209.185 163.178 209.185 164.075C209.185 164.972 208.464 165.7 207.576 165.7Z" fill="#E9E0D6"/>
<path d="M180.761 165.7C179.872 165.7 179.152 164.972 179.152 164.075C179.152 163.178 179.872 162.451 180.761 162.451C181.649 162.451 182.37 163.178 182.37 164.075C182.37 164.972 181.649 165.7 180.761 165.7Z" fill="#E9E0D6"/>
<path d="M153.946 165.7C153.057 165.7 152.337 164.972 152.337 164.075C152.337 163.178 153.057 162.451 153.946 162.451C154.834 162.451 155.554 163.178 155.554 164.075C155.554 164.972 154.834 165.7 153.946 165.7Z" fill="#E9E0D6"/>
<path d="M127.13 165.7C126.242 165.7 125.521 164.972 125.521 164.075C125.521 163.178 126.242 162.451 127.13 162.451C128.019 162.451 128.739 163.178 128.739 164.075C128.739 164.972 128.019 165.7 127.13 165.7Z" fill="#E9E0D6"/>
<path d="M100.315 165.7C99.4266 165.7 98.7064 164.972 98.7064 164.075C98.7064 163.178 99.4266 162.451 100.315 162.451C101.204 162.451 101.924 163.178 101.924 164.075C101.924 164.972 101.204 165.7 100.315 165.7Z" fill="#E9E0D6"/>
<path d="M73.5 165.7C72.6114 165.7 71.891 164.972 71.891 164.075C71.891 163.178 72.6114 162.451 73.5 162.451C74.3886 162.451 75.1089 163.178 75.1089 164.075C75.1089 164.972 74.3886 165.7 73.5 165.7Z" fill="#E9E0D6"/>
<path d="M46.6848 165.7C45.7962 165.7 45.0758 164.972 45.0758 164.075C45.0758 163.178 45.7962 162.451 46.6848 162.451C47.5734 162.451 48.2938 163.178 48.2938 164.075C48.2938 164.972 47.5734 165.7 46.6848 165.7Z" fill="#E9E0D6"/>
<path d="M19.8696 165.7C18.9811 165.7 18.2608 164.972 18.2608 164.075C18.2608 163.178 18.9811 162.451 19.8696 162.451C20.7582 162.451 21.4786 163.178 21.4786 164.075C21.4786 164.972 20.7582 165.7 19.8696 165.7Z" fill="#E9E0D6"/>
<path d="M-6.94556 165.7C-7.83413 165.7 -8.55442 164.972 -8.55442 164.075C-8.55442 163.178 -7.83413 162.451 -6.94556 162.451C-6.05698 162.451 -5.33654 163.178 -5.33654 164.075C-5.33654 164.972 -6.05698 165.7 -6.94556 165.7Z" fill="#E9E0D6"/>
<path d="M-33.7607 165.7C-34.6493 165.7 -35.3696 164.972 -35.3696 164.075C-35.3696 163.178 -34.6493 162.451 -33.7607 162.451C-32.8722 162.451 -32.1517 163.178 -32.1517 164.075C-32.1517 164.972 -32.8722 165.7 -33.7607 165.7Z" fill="#E9E0D6"/>
<path d="M-60.576 165.7C-61.4645 165.7 -62.1848 164.972 -62.1848 164.075C-62.1848 163.178 -61.4645 162.451 -60.576 162.451C-59.6874 162.451 -58.9669 163.178 -58.9669 164.075C-58.9669 164.972 -59.6874 165.7 -60.576 165.7Z" fill="#E9E0D6"/>
<path d="M-87.391 165.7C-88.2795 165.7 -89 164.972 -89 164.075C-89 163.178 -88.2795 162.451 -87.391 162.451C-86.5024 162.451 -85.7821 163.178 -85.7821 164.075C-85.7821 164.972 -86.5024 165.7 -87.391 165.7Z" fill="#E9E0D6"/>
<path d="M234.391 192.775C233.503 192.775 232.782 192.047 232.782 191.15C232.782 190.253 233.503 189.526 234.391 189.526C235.28 189.526 236 190.253 236 191.15C236 192.047 235.28 192.775 234.391 192.775Z" fill="#E9E0D6"/>
<path d="M207.576 192.775C206.687 192.775 205.967 192.047 205.967 191.15C205.967 190.253 206.687 189.526 207.576 189.526C208.464 189.526 209.185 190.253 209.185 191.15C209.185 192.047 208.464 192.775 207.576 192.775Z" fill="#E9E0D6"/>
<path d="M180.761 192.775C179.872 192.775 179.152 192.047 179.152 191.15C179.152 190.253 179.872 189.526 180.761 189.526C181.649 189.526 182.37 190.253 182.37 191.15C182.37 192.047 181.649 192.775 180.761 192.775Z" fill="#E9E0D6"/>
<path d="M153.946 192.775C153.057 192.775 152.337 192.047 152.337 191.15C152.337 190.253 153.057 189.526 153.946 189.526C154.834 189.526 155.554 190.253 155.554 191.15C155.554 192.047 154.834 192.775 153.946 192.775Z" fill="#E9E0D6"/>
<path d="M127.13 192.775C126.242 192.775 125.521 192.047 125.521 191.15C125.521 190.253 126.242 189.526 127.13 189.526C128.019 189.526 128.739 190.253 128.739 191.15C128.739 192.047 128.019 192.775 127.13 192.775Z" fill="#E9E0D6"/>
<path d="M100.315 192.775C99.4266 192.775 98.7064 192.047 98.7064 191.15C98.7064 190.253 99.4266 189.526 100.315 189.526C101.204 189.526 101.924 190.253 101.924 191.15C101.924 192.047 101.204 192.775 100.315 192.775Z" fill="#E9E0D6"/>
<path d="M73.5 192.775C72.6114 192.775 71.891 192.047 71.891 191.15C71.891 190.253 72.6114 189.526 73.5 189.526C74.3886 189.526 75.1089 190.253 75.1089 191.15C75.1089 192.047 74.3886 192.775 73.5 192.775Z" fill="#E9E0D6"/>
<path d="M46.6848 192.775C45.7962 192.775 45.0758 192.047 45.0758 191.15C45.0758 190.253 45.7962 189.526 46.6848 189.526C47.5734 189.526 48.2938 190.253 48.2938 191.15C48.2938 192.047 47.5734 192.775 46.6848 192.775Z" fill="#E9E0D6"/>
<path d="M19.8696 192.775C18.9811 192.775 18.2608 192.047 18.2608 191.15C18.2608 190.253 18.9811 189.526 19.8696 189.526C20.7582 189.526 21.4786 190.253 21.4786 191.15C21.4786 192.047 20.7582 192.775 19.8696 192.775Z" fill="#E9E0D6"/>
<path d="M-6.94557 192.775C-7.83413 192.775 -8.55442 192.047 -8.55442 191.15C-8.55442 190.253 -7.83413 189.526 -6.94556 189.526C-6.05698 189.526 -5.33654 190.253 -5.33654 191.15C-5.33654 192.047 -6.05698 192.775 -6.94557 192.775Z" fill="#E9E0D6"/>
<path d="M-33.7607 192.775C-34.6493 192.775 -35.3696 192.047 -35.3696 191.15C-35.3696 190.253 -34.6493 189.526 -33.7607 189.526C-32.8722 189.526 -32.1517 190.253 -32.1517 191.15C-32.1517 192.047 -32.8722 192.775 -33.7607 192.775Z" fill="#E9E0D6"/>
<path d="M-60.576 192.775C-61.4645 192.775 -62.1848 192.047 -62.1848 191.15C-62.1848 190.253 -61.4645 189.526 -60.576 189.526C-59.6874 189.526 -58.9669 190.253 -58.9669 191.15C-58.9669 192.047 -59.6874 192.775 -60.576 192.775Z" fill="#E9E0D6"/>
<path d="M-87.391 192.775C-88.2795 192.775 -89 192.047 -89 191.15C-89 190.253 -88.2795 189.526 -87.391 189.526C-86.5024 189.526 -85.7821 190.253 -85.7821 191.15C-85.7821 192.047 -86.5024 192.775 -87.391 192.775Z" fill="#E9E0D6"/>
<path d="M234.391 219.85C233.503 219.85 232.782 219.122 232.782 218.225C232.782 217.328 233.503 216.601 234.391 216.601C235.28 216.601 236 217.328 236 218.225C236 219.122 235.28 219.85 234.391 219.85Z" fill="#E9E0D6"/>
<path d="M207.576 219.85C206.687 219.85 205.967 219.122 205.967 218.225C205.967 217.328 206.687 216.601 207.576 216.601C208.464 216.601 209.185 217.328 209.185 218.225C209.185 219.122 208.464 219.85 207.576 219.85Z" fill="#E9E0D6"/>
<path d="M180.761 219.85C179.872 219.85 179.152 219.122 179.152 218.225C179.152 217.328 179.872 216.601 180.761 216.601C181.649 216.601 182.37 217.328 182.37 218.225C182.37 219.122 181.649 219.85 180.761 219.85Z" fill="#E9E0D6"/>
<path d="M153.946 219.85C153.057 219.85 152.337 219.122 152.337 218.225C152.337 217.328 153.057 216.601 153.946 216.601C154.834 216.601 155.554 217.328 155.554 218.225C155.554 219.122 154.834 219.85 153.946 219.85Z" fill="#E9E0D6"/>
<path d="M127.13 219.85C126.242 219.85 125.521 219.122 125.521 218.225C125.521 217.328 126.242 216.601 127.13 216.601C128.019 216.601 128.739 217.328 128.739 218.225C128.739 219.122 128.019 219.85 127.13 219.85Z" fill="#E9E0D6"/>
<path d="M100.315 219.85C99.4266 219.85 98.7064 219.122 98.7064 218.225C98.7064 217.328 99.4266 216.601 100.315 216.601C101.204 216.601 101.924 217.328 101.924 218.225C101.924 219.122 101.204 219.85 100.315 219.85Z" fill="#E9E0D6"/>
<path d="M73.5 219.85C72.6114 219.85 71.891 219.122 71.891 218.225C71.891 217.328 72.6114 216.601 73.5 216.601C74.3886 216.601 75.1089 217.328 75.1089 218.225C75.1089 219.122 74.3886 219.85 73.5 219.85Z" fill="#E9E0D6"/>
<path d="M46.6848 219.85C45.7962 219.85 45.0758 219.122 45.0758 218.225C45.0758 217.328 45.7962 216.601 46.6848 216.601C47.5734 216.601 48.2938 217.328 48.2938 218.225C48.2938 219.122 47.5734 219.85 46.6848 219.85Z" fill="#E9E0D6"/>
<path d="M19.8696 219.85C18.9811 219.85 18.2608 219.122 18.2608 218.225C18.2608 217.328 18.9811 216.601 19.8696 216.601C20.7582 216.601 21.4786 217.328 21.4786 218.225C21.4786 219.122 20.7582 219.85 19.8696 219.85Z" fill="#E9E0D6"/>
<path d="M-6.94557 219.85C-7.83413 219.85 -8.55442 219.122 -8.55442 218.225C-8.55442 217.328 -7.83413 216.601 -6.94557 216.601C-6.05699 216.601 -5.33654 217.328 -5.33654 218.225C-5.33654 219.122 -6.05699 219.85 -6.94557 219.85Z" fill="#E9E0D6"/>
<path d="M-33.7607 219.85C-34.6493 219.85 -35.3696 219.122 -35.3696 218.225C-35.3696 217.328 -34.6493 216.601 -33.7607 216.601C-32.8722 216.601 -32.1517 217.328 -32.1517 218.225C-32.1517 219.122 -32.8722 219.85 -33.7607 219.85Z" fill="#E9E0D6"/>
<path d="M-60.576 219.85C-61.4645 219.85 -62.1848 219.122 -62.1848 218.225C-62.1848 217.328 -61.4645 216.601 -60.576 216.601C-59.6874 216.601 -58.9669 217.328 -58.9669 218.225C-58.9669 219.122 -59.6874 219.85 -60.576 219.85Z" fill="#E9E0D6"/>
<path d="M-87.391 219.85C-88.2795 219.85 -89 219.122 -89 218.225C-89 217.328 -88.2795 216.601 -87.391 216.601C-86.5024 216.601 -85.7821 217.328 -85.7821 218.225C-85.7821 219.122 -86.5024 219.85 -87.391 219.85Z" fill="#E9E0D6"/>
<path d="M234.391 246.925C233.503 246.925 232.782 246.198 232.782 245.3C232.782 244.403 233.503 243.676 234.391 243.676C235.28 243.676 236 244.403 236 245.3C236 246.198 235.28 246.925 234.391 246.925Z" fill="#E9E0D6"/>
<path d="M207.576 246.925C206.687 246.925 205.967 246.198 205.967 245.3C205.967 244.403 206.687 243.676 207.576 243.676C208.464 243.676 209.185 244.403 209.185 245.3C209.185 246.198 208.464 246.925 207.576 246.925Z" fill="#E9E0D6"/>
<path d="M180.761 246.925C179.872 246.925 179.152 246.198 179.152 245.3C179.152 244.403 179.872 243.676 180.761 243.676C181.649 243.676 182.37 244.403 182.37 245.3C182.37 246.198 181.649 246.925 180.761 246.925Z" fill="#E9E0D6"/>
<path d="M153.946 246.925C153.057 246.925 152.337 246.198 152.337 245.3C152.337 244.403 153.057 243.676 153.946 243.676C154.834 243.676 155.554 244.403 155.554 245.3C155.554 246.198 154.834 246.925 153.946 246.925Z" fill="#E9E0D6"/>
<path d="M127.13 246.925C126.242 246.925 125.521 246.198 125.521 245.3C125.521 244.403 126.242 243.676 127.13 243.676C128.019 243.676 128.739 244.403 128.739 245.3C128.739 246.198 128.019 246.925 127.13 246.925Z" fill="#E9E0D6"/>
<path d="M100.315 246.925C99.4266 246.925 98.7063 246.198 98.7063 245.3C98.7063 244.403 99.4266 243.676 100.315 243.676C101.204 243.676 101.924 244.403 101.924 245.3C101.924 246.198 101.204 246.925 100.315 246.925Z" fill="#E9E0D6"/>
<path d="M73.5 246.925C72.6114 246.925 71.891 246.198 71.891 245.3C71.891 244.403 72.6114 243.676 73.5 243.676C74.3886 243.676 75.1089 244.403 75.1089 245.3C75.1089 246.198 74.3886 246.925 73.5 246.925Z" fill="#E9E0D6"/>
<path d="M46.6848 246.925C45.7962 246.925 45.0758 246.198 45.0758 245.3C45.0758 244.403 45.7962 243.676 46.6848 243.676C47.5734 243.676 48.2938 244.403 48.2938 245.3C48.2938 246.198 47.5734 246.925 46.6848 246.925Z" fill="#E9E0D6"/>
<path d="M19.8696 246.925C18.9811 246.925 18.2608 246.198 18.2608 245.3C18.2608 244.403 18.9811 243.676 19.8696 243.676C20.7582 243.676 21.4786 244.403 21.4786 245.3C21.4786 246.198 20.7582 246.925 19.8696 246.925Z" fill="#E9E0D6"/>
<path d="M-6.94557 246.925C-7.83413 246.925 -8.55442 246.198 -8.55442 245.3C-8.55442 244.403 -7.83413 243.676 -6.94557 243.676C-6.05699 243.676 -5.33654 244.403 -5.33654 245.3C-5.33654 246.198 -6.05699 246.925 -6.94557 246.925Z" fill="#E9E0D6"/>
<path d="M-33.7607 246.925C-34.6493 246.925 -35.3696 246.198 -35.3696 245.3C-35.3696 244.403 -34.6493 243.676 -33.7607 243.676C-32.8722 243.676 -32.1517 244.403 -32.1517 245.3C-32.1517 246.198 -32.8722 246.925 -33.7607 246.925Z" fill="#E9E0D6"/>
<path d="M-60.576 246.925C-61.4645 246.925 -62.1848 246.198 -62.1848 245.3C-62.1848 244.403 -61.4645 243.676 -60.576 243.676C-59.6874 243.676 -58.9669 244.403 -58.9669 245.3C-58.9669 246.198 -59.6874 246.925 -60.576 246.925Z" fill="#E9E0D6"/>
<path d="M-87.391 246.925C-88.2795 246.925 -89 246.198 -89 245.3C-89 244.403 -88.2795 243.676 -87.391 243.676C-86.5024 243.676 -85.7821 244.403 -85.7821 245.3C-85.7821 246.198 -86.5024 246.925 -87.391 246.925Z" fill="#E9E0D6"/>
<path d="M234.391 274C233.503 274 232.782 273.273 232.782 272.375C232.782 271.478 233.503 270.751 234.391 270.751C235.28 270.751 236 271.478 236 272.375C236 273.273 235.28 274 234.391 274Z" fill="#E9E0D6"/>
<path d="M207.576 274C206.687 274 205.967 273.273 205.967 272.375C205.967 271.478 206.687 270.751 207.576 270.751C208.464 270.751 209.185 271.478 209.185 272.375C209.185 273.273 208.464 274 207.576 274Z" fill="#E9E0D6"/>
<path d="M180.761 274C179.872 274 179.152 273.273 179.152 272.375C179.152 271.478 179.872 270.751 180.761 270.751C181.649 270.751 182.37 271.478 182.37 272.375C182.37 273.273 181.649 274 180.761 274Z" fill="#E9E0D6"/>
<path d="M153.946 274C153.057 274 152.337 273.273 152.337 272.375C152.337 271.478 153.057 270.751 153.946 270.751C154.834 270.751 155.554 271.478 155.554 272.375C155.554 273.273 154.834 274 153.946 274Z" fill="#E9E0D6"/>
<path d="M127.13 274C126.242 274 125.521 273.273 125.521 272.375C125.521 271.478 126.242 270.751 127.13 270.751C128.019 270.751 128.739 271.478 128.739 272.375C128.739 273.273 128.019 274 127.13 274Z" fill="#E9E0D6"/>
<path d="M100.315 274C99.4266 274 98.7063 273.273 98.7063 272.375C98.7063 271.478 99.4266 270.751 100.315 270.751C101.204 270.751 101.924 271.478 101.924 272.375C101.924 273.273 101.204 274 100.315 274Z" fill="#E9E0D6"/>
<path d="M73.5 274C72.6114 274 71.891 273.273 71.891 272.375C71.891 271.478 72.6114 270.751 73.5 270.751C74.3886 270.751 75.1089 271.478 75.1089 272.375C75.1089 273.273 74.3886 274 73.5 274Z" fill="#E9E0D6"/>
<path d="M46.6848 274C45.7962 274 45.0758 273.273 45.0758 272.375C45.0758 271.478 45.7962 270.751 46.6848 270.751C47.5734 270.751 48.2938 271.478 48.2938 272.375C48.2938 273.273 47.5734 274 46.6848 274Z" fill="#E9E0D6"/>
<path d="M19.8696 274C18.9811 274 18.2608 273.273 18.2608 272.375C18.2608 271.478 18.9811 270.751 19.8696 270.751C20.7582 270.751 21.4786 271.478 21.4786 272.375C21.4786 273.273 20.7582 274 19.8696 274Z" fill="#E9E0D6"/>
<path d="M-6.94557 274C-7.83413 274 -8.55442 273.273 -8.55442 272.375C-8.55442 271.478 -7.83413 270.751 -6.94557 270.751C-6.05699 270.751 -5.33654 271.478 -5.33654 272.375C-5.33654 273.273 -6.05699 274 -6.94557 274Z" fill="#E9E0D6"/>
<path d="M-33.7607 274C-34.6493 274 -35.3696 273.273 -35.3696 272.375C-35.3696 271.478 -34.6493 270.751 -33.7607 270.751C-32.8722 270.751 -32.1517 271.478 -32.1517 272.375C-32.1517 273.273 -32.8722 274 -33.7607 274Z" fill="#E9E0D6"/>
<path d="M-60.576 274C-61.4645 274 -62.1848 273.273 -62.1848 272.375C-62.1848 271.478 -61.4645 270.751 -60.576 270.751C-59.6874 270.751 -58.9669 271.478 -58.9669 272.375C-58.9669 273.273 -59.6874 274 -60.576 274Z" fill="#E9E0D6"/>
<path d="M-87.391 274C-88.2795 274 -89 273.273 -89 272.375C-89 271.478 -88.2795 270.751 -87.391 270.751C-86.5024 270.751 -85.7821 271.478 -85.7821 272.375C-85.7821 273.273 -86.5024 274 -87.391 274Z" fill="#E9E0D6"/>
</svg>
