<svg width="157" height="325" viewBox="0 0 157 325" fill="none" xmlns="http://www.w3.org/2000/svg">
<path d="M270.751 323.391C270.751 322.503 271.478 321.782 272.375 321.782C273.273 321.782 274 322.503 274 323.391C274 324.28 273.273 325 272.375 325C271.478 325 270.751 324.28 270.751 323.391Z" fill="#E9E0D6"/>
<path d="M270.751 296.576C270.751 295.687 271.478 294.967 272.375 294.967C273.273 294.967 274 295.687 274 296.576C274 297.464 273.273 298.185 272.375 298.185C271.478 298.185 270.751 297.464 270.751 296.576Z" fill="#E9E0D6"/>
<path d="M270.751 269.761C270.751 268.872 271.478 268.152 272.375 268.152C273.273 268.152 274 268.872 274 269.761C274 270.649 273.273 271.37 272.375 271.37C271.478 271.37 270.751 270.649 270.751 269.761Z" fill="#E9E0D6"/>
<path d="M270.751 242.946C270.751 242.057 271.478 241.337 272.376 241.337C273.273 241.337 274 242.057 274 242.946C274 243.834 273.273 244.554 272.376 244.554C271.478 244.554 270.751 243.834 270.751 242.946Z" fill="#E9E0D6"/>
<path d="M270.751 216.13C270.751 215.242 271.478 214.521 272.376 214.521C273.273 214.521 274 215.242 274 216.13C274 217.019 273.273 217.739 272.376 217.739C271.478 217.739 270.751 217.019 270.751 216.13Z" fill="#E9E0D6"/>
<path d="M270.751 189.315C270.751 188.427 271.478 187.706 272.376 187.706C273.273 187.706 274 188.427 274 189.315C274 190.204 273.273 190.924 272.376 190.924C271.478 190.924 270.751 190.204 270.751 189.315Z" fill="#E9E0D6"/>
<path d="M270.751 162.5C270.751 161.611 271.478 160.891 272.376 160.891C273.273 160.891 274 161.611 274 162.5C274 163.389 273.273 164.109 272.376 164.109C271.478 164.109 270.751 163.389 270.751 162.5Z" fill="#E9E0D6"/>
<path d="M270.751 135.685C270.751 134.796 271.478 134.076 272.376 134.076C273.273 134.076 274 134.796 274 135.685C274 136.573 273.273 137.294 272.376 137.294C271.478 137.294 270.751 136.573 270.751 135.685Z" fill="#E9E0D6"/>
<path d="M270.751 108.87C270.751 107.981 271.478 107.261 272.376 107.261C273.273 107.261 274 107.981 274 108.87C274 109.758 273.273 110.479 272.376 110.479C271.478 110.479 270.751 109.758 270.751 108.87Z" fill="#E9E0D6"/>
<path d="M270.751 82.0544C270.751 81.1659 271.478 80.4456 272.376 80.4456C273.273 80.4456 274 81.1659 274 82.0544C274 82.943 273.273 83.6635 272.376 83.6635C271.478 83.6635 270.751 82.943 270.751 82.0544Z" fill="#E9E0D6"/>
<path d="M270.751 55.2393C270.751 54.3507 271.478 53.6304 272.376 53.6304C273.273 53.6304 274 54.3507 274 55.2393C274 56.1278 273.273 56.8483 272.376 56.8483C271.478 56.8483 270.751 56.1278 270.751 55.2393Z" fill="#E9E0D6"/>
<path d="M270.751 28.424C270.751 27.5355 271.478 26.8152 272.376 26.8152C273.273 26.8152 274 27.5355 274 28.424C274 29.3126 273.273 30.0331 272.376 30.0331C271.478 30.0331 270.751 29.3126 270.751 28.424Z" fill="#E9E0D6"/>
<path d="M270.751 1.60904C270.751 0.720459 271.478 -2.20454e-07 272.376 -1.42019e-07C273.273 -6.3584e-08 274 0.720459 274 1.60904C274 2.49759 273.273 3.2179 272.376 3.2179C271.478 3.2179 270.751 2.49759 270.751 1.60904Z" fill="#E9E0D6"/>
<path d="M243.676 323.391C243.676 322.503 244.403 321.782 245.3 321.782C246.198 321.782 246.925 322.503 246.925 323.391C246.925 324.28 246.198 325 245.3 325C244.403 325 243.676 324.28 243.676 323.391Z" fill="#E9E0D6"/>
<path d="M243.676 296.576C243.676 295.687 244.403 294.967 245.3 294.967C246.198 294.967 246.925 295.687 246.925 296.576C246.925 297.464 246.198 298.185 245.3 298.185C244.403 298.185 243.676 297.464 243.676 296.576Z" fill="#E9E0D6"/>
<path d="M243.676 269.761C243.676 268.872 244.403 268.152 245.3 268.152C246.198 268.152 246.925 268.872 246.925 269.761C246.925 270.649 246.198 271.37 245.3 271.37C244.403 271.37 243.676 270.649 243.676 269.761Z" fill="#E9E0D6"/>
<path d="M243.676 242.946C243.676 242.057 244.403 241.337 245.3 241.337C246.198 241.337 246.925 242.057 246.925 242.946C246.925 243.834 246.198 244.554 245.3 244.554C244.403 244.554 243.676 243.834 243.676 242.946Z" fill="#E9E0D6"/>
<path d="M243.676 216.13C243.676 215.242 244.403 214.521 245.3 214.521C246.198 214.521 246.925 215.242 246.925 216.13C246.925 217.019 246.198 217.739 245.3 217.739C244.403 217.739 243.676 217.019 243.676 216.13Z" fill="#E9E0D6"/>
<path d="M243.676 189.315C243.676 188.427 244.403 187.706 245.3 187.706C246.198 187.706 246.925 188.427 246.925 189.315C246.925 190.204 246.198 190.924 245.3 190.924C244.403 190.924 243.676 190.204 243.676 189.315Z" fill="#E9E0D6"/>
<path d="M243.676 162.5C243.676 161.611 244.403 160.891 245.3 160.891C246.198 160.891 246.925 161.611 246.925 162.5C246.925 163.389 246.198 164.109 245.3 164.109C244.403 164.109 243.676 163.389 243.676 162.5Z" fill="#E9E0D6"/>
<path d="M243.676 135.685C243.676 134.796 244.403 134.076 245.3 134.076C246.198 134.076 246.925 134.796 246.925 135.685C246.925 136.573 246.198 137.294 245.3 137.294C244.403 137.294 243.676 136.573 243.676 135.685Z" fill="#E9E0D6"/>
<path d="M243.676 108.87C243.676 107.981 244.403 107.261 245.3 107.261C246.198 107.261 246.925 107.981 246.925 108.87C246.925 109.758 246.198 110.479 245.3 110.479C244.403 110.479 243.676 109.758 243.676 108.87Z" fill="#E9E0D6"/>
<path d="M243.676 82.0544C243.676 81.1659 244.403 80.4456 245.3 80.4456C246.198 80.4456 246.925 81.1659 246.925 82.0544C246.925 82.943 246.198 83.6634 245.3 83.6634C244.403 83.6634 243.676 82.943 243.676 82.0544Z" fill="#E9E0D6"/>
<path d="M243.676 55.2393C243.676 54.3507 244.403 53.6304 245.3 53.6304C246.198 53.6304 246.925 54.3507 246.925 55.2393C246.925 56.1278 246.198 56.8483 245.3 56.8483C244.403 56.8483 243.676 56.1278 243.676 55.2393Z" fill="#E9E0D6"/>
<path d="M243.676 28.424C243.676 27.5355 244.403 26.8152 245.3 26.8152C246.198 26.8152 246.925 27.5355 246.925 28.424C246.925 29.3126 246.198 30.0331 245.3 30.0331C244.403 30.0331 243.676 29.3126 243.676 28.424Z" fill="#E9E0D6"/>
<path d="M243.676 1.60904C243.676 0.720456 244.403 -2.58743e-06 245.3 -2.509e-06C246.198 -2.43056e-06 246.925 0.720457 246.925 1.60904C246.925 2.49759 246.198 3.21789 245.3 3.21789C244.403 3.21789 243.676 2.49759 243.676 1.60904Z" fill="#E9E0D6"/>
<path d="M216.601 323.391C216.601 322.503 217.328 321.782 218.225 321.782C219.122 321.782 219.85 322.503 219.85 323.391C219.85 324.28 219.122 325 218.225 325C217.328 325 216.601 324.28 216.601 323.391Z" fill="#E9E0D6"/>
<path d="M216.601 296.576C216.601 295.687 217.328 294.967 218.225 294.967C219.122 294.967 219.85 295.687 219.85 296.576C219.85 297.464 219.122 298.185 218.225 298.185C217.328 298.185 216.601 297.464 216.601 296.576Z" fill="#E9E0D6"/>
<path d="M216.601 269.761C216.601 268.872 217.328 268.152 218.225 268.152C219.122 268.152 219.85 268.872 219.85 269.761C219.85 270.649 219.122 271.37 218.225 271.37C217.328 271.37 216.601 270.649 216.601 269.761Z" fill="#E9E0D6"/>
<path d="M216.601 242.946C216.601 242.057 217.328 241.337 218.225 241.337C219.122 241.337 219.85 242.057 219.85 242.946C219.85 243.834 219.122 244.554 218.225 244.554C217.328 244.554 216.601 243.834 216.601 242.946Z" fill="#E9E0D6"/>
<path d="M216.601 216.13C216.601 215.242 217.328 214.521 218.225 214.521C219.122 214.521 219.85 215.242 219.85 216.13C219.85 217.019 219.122 217.739 218.225 217.739C217.328 217.739 216.601 217.019 216.601 216.13Z" fill="#E9E0D6"/>
<path d="M216.601 189.315C216.601 188.427 217.328 187.706 218.225 187.706C219.123 187.706 219.85 188.427 219.85 189.315C219.85 190.204 219.123 190.924 218.225 190.924C217.328 190.924 216.601 190.204 216.601 189.315Z" fill="#E9E0D6"/>
<path d="M216.601 162.5C216.601 161.611 217.328 160.891 218.225 160.891C219.123 160.891 219.85 161.611 219.85 162.5C219.85 163.389 219.123 164.109 218.225 164.109C217.328 164.109 216.601 163.389 216.601 162.5Z" fill="#E9E0D6"/>
<path d="M216.601 135.685C216.601 134.796 217.328 134.076 218.225 134.076C219.123 134.076 219.85 134.796 219.85 135.685C219.85 136.573 219.123 137.294 218.225 137.294C217.328 137.294 216.601 136.573 216.601 135.685Z" fill="#E9E0D6"/>
<path d="M216.601 108.87C216.601 107.981 217.328 107.261 218.225 107.261C219.123 107.261 219.85 107.981 219.85 108.87C219.85 109.758 219.123 110.479 218.225 110.479C217.328 110.479 216.601 109.758 216.601 108.87Z" fill="#E9E0D6"/>
<path d="M216.601 82.0544C216.601 81.1659 217.328 80.4456 218.225 80.4456C219.123 80.4456 219.85 81.1659 219.85 82.0544C219.85 82.943 219.123 83.6634 218.225 83.6634C217.328 83.6634 216.601 82.943 216.601 82.0544Z" fill="#E9E0D6"/>
<path d="M216.601 55.2393C216.601 54.3507 217.328 53.6304 218.225 53.6304C219.123 53.6304 219.85 54.3507 219.85 55.2393C219.85 56.1278 219.123 56.8483 218.225 56.8483C217.328 56.8483 216.601 56.1278 216.601 55.2393Z" fill="#E9E0D6"/>
<path d="M216.601 28.424C216.601 27.5355 217.328 26.8152 218.225 26.8152C219.123 26.8152 219.85 27.5355 219.85 28.424C219.85 29.3126 219.123 30.0331 218.225 30.0331C217.328 30.0331 216.601 29.3126 216.601 28.424Z" fill="#E9E0D6"/>
<path d="M216.601 1.60903C216.601 0.720454 217.328 -4.95441e-06 218.225 -4.87598e-06C219.123 -4.79754e-06 219.85 0.720454 219.85 1.60903C219.85 2.49758 219.123 3.21789 218.225 3.21789C217.328 3.21789 216.601 2.49758 216.601 1.60903Z" fill="#E9E0D6"/>
<path d="M189.526 323.391C189.526 322.503 190.253 321.782 191.15 321.782C192.047 321.782 192.775 322.503 192.775 323.391C192.775 324.28 192.047 325 191.15 325C190.253 325 189.526 324.28 189.526 323.391Z" fill="#E9E0D6"/>
<path d="M189.526 296.576C189.526 295.687 190.253 294.967 191.15 294.967C192.047 294.967 192.775 295.687 192.775 296.576C192.775 297.464 192.047 298.185 191.15 298.185C190.253 298.185 189.526 297.464 189.526 296.576Z" fill="#E9E0D6"/>
<path d="M189.526 269.761C189.526 268.872 190.253 268.152 191.15 268.152C192.047 268.152 192.775 268.872 192.775 269.761C192.775 270.649 192.047 271.37 191.15 271.37C190.253 271.37 189.526 270.649 189.526 269.761Z" fill="#E9E0D6"/>
<path d="M189.526 242.946C189.526 242.057 190.253 241.337 191.15 241.337C192.047 241.337 192.775 242.057 192.775 242.946C192.775 243.834 192.047 244.554 191.15 244.554C190.253 244.554 189.526 243.834 189.526 242.946Z" fill="#E9E0D6"/>
<path d="M189.526 216.13C189.526 215.242 190.253 214.521 191.15 214.521C192.047 214.521 192.775 215.242 192.775 216.13C192.775 217.019 192.047 217.739 191.15 217.739C190.253 217.739 189.526 217.019 189.526 216.13Z" fill="#E9E0D6"/>
<path d="M189.526 189.315C189.526 188.427 190.253 187.706 191.15 187.706C192.047 187.706 192.775 188.427 192.775 189.315C192.775 190.204 192.047 190.924 191.15 190.924C190.253 190.924 189.526 190.204 189.526 189.315Z" fill="#E9E0D6"/>
<path d="M189.526 162.5C189.526 161.611 190.253 160.891 191.15 160.891C192.047 160.891 192.775 161.611 192.775 162.5C192.775 163.389 192.047 164.109 191.15 164.109C190.253 164.109 189.526 163.389 189.526 162.5Z" fill="#E9E0D6"/>
<path d="M189.526 135.685C189.526 134.796 190.253 134.076 191.15 134.076C192.047 134.076 192.775 134.796 192.775 135.685C192.775 136.573 192.047 137.294 191.15 137.294C190.253 137.294 189.526 136.573 189.526 135.685Z" fill="#E9E0D6"/>
<path d="M189.526 108.87C189.526 107.981 190.253 107.261 191.15 107.261C192.047 107.261 192.775 107.981 192.775 108.87C192.775 109.758 192.047 110.479 191.15 110.479C190.253 110.479 189.526 109.758 189.526 108.87Z" fill="#E9E0D6"/>
<path d="M189.526 82.0544C189.526 81.1659 190.253 80.4456 191.15 80.4456C192.047 80.4456 192.775 81.1659 192.775 82.0544C192.775 82.943 192.047 83.6634 191.15 83.6634C190.253 83.6634 189.526 82.943 189.526 82.0544Z" fill="#E9E0D6"/>
<path d="M189.526 55.2393C189.526 54.3507 190.253 53.6304 191.15 53.6304C192.047 53.6304 192.775 54.3507 192.775 55.2393C192.775 56.1278 192.047 56.8483 191.15 56.8483C190.253 56.8483 189.526 56.1278 189.526 55.2393Z" fill="#E9E0D6"/>
<path d="M189.526 28.424C189.526 27.5355 190.253 26.8152 191.15 26.8152C192.047 26.8152 192.775 27.5355 192.775 28.424C192.775 29.3126 192.047 30.0331 191.15 30.0331C190.253 30.0331 189.526 29.3126 189.526 28.424Z" fill="#E9E0D6"/>
<path d="M189.526 1.60903C189.526 0.720452 190.253 -7.32139e-06 191.15 -7.24296e-06C192.047 -7.16453e-06 192.775 0.720452 192.775 1.60903C192.775 2.49758 192.047 3.21789 191.15 3.21789C190.253 3.21789 189.526 2.49758 189.526 1.60903Z" fill="#E9E0D6"/>
<path d="M162.451 323.391C162.451 322.503 163.178 321.782 164.075 321.782C164.972 321.782 165.7 322.503 165.7 323.391C165.7 324.28 164.972 325 164.075 325C163.178 325 162.451 324.28 162.451 323.391Z" fill="#E9E0D6"/>
<path d="M162.451 296.576C162.451 295.687 163.178 294.967 164.075 294.967C164.972 294.967 165.7 295.687 165.7 296.576C165.7 297.464 164.972 298.185 164.075 298.185C163.178 298.185 162.451 297.464 162.451 296.576Z" fill="#E9E0D6"/>
<path d="M162.451 269.761C162.451 268.872 163.178 268.152 164.075 268.152C164.972 268.152 165.7 268.872 165.7 269.761C165.7 270.649 164.972 271.37 164.075 271.37C163.178 271.37 162.451 270.649 162.451 269.761Z" fill="#E9E0D6"/>
<path d="M162.451 242.946C162.451 242.057 163.178 241.337 164.075 241.337C164.972 241.337 165.7 242.057 165.7 242.946C165.7 243.834 164.972 244.554 164.075 244.554C163.178 244.554 162.451 243.834 162.451 242.946Z" fill="#E9E0D6"/>
<path d="M162.451 216.13C162.451 215.242 163.178 214.521 164.075 214.521C164.972 214.521 165.7 215.242 165.7 216.13C165.7 217.019 164.972 217.739 164.075 217.739C163.178 217.739 162.451 217.019 162.451 216.13Z" fill="#E9E0D6"/>
<path d="M162.451 189.315C162.451 188.427 163.178 187.706 164.075 187.706C164.972 187.706 165.7 188.427 165.7 189.315C165.7 190.204 164.972 190.924 164.075 190.924C163.178 190.924 162.451 190.204 162.451 189.315Z" fill="#E9E0D6"/>
<path d="M162.451 162.5C162.451 161.611 163.178 160.891 164.075 160.891C164.972 160.891 165.7 161.611 165.7 162.5C165.7 163.389 164.972 164.109 164.075 164.109C163.178 164.109 162.451 163.389 162.451 162.5Z" fill="#E9E0D6"/>
<path d="M162.451 135.685C162.451 134.796 163.178 134.076 164.075 134.076C164.972 134.076 165.7 134.796 165.7 135.685C165.7 136.573 164.972 137.294 164.075 137.294C163.178 137.294 162.451 136.573 162.451 135.685Z" fill="#E9E0D6"/>
<path d="M162.451 108.87C162.451 107.981 163.178 107.261 164.075 107.261C164.972 107.261 165.7 107.981 165.7 108.87C165.7 109.758 164.972 110.479 164.075 110.479C163.178 110.479 162.451 109.758 162.451 108.87Z" fill="#E9E0D6"/>
<path d="M162.451 82.0544C162.451 81.1659 163.178 80.4456 164.075 80.4456C164.972 80.4456 165.7 81.1659 165.7 82.0544C165.7 82.943 164.972 83.6634 164.075 83.6634C163.178 83.6634 162.451 82.943 162.451 82.0544Z" fill="#E9E0D6"/>
<path d="M162.451 55.2392C162.451 54.3507 163.178 53.6304 164.075 53.6304C164.972 53.6304 165.7 54.3507 165.7 55.2392C165.7 56.1278 164.972 56.8483 164.075 56.8483C163.178 56.8483 162.451 56.1278 162.451 55.2392Z" fill="#E9E0D6"/>
<path d="M162.451 28.424C162.451 27.5355 163.178 26.8152 164.075 26.8152C164.972 26.8152 165.7 27.5355 165.7 28.424C165.7 29.3126 164.972 30.0331 164.075 30.0331C163.178 30.0331 162.451 29.3126 162.451 28.424Z" fill="#E9E0D6"/>
<path d="M162.451 1.60903C162.451 0.720449 163.178 -9.68837e-06 164.075 -9.60994e-06C164.972 -9.5315e-06 165.7 0.72045 165.7 1.60903C165.7 2.49758 164.972 3.21789 164.075 3.21789C163.178 3.21789 162.451 2.49758 162.451 1.60903Z" fill="#E9E0D6"/>
<path d="M135.376 323.391C135.376 322.503 136.103 321.782 137 321.782C137.897 321.782 138.625 322.503 138.625 323.391C138.625 324.28 137.897 325 137 325C136.103 325 135.376 324.28 135.376 323.391Z" fill="#E9E0D6"/>
<path d="M135.376 296.576C135.376 295.687 136.103 294.967 137 294.967C137.897 294.967 138.625 295.687 138.625 296.576C138.625 297.464 137.897 298.185 137 298.185C136.103 298.185 135.376 297.464 135.376 296.576Z" fill="#E9E0D6"/>
<path d="M135.376 269.761C135.376 268.872 136.103 268.152 137 268.152C137.897 268.152 138.625 268.872 138.625 269.761C138.625 270.649 137.897 271.37 137 271.37C136.103 271.37 135.376 270.649 135.376 269.761Z" fill="#E9E0D6"/>
<path d="M135.376 242.946C135.376 242.057 136.103 241.337 137 241.337C137.897 241.337 138.625 242.057 138.625 242.946C138.625 243.834 137.897 244.554 137 244.554C136.103 244.554 135.376 243.834 135.376 242.946Z" fill="#E9E0D6"/>
<path d="M135.376 216.13C135.376 215.242 136.103 214.521 137 214.521C137.897 214.521 138.625 215.242 138.625 216.13C138.625 217.019 137.897 217.739 137 217.739C136.103 217.739 135.376 217.019 135.376 216.13Z" fill="#E9E0D6"/>
<path d="M135.376 189.315C135.376 188.427 136.103 187.706 137 187.706C137.897 187.706 138.625 188.427 138.625 189.315C138.625 190.204 137.897 190.924 137 190.924C136.103 190.924 135.376 190.204 135.376 189.315Z" fill="#E9E0D6"/>
<path d="M135.376 162.5C135.376 161.611 136.103 160.891 137 160.891C137.897 160.891 138.625 161.611 138.625 162.5C138.625 163.389 137.897 164.109 137 164.109C136.103 164.109 135.376 163.389 135.376 162.5Z" fill="#E9E0D6"/>
<path d="M135.376 135.685C135.376 134.796 136.103 134.076 137 134.076C137.897 134.076 138.625 134.796 138.625 135.685C138.625 136.573 137.897 137.294 137 137.294C136.103 137.294 135.376 136.573 135.376 135.685Z" fill="#E9E0D6"/>
<path d="M135.376 108.87C135.376 107.981 136.103 107.261 137 107.261C137.897 107.261 138.625 107.981 138.625 108.87C138.625 109.758 137.897 110.479 137 110.479C136.103 110.479 135.376 109.758 135.376 108.87Z" fill="#E9E0D6"/>
<path d="M135.376 82.0544C135.376 81.1659 136.103 80.4456 137 80.4456C137.897 80.4456 138.625 81.1659 138.625 82.0544C138.625 82.943 137.897 83.6634 137 83.6634C136.103 83.6634 135.376 82.943 135.376 82.0544Z" fill="#E9E0D6"/>
<path d="M135.376 55.2392C135.376 54.3507 136.103 53.6304 137 53.6304C137.897 53.6304 138.625 54.3507 138.625 55.2392C138.625 56.1278 137.897 56.8483 137 56.8483C136.103 56.8483 135.376 56.1278 135.376 55.2392Z" fill="#E9E0D6"/>
<path d="M135.376 28.424C135.376 27.5354 136.103 26.8152 137 26.8152C137.897 26.8152 138.625 27.5354 138.625 28.424C138.625 29.3126 137.897 30.0331 137 30.0331C136.103 30.0331 135.376 29.3126 135.376 28.424Z" fill="#E9E0D6"/>
<path d="M135.376 1.60903C135.376 0.720447 136.103 -1.20554e-05 137 -1.19769e-05C137.897 -1.18985e-05 138.625 0.720447 138.625 1.60903C138.625 2.49758 137.897 3.21788 137 3.21788C136.103 3.21788 135.376 2.49758 135.376 1.60903Z" fill="#E9E0D6"/>
<path d="M108.3 323.391C108.3 322.503 109.028 321.782 109.925 321.782C110.822 321.782 111.549 322.503 111.549 323.391C111.549 324.28 110.822 325 109.925 325C109.028 325 108.3 324.28 108.3 323.391Z" fill="#E9E0D6"/>
<path d="M108.3 296.576C108.3 295.687 109.028 294.967 109.925 294.967C110.822 294.967 111.549 295.687 111.549 296.576C111.549 297.464 110.822 298.185 109.925 298.185C109.028 298.185 108.3 297.464 108.3 296.576Z" fill="#E9E0D6"/>
<path d="M108.3 269.761C108.3 268.872 109.028 268.152 109.925 268.152C110.822 268.152 111.549 268.872 111.549 269.761C111.549 270.649 110.822 271.37 109.925 271.37C109.028 271.37 108.3 270.649 108.3 269.761Z" fill="#E9E0D6"/>
<path d="M108.3 242.946C108.3 242.057 109.028 241.337 109.925 241.337C110.822 241.337 111.549 242.057 111.549 242.946C111.549 243.834 110.822 244.554 109.925 244.554C109.028 244.554 108.3 243.834 108.3 242.946Z" fill="#E9E0D6"/>
<path d="M108.3 216.13C108.3 215.242 109.028 214.521 109.925 214.521C110.822 214.521 111.549 215.242 111.549 216.13C111.549 217.019 110.822 217.739 109.925 217.739C109.028 217.739 108.3 217.019 108.3 216.13Z" fill="#E9E0D6"/>
<path d="M108.3 189.315C108.3 188.427 109.028 187.706 109.925 187.706C110.822 187.706 111.549 188.427 111.549 189.315C111.549 190.204 110.822 190.924 109.925 190.924C109.028 190.924 108.3 190.204 108.3 189.315Z" fill="#E9E0D6"/>
<path d="M108.3 162.5C108.3 161.611 109.028 160.891 109.925 160.891C110.822 160.891 111.549 161.611 111.549 162.5C111.549 163.389 110.822 164.109 109.925 164.109C109.028 164.109 108.3 163.389 108.3 162.5Z" fill="#E9E0D6"/>
<path d="M108.3 135.685C108.3 134.796 109.028 134.076 109.925 134.076C110.822 134.076 111.549 134.796 111.549 135.685C111.549 136.573 110.822 137.294 109.925 137.294C109.028 137.294 108.3 136.573 108.3 135.685Z" fill="#E9E0D6"/>
<path d="M108.3 108.87C108.3 107.981 109.028 107.261 109.925 107.261C110.822 107.261 111.549 107.981 111.549 108.87C111.549 109.758 110.822 110.479 109.925 110.479C109.028 110.479 108.3 109.758 108.3 108.87Z" fill="#E9E0D6"/>
<path d="M108.3 82.0544C108.3 81.1658 109.028 80.4456 109.925 80.4456C110.822 80.4456 111.549 81.1658 111.549 82.0544C111.549 82.943 110.822 83.6634 109.925 83.6634C109.028 83.6634 108.3 82.943 108.3 82.0544Z" fill="#E9E0D6"/>
<path d="M108.3 55.2392C108.3 54.3507 109.028 53.6304 109.925 53.6304C110.822 53.6304 111.549 54.3507 111.549 55.2392C111.549 56.1278 110.822 56.8483 109.925 56.8483C109.028 56.8483 108.3 56.1278 108.3 55.2392Z" fill="#E9E0D6"/>
<path d="M108.3 28.424C108.3 27.5354 109.028 26.8152 109.925 26.8152C110.822 26.8152 111.549 27.5354 111.549 28.424C111.549 29.3126 110.822 30.0331 109.925 30.0331C109.028 30.0331 108.3 29.3126 108.3 28.424Z" fill="#E9E0D6"/>
<path d="M108.3 1.60902C108.3 0.720444 109.028 -1.44223e-05 109.925 -1.43439e-05C110.822 -1.42655e-05 111.549 0.720445 111.549 1.60903C111.549 2.49757 110.822 3.21788 109.925 3.21788C109.028 3.21788 108.3 2.49757 108.3 1.60902Z" fill="#E9E0D6"/>
<path d="M81.2253 323.391C81.2253 322.503 81.9526 321.782 82.8498 321.782C83.747 321.782 84.4743 322.503 84.4743 323.391C84.4743 324.28 83.747 325 82.8498 325C81.9526 325 81.2253 324.28 81.2253 323.391Z" fill="#E9E0D6"/>
<path d="M81.2253 296.576C81.2253 295.687 81.9526 294.967 82.8498 294.967C83.747 294.967 84.4743 295.687 84.4743 296.576C84.4743 297.464 83.747 298.185 82.8498 298.185C81.9526 298.185 81.2253 297.464 81.2253 296.576Z" fill="#E9E0D6"/>
<path d="M81.2253 269.761C81.2253 268.872 81.9526 268.152 82.8498 268.152C83.747 268.152 84.4743 268.872 84.4743 269.761C84.4743 270.649 83.747 271.37 82.8498 271.37C81.9526 271.37 81.2253 270.649 81.2253 269.761Z" fill="#E9E0D6"/>
<path d="M81.2253 242.946C81.2253 242.057 81.9526 241.337 82.8498 241.337C83.747 241.337 84.4743 242.057 84.4743 242.946C84.4743 243.834 83.747 244.554 82.8498 244.554C81.9526 244.554 81.2253 243.834 81.2253 242.946Z" fill="#E9E0D6"/>
<path d="M81.2253 216.13C81.2253 215.242 81.9526 214.521 82.8498 214.521C83.747 214.521 84.4743 215.242 84.4743 216.13C84.4743 217.019 83.747 217.739 82.8498 217.739C81.9526 217.739 81.2253 217.019 81.2253 216.13Z" fill="#E9E0D6"/>
<path d="M81.2253 189.315C81.2253 188.427 81.9526 187.706 82.8498 187.706C83.747 187.706 84.4743 188.427 84.4743 189.315C84.4743 190.204 83.747 190.924 82.8498 190.924C81.9526 190.924 81.2253 190.204 81.2253 189.315Z" fill="#E9E0D6"/>
<path d="M81.2253 162.5C81.2253 161.611 81.9526 160.891 82.8498 160.891C83.747 160.891 84.4743 161.611 84.4743 162.5C84.4743 163.389 83.747 164.109 82.8498 164.109C81.9526 164.109 81.2253 163.389 81.2253 162.5Z" fill="#E9E0D6"/>
<path d="M81.2253 135.685C81.2253 134.796 81.9526 134.076 82.8498 134.076C83.747 134.076 84.4743 134.796 84.4743 135.685C84.4743 136.573 83.747 137.294 82.8498 137.294C81.9526 137.294 81.2253 136.573 81.2253 135.685Z" fill="#E9E0D6"/>
<path d="M81.2253 108.87C81.2253 107.981 81.9526 107.261 82.8498 107.261C83.747 107.261 84.4743 107.981 84.4743 108.87C84.4743 109.758 83.747 110.479 82.8498 110.479C81.9526 110.479 81.2253 109.758 81.2253 108.87Z" fill="#E9E0D6"/>
<path d="M81.2253 82.0544C81.2253 81.1658 81.9526 80.4456 82.8498 80.4456C83.747 80.4456 84.4743 81.1658 84.4743 82.0544C84.4743 82.943 83.747 83.6634 82.8498 83.6634C81.9526 83.6634 81.2253 82.943 81.2253 82.0544Z" fill="#E9E0D6"/>
<path d="M81.2253 55.2392C81.2253 54.3507 81.9526 53.6304 82.8498 53.6304C83.747 53.6304 84.4743 54.3507 84.4743 55.2392C84.4743 56.1278 83.747 56.8482 82.8498 56.8482C81.9526 56.8482 81.2253 56.1278 81.2253 55.2392Z" fill="#E9E0D6"/>
<path d="M81.2253 28.424C81.2253 27.5354 81.9526 26.8152 82.8498 26.8152C83.747 26.8152 84.4743 27.5354 84.4743 28.424C84.4743 29.3126 83.747 30.0331 82.8498 30.0331C81.9526 30.0331 81.2253 29.3126 81.2253 28.424Z" fill="#E9E0D6"/>
<path d="M81.2253 1.60902C81.2253 0.720442 81.9526 -1.67893e-05 82.8498 -1.67109e-05C83.747 -1.66324e-05 84.4743 0.720442 84.4743 1.60902C84.4743 2.49757 83.747 3.21788 82.8498 3.21788C81.9526 3.21788 81.2253 2.49757 81.2253 1.60902Z" fill="#E9E0D6"/>
<path d="M54.1502 323.391C54.1502 322.503 54.8775 321.782 55.7747 321.782C56.6719 321.782 57.3992 322.503 57.3992 323.391C57.3992 324.28 56.6719 325 55.7747 325C54.8775 325 54.1502 324.28 54.1502 323.391Z" fill="#E9E0D6"/>
<path d="M54.1502 296.576C54.1502 295.687 54.8775 294.967 55.7747 294.967C56.6719 294.967 57.3992 295.687 57.3992 296.576C57.3992 297.464 56.6719 298.185 55.7747 298.185C54.8775 298.185 54.1502 297.464 54.1502 296.576Z" fill="#E9E0D6"/>
<path d="M54.1502 269.761C54.1502 268.872 54.8775 268.152 55.7747 268.152C56.6719 268.152 57.3992 268.872 57.3992 269.761C57.3992 270.649 56.6719 271.37 55.7747 271.37C54.8775 271.37 54.1502 270.649 54.1502 269.761Z" fill="#E9E0D6"/>
<path d="M54.1502 242.946C54.1502 242.057 54.8775 241.337 55.7747 241.337C56.6719 241.337 57.3992 242.057 57.3992 242.946C57.3992 243.834 56.6719 244.554 55.7747 244.554C54.8775 244.554 54.1502 243.834 54.1502 242.946Z" fill="#E9E0D6"/>
<path d="M54.1502 216.13C54.1502 215.242 54.8775 214.521 55.7747 214.521C56.6719 214.521 57.3992 215.242 57.3992 216.13C57.3992 217.019 56.6719 217.739 55.7747 217.739C54.8775 217.739 54.1502 217.019 54.1502 216.13Z" fill="#E9E0D6"/>
<path d="M54.1502 189.315C54.1502 188.427 54.8775 187.706 55.7747 187.706C56.6719 187.706 57.3992 188.427 57.3992 189.315C57.3992 190.204 56.6719 190.924 55.7747 190.924C54.8775 190.924 54.1502 190.204 54.1502 189.315Z" fill="#E9E0D6"/>
<path d="M54.1502 162.5C54.1502 161.611 54.8775 160.891 55.7747 160.891C56.6719 160.891 57.3992 161.611 57.3992 162.5C57.3992 163.389 56.6719 164.109 55.7747 164.109C54.8775 164.109 54.1502 163.389 54.1502 162.5Z" fill="#E9E0D6"/>
<path d="M54.1502 135.685C54.1502 134.796 54.8775 134.076 55.7747 134.076C56.6719 134.076 57.3992 134.796 57.3992 135.685C57.3992 136.573 56.6719 137.294 55.7747 137.294C54.8775 137.294 54.1502 136.573 54.1502 135.685Z" fill="#E9E0D6"/>
<path d="M54.1502 108.87C54.1502 107.981 54.8775 107.261 55.7747 107.261C56.6719 107.261 57.3992 107.981 57.3992 108.87C57.3992 109.758 56.6719 110.479 55.7747 110.479C54.8775 110.479 54.1502 109.758 54.1502 108.87Z" fill="#E9E0D6"/>
<path d="M54.1502 82.0544C54.1502 81.1658 54.8775 80.4456 55.7747 80.4456C56.6719 80.4456 57.3993 81.1658 57.3993 82.0544C57.3993 82.943 56.6719 83.6634 55.7747 83.6634C54.8775 83.6634 54.1502 82.943 54.1502 82.0544Z" fill="#E9E0D6"/>
<path d="M54.1502 55.2392C54.1502 54.3507 54.8775 53.6304 55.7747 53.6304C56.6719 53.6304 57.3993 54.3507 57.3993 55.2392C57.3993 56.1278 56.6719 56.8482 55.7747 56.8482C54.8775 56.8482 54.1502 56.1278 54.1502 55.2392Z" fill="#E9E0D6"/>
<path d="M54.1502 28.424C54.1502 27.5354 54.8775 26.8152 55.7747 26.8152C56.6719 26.8152 57.3993 27.5354 57.3993 28.424C57.3993 29.3126 56.6719 30.0331 55.7747 30.0331C54.8775 30.0331 54.1502 29.3126 54.1502 28.424Z" fill="#E9E0D6"/>
<path d="M54.1502 1.60902C54.1502 0.72044 54.8775 -1.91563e-05 55.7747 -1.90779e-05C56.6719 -1.89994e-05 57.3993 0.72044 57.3993 1.60902C57.3993 2.49757 56.6719 3.21788 55.7747 3.21788C54.8775 3.21788 54.1502 2.49757 54.1502 1.60902Z" fill="#E9E0D6"/>
<path d="M27.0751 323.391C27.0751 322.503 27.8024 321.782 28.6996 321.782C29.5968 321.782 30.3241 322.503 30.3241 323.391C30.3241 324.28 29.5968 325 28.6996 325C27.8024 325 27.0751 324.28 27.0751 323.391Z" fill="#E9E0D6"/>
<path d="M27.0751 296.576C27.0751 295.687 27.8024 294.967 28.6996 294.967C29.5968 294.967 30.3241 295.687 30.3241 296.576C30.3241 297.464 29.5968 298.185 28.6996 298.185C27.8024 298.185 27.0751 297.464 27.0751 296.576Z" fill="#E9E0D6"/>
<path d="M27.0751 269.761C27.0751 268.872 27.8024 268.152 28.6996 268.152C29.5968 268.152 30.3241 268.872 30.3241 269.761C30.3241 270.649 29.5968 271.37 28.6996 271.37C27.8024 271.37 27.0751 270.649 27.0751 269.761Z" fill="#E9E0D6"/>
<path d="M27.0751 242.946C27.0751 242.057 27.8024 241.337 28.6996 241.337C29.5968 241.337 30.3241 242.057 30.3241 242.946C30.3241 243.834 29.5968 244.554 28.6996 244.554C27.8024 244.554 27.0751 243.834 27.0751 242.946Z" fill="#E9E0D6"/>
<path d="M27.0751 216.13C27.0751 215.242 27.8024 214.521 28.6996 214.521C29.5968 214.521 30.3241 215.242 30.3241 216.13C30.3241 217.019 29.5968 217.739 28.6996 217.739C27.8024 217.739 27.0751 217.019 27.0751 216.13Z" fill="#E9E0D6"/>
<path d="M27.0751 189.315C27.0751 188.427 27.8024 187.706 28.6996 187.706C29.5968 187.706 30.3241 188.427 30.3241 189.315C30.3241 190.204 29.5968 190.924 28.6996 190.924C27.8024 190.924 27.0751 190.204 27.0751 189.315Z" fill="#E9E0D6"/>
<path d="M27.0751 162.5C27.0751 161.611 27.8024 160.891 28.6996 160.891C29.5968 160.891 30.3241 161.611 30.3241 162.5C30.3241 163.389 29.5968 164.109 28.6996 164.109C27.8024 164.109 27.0751 163.389 27.0751 162.5Z" fill="#E9E0D6"/>
<path d="M27.0751 135.685C27.0751 134.796 27.8024 134.076 28.6996 134.076C29.5968 134.076 30.3241 134.796 30.3241 135.685C30.3241 136.573 29.5968 137.294 28.6996 137.294C27.8024 137.294 27.0751 136.573 27.0751 135.685Z" fill="#E9E0D6"/>
<path d="M27.0751 108.87C27.0751 107.981 27.8024 107.261 28.6996 107.261C29.5968 107.261 30.3241 107.981 30.3241 108.87C30.3241 109.758 29.5968 110.479 28.6996 110.479C27.8024 110.479 27.0751 109.758 27.0751 108.87Z" fill="#E9E0D6"/>
<path d="M27.0751 82.0544C27.0751 81.1658 27.8024 80.4456 28.6996 80.4456C29.5968 80.4456 30.3241 81.1658 30.3241 82.0544C30.3241 82.943 29.5968 83.6634 28.6996 83.6634C27.8024 83.6634 27.0751 82.943 27.0751 82.0544Z" fill="#E9E0D6"/>
<path d="M27.0751 55.2392C27.0751 54.3507 27.8024 53.6304 28.6996 53.6304C29.5968 53.6304 30.3242 54.3507 30.3242 55.2392C30.3242 56.1278 29.5968 56.8482 28.6996 56.8482C27.8024 56.8482 27.0751 56.1278 27.0751 55.2392Z" fill="#E9E0D6"/>
<path d="M27.0751 28.424C27.0751 27.5354 27.8024 26.8152 28.6996 26.8152C29.5968 26.8152 30.3242 27.5354 30.3242 28.424C30.3242 29.3126 29.5968 30.0331 28.6996 30.0331C27.8024 30.0331 27.0751 29.3126 27.0751 28.424Z" fill="#E9E0D6"/>
<path d="M27.0751 1.60902C27.0751 0.720437 27.8024 -2.15233e-05 28.6996 -2.14448e-05C29.5968 -2.13664e-05 30.3242 0.720438 30.3242 1.60902C30.3242 2.49757 29.5968 3.21787 28.6996 3.21787C27.8024 3.21787 27.0751 2.49757 27.0751 1.60902Z" fill="#E9E0D6"/>
<path d="M1.40651e-07 323.391C2.18333e-07 322.503 0.727356 321.782 1.62454 321.782C2.52173 321.782 3.24902 322.503 3.24902 323.391C3.24902 324.28 2.52173 325 1.62454 325C0.727356 325 6.29688e-08 324.28 1.40651e-07 323.391Z" fill="#E9E0D6"/>
<path d="M2.48492e-06 296.576C2.56261e-06 295.687 0.727359 294.967 1.62454 294.967C2.52173 294.967 3.24903 295.687 3.24903 296.576C3.24903 297.464 2.52173 298.185 1.62454 298.185C0.727358 298.185 2.40724e-06 297.464 2.48492e-06 296.576Z" fill="#E9E0D6"/>
<path d="M4.82918e-06 269.761C4.90686e-06 268.872 0.727361 268.152 1.62455 268.152C2.52173 268.152 3.24903 268.872 3.24903 269.761C3.24903 270.649 2.52173 271.37 1.62455 271.37C0.727361 271.37 4.7515e-06 270.649 4.82918e-06 269.761Z" fill="#E9E0D6"/>
<path d="M7.17343e-06 242.946C7.25111e-06 242.057 0.727363 241.337 1.62455 241.337C2.52174 241.337 3.24903 242.057 3.24903 242.946C3.24903 243.834 2.52174 244.554 1.62455 244.554C0.727363 244.554 7.09574e-06 243.834 7.17343e-06 242.946Z" fill="#E9E0D6"/>
<path d="M9.51768e-06 216.13C9.59537e-06 215.242 0.727366 214.521 1.62455 214.521C2.52174 214.521 3.24903 215.242 3.24903 216.13C3.24903 217.019 2.52174 217.739 1.62455 217.739C0.727365 217.739 9.44e-06 217.019 9.51768e-06 216.13Z" fill="#E9E0D6"/>
<path d="M1.18619e-05 189.315C1.19396e-05 188.427 0.727368 187.706 1.62455 187.706C2.52174 187.706 3.24904 188.427 3.24904 189.315C3.24904 190.204 2.52174 190.924 1.62455 190.924C0.727368 190.924 1.17843e-05 190.204 1.18619e-05 189.315Z" fill="#E9E0D6"/>
<path d="M1.42062e-05 162.5C1.42839e-05 161.611 0.72737 160.891 1.62456 160.891C2.52174 160.891 3.24904 161.611 3.24904 162.5C3.24904 163.389 2.52174 164.109 1.62456 164.109C0.72737 164.109 1.41285e-05 163.389 1.42062e-05 162.5Z" fill="#E9E0D6"/>
<path d="M1.65505e-05 135.685C1.66281e-05 134.796 0.727373 134.076 1.62456 134.076C2.52175 134.076 3.24904 134.796 3.24904 135.685C3.24904 136.573 2.52174 137.294 1.62456 137.294C0.727372 137.294 1.64728e-05 136.573 1.65505e-05 135.685Z" fill="#E9E0D6"/>
<path d="M1.88947e-05 108.87C1.89724e-05 107.981 0.727375 107.261 1.62456 107.261C2.52175 107.261 3.24904 107.981 3.24904 108.87C3.24904 109.758 2.52175 110.479 1.62456 110.479C0.727375 110.479 1.8817e-05 109.758 1.88947e-05 108.87Z" fill="#E9E0D6"/>
<path d="M2.1239e-05 82.0544C2.13167e-05 81.1658 0.727377 80.4455 1.62456 80.4455C2.52175 80.4455 3.24904 81.1658 3.24904 82.0544C3.24904 82.943 2.52175 83.6634 1.62456 83.6634C0.727377 83.6634 2.11613e-05 82.943 2.1239e-05 82.0544Z" fill="#E9E0D6"/>
<path d="M2.35832e-05 55.2392C2.36609e-05 54.3507 0.72738 53.6304 1.62457 53.6304C2.52175 53.6304 3.24905 54.3507 3.24905 55.2392C3.24905 56.1278 2.52175 56.8482 1.62457 56.8482C0.727379 56.8482 2.35056e-05 56.1278 2.35832e-05 55.2392Z" fill="#E9E0D6"/>
<path d="M2.59275e-05 28.424C2.60052e-05 27.5354 0.727382 26.8152 1.62457 26.8152C2.52175 26.8152 3.24905 27.5354 3.24905 28.424C3.24905 29.3126 2.52175 30.0331 1.62457 30.0331C0.727382 30.0331 2.58498e-05 29.3126 2.59275e-05 28.424Z" fill="#E9E0D6"/>
<path d="M2.82717e-05 1.60902C2.83494e-05 0.720435 0.727384 -2.38903e-05 1.62457 -2.38118e-05C2.52176 -2.37334e-05 3.24905 0.720435 3.24905 1.60902C3.24905 2.49757 2.52176 3.21787 1.62457 3.21787C0.727384 3.21787 2.81941e-05 2.49757 2.82717e-05 1.60902Z" fill="#E9E0D6"/>
</svg>
