<svg width="230" height="24" viewBox="0 0 230 24" fill="none" xmlns="http://www.w3.org/2000/svg">
<path d="M20.128 23.9997H9.77893C9.04236 23.9997 8.69393 23.0804 9.26181 22.5947L9.75405 22.1742C9.89733 22.0496 10.0812 21.9811 10.2712 21.9811H12.4768V20.6758H17.4301V21.9811H19.6358C19.8258 21.9811 20.0096 22.0496 20.1529 22.1742L20.6451 22.5947C21.2136 23.0809 20.8635 23.9997 20.128 23.9997Z" fill="black"/>
<path d="M28.6607 0H1.24616C0.557716 0 0 0.557599 0 1.24616V18.8071C0 19.4955 0.557599 20.0533 1.24616 20.0533H28.6608C29.3492 20.0533 29.9069 19.4957 29.9069 18.8071C29.9069 13.4588 29.9069 3.42375 29.9069 1.24616C29.9068 0.557658 29.3492 0 28.6607 0ZM24.663 18.8222H24.3121C24.14 18.8222 24.0005 18.6827 24.0005 18.5107C24.0005 18.3386 24.14 18.1991 24.3121 18.1991H24.663C24.835 18.1991 24.9745 18.3386 24.9745 18.5107C24.9745 18.6827 24.8351 18.8222 24.663 18.8222ZM26.1946 18.8222H25.8435C25.6715 18.8222 25.532 18.6827 25.532 18.5107C25.532 18.3386 25.6715 18.1991 25.8435 18.1991H26.1946C26.3666 18.1991 26.5061 18.3386 26.5061 18.5107C26.5061 18.6827 26.3667 18.8222 26.1946 18.8222ZM27.7261 18.8222H27.3752C27.2032 18.8222 27.0637 18.6827 27.0637 18.5107C27.0637 18.3386 27.2032 18.1991 27.3752 18.1991H27.7261C27.8981 18.1991 28.0376 18.3386 28.0376 18.5107C28.0376 18.6827 27.8982 18.8222 27.7261 18.8222ZM28.6607 16.9659H1.24616V1.24616H28.6608V16.9659H28.6607Z" fill="black"/>
<g clip-path="url(#clip0_89_903)">
<path d="M56.0673 8.16016L55.4437 8.78379L58.2187 11.5588H45.9069V12.4408H58.2187L55.4437 15.2158L56.0673 15.8395L59.9069 11.9998L56.0673 8.16016Z" fill="black"/>
</g>
<path d="M76.2972 23.3454C76.4177 23.7357 76.7735 23.9996 77.1752 23.9996H104.015C104.423 23.9996 104.773 23.7357 104.893 23.3454L105.284 22.0771H75.907L76.2972 23.3454Z" fill="black"/>
<path d="M102.036 17.3774C101.978 17.3027 101.886 17.2568 101.794 17.2568H79.4076C79.31 17.2568 79.2239 17.3027 79.1665 17.3774L75.9873 21.4633H105.209L102.036 17.3774ZM93.1462 19.0531H93.6282C93.7947 19.0531 93.9381 19.1908 93.9381 19.363C93.9381 19.5294 93.8004 19.6729 93.6282 19.6729H93.1462C92.9798 19.6729 92.8363 19.5351 92.8363 19.363C92.8363 19.1908 92.9798 19.0531 93.1462 19.0531ZM91.7517 18.089H92.2337C92.4001 18.089 92.5436 18.2267 92.5436 18.3988C92.5436 18.5653 92.4059 18.7087 92.2337 18.7087H91.7517C91.5852 18.7087 91.4418 18.571 91.4418 18.3988C91.4475 18.2267 91.5852 18.089 91.7517 18.089ZM90.3571 19.0531H90.8392C91.0056 19.0531 91.1491 19.1908 91.1491 19.363C91.1491 19.5294 91.0114 19.6729 90.8392 19.6729H90.3571C90.1907 19.6729 90.0472 19.5351 90.0472 19.363C90.053 19.1908 90.1907 19.0531 90.3571 19.0531ZM88.9626 18.089H89.4389C89.6111 18.089 89.7488 18.2267 89.7488 18.3988C89.7488 18.5653 89.6111 18.7087 89.4389 18.7087H88.9626C88.7905 18.7087 88.6527 18.571 88.6527 18.3988C88.6585 18.2267 88.7905 18.089 88.9626 18.089ZM87.5681 19.0531H88.0444C88.2166 19.0531 88.3543 19.1908 88.3543 19.363C88.3543 19.5294 88.2166 19.6729 88.0444 19.6729H87.5681C87.3959 19.6729 87.2582 19.5351 87.2582 19.363C87.2639 19.1908 87.3959 19.0531 87.5681 19.0531ZM86.1793 18.089H86.6556C86.8278 18.089 86.9655 18.2267 86.9655 18.3988C86.9655 18.5653 86.8278 18.7087 86.6556 18.7087H86.1793C86.0072 18.7087 85.8694 18.571 85.8694 18.3988C85.8694 18.2267 86.0014 18.089 86.1793 18.089ZM81.0776 20.6312H80.5955C80.4291 20.6312 80.2856 20.4935 80.2856 20.3213C80.2856 20.1549 80.4233 20.0114 80.5955 20.0114H81.0776C81.244 20.0114 81.3875 20.1492 81.3875 20.3213C81.3875 20.4935 81.2497 20.6312 81.0776 20.6312ZM81.0776 18.703H80.5955C80.4291 18.703 80.2856 18.5653 80.2856 18.3931C80.2856 18.2209 80.4233 18.0832 80.5955 18.0832H81.0776C81.244 18.0832 81.3875 18.2209 81.3875 18.3931C81.3875 18.5653 81.2497 18.703 81.0776 18.703ZM82.4721 19.6671H81.99C81.8236 19.6671 81.6801 19.5294 81.6801 19.3572C81.6801 19.1908 81.8179 19.0473 81.99 19.0473H82.4721C82.6385 19.0473 82.782 19.1851 82.782 19.3572C82.782 19.5294 82.6385 19.6671 82.4721 19.6671ZM83.8666 20.6312H83.3845C83.2181 20.6312 83.0746 20.4935 83.0746 20.3213C83.0746 20.1549 83.2124 20.0114 83.3845 20.0114H83.8666C84.033 20.0114 84.1765 20.1492 84.1765 20.3213C84.1708 20.4935 84.033 20.6312 83.8666 20.6312ZM83.8666 18.703H83.3845C83.2181 18.703 83.0746 18.5653 83.0746 18.3931C83.0746 18.2209 83.2124 18.0832 83.3845 18.0832H83.8666C84.033 18.0832 84.1765 18.2209 84.1765 18.3931C84.1708 18.5653 84.033 18.703 83.8666 18.703ZM85.2611 19.6671H84.7848C84.6126 19.6671 84.4749 19.5294 84.4749 19.3572C84.4749 19.1908 84.6126 19.0473 84.7848 19.0473H85.2611C85.4333 19.0473 85.571 19.1851 85.571 19.3572C85.5653 19.5294 85.4333 19.6671 85.2611 19.6671ZM95.0228 20.6312H86.1506C85.9842 20.6312 85.8407 20.4935 85.8407 20.3213C85.8407 20.1549 85.9785 20.0114 86.1506 20.0114H95.017C95.1834 20.0114 95.3269 20.1492 95.3269 20.3213C95.3269 20.4935 95.1892 20.6312 95.0228 20.6312ZM95.0228 18.703H94.5407C94.3743 18.703 94.2308 18.5653 94.2308 18.3931C94.2308 18.2209 94.3685 18.0832 94.5407 18.0832H95.0228C95.1892 18.0832 95.3326 18.2209 95.3326 18.3931C95.3269 18.5653 95.1892 18.703 95.0228 18.703ZM96.4173 19.6671H95.9352C95.7688 19.6671 95.6253 19.5294 95.6253 19.3572C95.6253 19.1908 95.7631 19.0473 95.9352 19.0473H96.4173C96.5837 19.0473 96.7272 19.1851 96.7272 19.3572C96.7214 19.5294 96.5837 19.6671 96.4173 19.6671ZM97.8061 20.6312H97.324C97.1576 20.6312 97.0141 20.4935 97.0141 20.3213C97.0141 20.1549 97.1518 20.0114 97.324 20.0114H97.8061C97.9725 20.0114 98.1159 20.1492 98.1159 20.3213C98.1159 20.4935 97.9782 20.6312 97.8061 20.6312ZM97.8061 18.703H97.324C97.1576 18.703 97.0141 18.5653 97.0141 18.3931C97.0141 18.2209 97.1518 18.0832 97.324 18.0832H97.8061C97.9725 18.0832 98.1159 18.2209 98.1159 18.3931C98.1159 18.5653 97.9782 18.703 97.8061 18.703ZM99.2006 19.6671H98.7185C98.5521 19.6671 98.4086 19.5294 98.4086 19.3572C98.4086 19.1908 98.5464 19.0473 98.7185 19.0473H99.2006C99.367 19.0473 99.5105 19.1851 99.5105 19.3572C99.5105 19.5294 99.3727 19.6671 99.2006 19.6671ZM100.595 20.6312H100.113C99.9466 20.6312 99.8031 20.4935 99.8031 20.3213C99.8031 20.1549 99.9409 20.0114 100.113 20.0114H100.595C100.762 20.0114 100.905 20.1492 100.905 20.3213C100.905 20.4935 100.767 20.6312 100.595 20.6312ZM100.595 18.703H100.113C99.9466 18.703 99.8031 18.5653 99.8031 18.3931C99.8031 18.2209 99.9409 18.0832 100.113 18.0832H100.595C100.762 18.0832 100.905 18.2209 100.905 18.3931C100.905 18.5653 100.767 18.703 100.595 18.703Z" fill="black"/>
<path d="M100.561 0H80.6357C79.7863 0 79.0977 0.688651 79.0977 1.53799V16.3325C79.0977 16.4989 79.2354 16.6424 79.4076 16.6424H101.789C101.961 16.6424 102.099 16.5047 102.099 16.3325V1.53799C102.099 0.688651 101.41 0 100.561 0ZM81.2555 2.46193C81.2555 2.28977 81.3932 2.15204 81.5654 2.15204H99.6425C99.8089 2.15204 99.9523 2.28977 99.9523 2.46193V14.1805C99.9523 14.3469 99.8146 14.4904 99.6425 14.4904H81.5654C81.3989 14.4904 81.2555 14.3526 81.2555 14.1805V2.46193Z" fill="black"/>
<g clip-path="url(#clip1_89_903)">
<path d="M131.444 8.16016L130.82 8.78379L133.595 11.5588H121.284V12.4408H133.595L130.82 15.2158L131.444 15.8395L135.284 11.9998L131.444 8.16016Z" fill="black"/>
</g>
<path fill-rule="evenodd" clip-rule="evenodd" d="M152.757 0H168.265C169.076 0 169.738 0.662819 169.738 1.47296V22.527C169.738 23.3372 169.076 24 168.265 24H152.757C151.946 24 151.284 23.3372 151.284 22.527V1.47296C151.284 0.662819 151.946 0 152.757 0ZM159.298 22.4012H161.724V22.9346H159.298V22.4012ZM159.915 1.06543C159.768 1.06543 159.649 1.18485 159.649 1.33212C159.649 1.47938 159.768 1.5988 159.915 1.5988C160.063 1.5988 160.182 1.47938 160.182 1.33212C160.182 1.18485 160.063 1.06543 159.915 1.06543ZM161.106 1.06543C160.959 1.06543 160.84 1.18485 160.84 1.33212C160.84 1.47938 160.959 1.5988 161.106 1.5988C161.254 1.5988 161.373 1.47938 161.373 1.33212C161.373 1.18485 161.254 1.06543 161.106 1.06543ZM152.843 2.66418H168.179V21.3358H152.843V2.66418Z" fill="black"/>
<g clip-path="url(#clip2_89_903)">
<path d="M195.899 8.16016L195.275 8.78379L198.05 11.5588H185.738V12.4408H198.05L195.275 15.2158L195.899 15.8395L199.738 11.9998L195.899 8.16016Z" fill="black"/>
</g>
<path d="M228.059 0H217.359C216.468 0 215.738 0.72891 215.738 1.62102V22.3782C215.738 23.2703 216.468 23.9999 217.359 23.9999H228.059C228.951 23.9999 229.68 23.2716 229.68 22.3788V1.62102C229.68 0.72891 228.951 0 228.059 0ZM220.998 1.16845H224.421C224.529 1.16845 224.617 1.25622 224.617 1.36525C224.617 1.47359 224.529 1.56136 224.421 1.56136H220.998C220.889 1.56136 220.802 1.47359 220.802 1.36525C220.802 1.25622 220.889 1.16845 220.998 1.16845ZM222.709 23.1894C222.262 23.1894 221.899 22.8266 221.899 22.3782C221.899 21.9297 222.262 21.5677 222.709 21.5677C223.157 21.5677 223.52 21.9297 223.52 22.3782C223.52 22.8266 223.157 23.1894 222.709 23.1894ZM228.552 20.9999H216.866V2.57073H228.552V20.9999Z" fill="black"/>
<defs>
<clipPath id="clip0_89_903">
<rect width="14" height="14" fill="white" transform="translate(45.9069 5)"/>
</clipPath>
<clipPath id="clip1_89_903">
<rect width="14" height="14" fill="white" transform="translate(121.284 5)"/>
</clipPath>
<clipPath id="clip2_89_903">
<rect width="14" height="14" fill="white" transform="translate(185.738 5)"/>
</clipPath>
</defs>
</svg>
