<svg width="20" height="20" viewBox="0 0 20 20" fill="none" xmlns="http://www.w3.org/2000/svg">
<path d="M10.0312 4.05673e-05C4.48437 -0.0155844 -0.0156302 4.48442 -5.20908e-06 10.0313C0.0156198 15.5157 4.58984 20 10.0742 20H20V10.0743C20 4.58988 15.5156 0.0156656 10.0312 4.05673e-05ZM10.8906 15.0938C10.6289 15.3243 10.3047 15.4414 9.91406 15.4414C9.52343 15.4414 9.19921 15.3243 8.9375 15.0938C8.67578 14.8633 8.54687 14.5664 8.54687 14.2071C8.54687 13.8477 8.67578 13.5508 8.9375 13.3204C9.19921 13.0899 9.52343 12.9727 9.91406 12.9727C10.3047 12.9727 10.6289 13.0899 10.8906 13.3204C11.1523 13.5508 11.2812 13.8477 11.2812 14.2071C11.2812 14.5664 11.1484 14.8594 10.8906 15.0938ZM13.2031 8.55863C13.043 8.89067 12.7852 9.23051 12.4297 9.57426L11.5898 10.3555C11.3516 10.586 11.1836 10.8204 11.0937 11.0625C11 11.3047 10.9492 11.6094 10.9414 11.9805H8.84765C8.84765 11.2696 8.92968 10.7071 9.08984 10.2969C9.2539 9.87895 9.52343 9.51176 9.87109 9.2266C10.2305 8.92582 10.5078 8.64848 10.6953 8.39848C10.8789 8.1602 10.9766 7.86723 10.9766 7.57035C10.9766 6.83598 10.6602 6.46488 10.0273 6.46488C9.7539 6.45707 9.49218 6.57426 9.32031 6.7852C9.14062 7.00004 9.04296 7.2891 9.03515 7.65629H6.5664C6.57812 6.67973 6.88281 5.92192 7.48828 5.37895C8.09374 4.83598 8.9414 4.56254 10.0312 4.56254C11.1172 4.56254 11.9609 4.81254 12.5586 5.31645C13.1562 5.82035 13.4531 6.53129 13.4531 7.45707C13.4492 7.83598 13.3672 8.21488 13.2031 8.55863Z" fill="#B59677"/>
</svg>
