<svg width="180" height="20" viewBox="0 0 180 20" fill="none" xmlns="http://www.w3.org/2000/svg">
<path fill-rule="evenodd" clip-rule="evenodd" d="M6.96923 17.3216C6.11088 16.9772 5.33741 16.4507 4.70225 15.7784C4.04305 15.0684 3.53867 14.2292 3.22104 13.3139C2.85479 12.2488 2.67672 11.128 2.69482 10.0018C2.67951 8.91352 2.85039 7.83061 3.20009 6.7999C3.50762 5.89745 4.00069 5.06941 4.64762 4.36909C5.28396 3.69403 6.061 3.16719 6.92366 2.82593C7.87648 2.45499 8.89203 2.27167 9.91441 2.28605C10.5723 2.2783 11.2293 2.33933 11.8745 2.46813C12.3645 2.56818 12.8444 2.71232 13.3084 2.89877C13.6668 3.0431 14.0117 3.21889 14.339 3.42407C14.6212 3.60615 14.8762 3.76093 15.1038 3.88839C15.2472 3.97955 15.412 4.03136 15.5817 4.03861C15.7057 4.03674 15.827 4.00152 15.9327 3.93664C16.0385 3.87176 16.1248 3.77962 16.1826 3.66989L16.9337 2.46813C16.5143 2.08544 16.0619 1.74058 15.5817 1.43755C15.084 1.12499 14.5557 0.864151 14.0049 0.659139C13.4049 0.436965 12.7851 0.272355 12.154 0.167521C11.4409 0.0496444 10.7191 -0.00761618 9.99631 -0.00364062C8.58177 -0.0240478 7.17599 0.221469 5.8521 0.720138C4.6677 1.16444 3.59332 1.85938 2.70238 2.75739C1.81144 3.6554 1.12499 4.7353 0.690063 5.92317C0.207431 7.22967 -0.0311195 8.6137 -0.0136976 10.0064C-0.0296723 11.3913 0.213674 12.7669 0.703732 14.0623C1.15021 15.2411 1.83166 16.3168 2.70666 17.2241C3.57417 18.1106 4.61564 18.808 5.76564 19.2726C7.00696 19.7699 8.33418 20.0173 9.6713 20.0009C10.4243 20.0044 11.1769 19.9612 11.9246 19.8716C12.583 19.792 13.2339 19.6596 13.8711 19.4756C14.4584 19.305 15.0295 19.0832 15.5781 18.8128C16.1148 18.5462 16.6285 18.2356 17.114 17.8842V10.3733H11.1052V11.8755C11.104 11.9445 11.1175 12.0131 11.1446 12.0766C11.1718 12.1402 11.212 12.1973 11.2627 12.2442C11.3188 12.2954 11.3844 12.335 11.4558 12.3608C11.5272 12.3866 11.603 12.398 11.6788 12.3944H14.7105V16.7098C14.3645 16.8918 14.0185 17.0536 13.6726 17.195C13.3126 17.3415 12.943 17.4632 12.5664 17.5592C12.1557 17.663 11.7384 17.7384 11.3174 17.785C10.8336 17.8371 10.3472 17.8621 9.86067 17.8596C8.87106 17.8696 7.88899 17.6869 6.96923 17.3216ZM43.0216 0.205765V19.7797H55.0801V17.622H45.6846V10.9441H53.2911V8.86836H45.6846V2.368H55.0801V0.210308H43.0171L43.0216 0.205765ZM93.6908 15.9377C93.3679 16.2297 93.0234 16.4969 92.6602 16.7371C92.3136 16.9626 91.9425 17.148 91.554 17.2897C91.1359 17.441 90.7033 17.5487 90.2631 17.6111C89.7428 17.683 89.2179 17.717 88.6926 17.713C87.7747 17.7205 86.8646 17.544 86.016 17.1941C85.1972 16.855 84.4631 16.34 83.8656 15.6855C83.2328 14.9796 82.7456 14.1557 82.4317 13.2611C82.0657 12.2126 81.8876 11.1077 81.9055 9.99727C81.8904 8.90488 82.0686 7.81843 82.4317 6.78806C82.7494 5.88591 83.2489 5.05857 83.8993 4.35726C84.5303 3.69102 85.2963 3.16735 86.1462 2.82137C87.0591 2.45325 88.0361 2.26976 89.0204 2.28151C89.5377 2.27596 90.0544 2.31954 90.5635 2.41169C90.9633 2.48527 91.3562 2.59248 91.738 2.73216C92.0405 2.84343 92.3329 2.98049 92.6119 3.14185C92.8547 3.28751 93.0687 3.42407 93.2538 3.55153C93.4389 3.67899 93.5961 3.78612 93.7254 3.87292C93.835 3.95184 93.9655 3.9968 94.1005 4.00219C94.2254 4.00951 94.3495 3.97768 94.4555 3.91115C94.5405 3.84868 94.6144 3.77236 94.674 3.68536L95.5344 2.46997C94.673 1.64088 93.6535 0.99358 92.5368 0.566591C91.4201 0.139603 90.2288 -0.058352 89.034 -0.0154765C87.6681 -0.0329686 86.3118 0.21437 85.04 0.712858C83.8725 1.17394 82.8141 1.87383 81.9328 2.76767C81.0524 3.67528 80.367 4.75349 79.919 5.93591C79.4289 7.23129 79.1856 8.60693 79.2015 9.99181C79.1858 11.3725 79.4122 12.7453 79.8707 14.0477C80.281 15.2171 80.9218 16.2923 81.7552 17.2096C82.5756 18.0952 83.577 18.7938 84.6914 19.258C85.9081 19.7578 87.2135 20.0056 88.5287 19.9863C89.9456 20.0243 91.3543 19.7589 92.6602 19.2079C93.7786 18.7062 94.7731 17.965 95.5736 17.0366L94.5357 15.9031C94.4853 15.8481 94.4241 15.8039 94.356 15.7734C94.2879 15.7428 94.2143 15.7266 94.1396 15.7256C93.9677 15.735 93.8055 15.808 93.6844 15.9304L93.6908 15.9377ZM124.226 0.205765H121.59V19.7797H124.226V10.8212H125.428C125.613 10.8191 125.798 10.8307 125.981 10.8558C126.119 10.8749 126.253 10.9138 126.38 10.9714C126.488 11.0252 126.589 11.0919 126.681 11.1699C126.763 11.247 126.854 11.3401 126.954 11.4494L133.718 19.2198C133.791 19.3017 133.864 19.3791 133.937 19.4519C134.007 19.5217 134.087 19.5815 134.173 19.6295C134.272 19.6782 134.376 19.7149 134.483 19.7387C134.627 19.7685 134.773 19.7823 134.92 19.7797H137.214L129.43 10.5071C129.246 10.287 129.045 10.0816 128.829 9.89258C128.631 9.72595 128.402 9.60057 128.155 9.52385C128.352 9.42935 128.536 9.31002 128.702 9.16879C128.89 9.00066 129.069 8.82289 129.239 8.6362L136.695 0.210308H134.437C134.193 0.200546 133.949 0.249889 133.727 0.354157C133.504 0.477063 133.306 0.641449 133.145 0.838496L126.626 8.21286C126.47 8.40319 126.273 8.5552 126.05 8.65714C125.785 8.75348 125.504 8.79739 125.223 8.78642H124.222V0.210308L124.226 0.205765ZM178.857 5.96232C178.421 4.78449 177.752 3.70681 176.89 2.79406C176.03 1.89803 174.991 1.19298 173.84 0.724694C171.307 -0.258526 168.498 -0.258526 165.965 0.724694C164.815 1.19298 163.775 1.89803 162.915 2.79406C162.053 3.70681 161.384 4.78449 160.949 5.96232C160.026 8.57351 160.026 11.422 160.949 14.0331C161.383 15.2093 162.052 16.2848 162.915 17.1941C163.776 18.086 164.815 18.7865 165.965 19.2498C168.5 20.2234 171.305 20.2234 173.84 19.2498C174.99 18.7865 176.029 18.086 176.89 17.1941C177.753 16.2848 178.422 15.2093 178.857 14.0331C179.776 11.4234 179.774 8.57742 178.852 5.96868L178.857 5.96232ZM176.344 13.2274C176.05 14.1201 175.576 14.9429 174.951 15.6446C174.346 16.3076 173.599 16.8257 172.766 17.1604C170.921 17.8608 168.884 17.8608 167.039 17.1604C166.206 16.8257 165.46 16.3076 164.854 15.6446C164.223 14.9457 163.746 14.1223 163.452 13.2274C162.797 11.1225 162.797 8.86836 163.452 6.76347C163.744 5.86622 164.222 5.04048 164.854 4.33995C165.46 3.67611 166.207 3.15578 167.039 2.81683C168.882 2.10668 170.923 2.10668 172.766 2.81683C173.598 3.15578 174.345 3.67611 174.951 4.33995C175.577 5.04335 176.051 5.8684 176.344 6.76347C176.998 8.87023 176.997 11.1262 176.339 13.232L176.344 13.2274Z" fill="#3E3E3E"/>
</svg>
