<svg width="124" height="41" viewBox="0 0 124 41" fill="none" xmlns="http://www.w3.org/2000/svg">
<path d="M100.04 0.307581H103.497V2.06162C103.978 1.42535 104.58 0.926653 105.302 0.565527C106.042 0.187207 106.876 -0.00195312 107.804 -0.00195312C108.991 -0.00195312 109.988 0.230198 110.796 0.6945C111.622 1.14161 112.258 1.77788 112.705 2.6033C113.221 1.81227 113.9 1.1846 114.743 0.720296C115.603 0.238797 116.574 -0.00195312 117.658 -0.00195312C119.687 -0.00195312 121.217 0.565528 122.249 1.70049C123.281 2.81826 123.797 4.35734 123.797 6.31773V15.3974H120.237V6.60147C120.237 5.5009 119.962 4.63248 119.412 3.99621C118.862 3.34275 118.045 3.01602 116.961 3.01602C116.016 3.01602 115.225 3.34275 114.588 3.99621C113.952 4.64968 113.634 5.63847 113.634 6.96259V15.3974H110.1V6.49829C110.1 5.41492 109.833 4.56369 109.3 3.94462C108.767 3.32555 107.976 3.01602 106.927 3.01602C105.947 3.01602 105.13 3.35135 104.477 4.02201C103.84 4.69267 103.522 5.69866 103.522 7.03998V15.3974H100.04V0.307581Z" fill="black"/>
<path d="M90.6899 15.707C89.6065 15.707 88.5833 15.5092 87.6203 15.1137C86.6745 14.701 85.8491 14.1421 85.1441 13.437C84.439 12.7148 83.8801 11.8808 83.4674 10.935C83.0719 9.97197 82.8741 8.94878 82.8741 7.86541C82.8741 6.76484 83.0719 5.74165 83.4674 4.79585C83.8801 3.83285 84.439 2.99882 85.1441 2.29377C85.8491 1.57152 86.6745 1.01264 87.6203 0.617118C88.5833 0.204404 89.6065 -0.00195312 90.6899 -0.00195312C91.7733 -0.00195312 92.7879 0.204404 93.7337 0.617118C94.6795 1.01264 95.5049 1.57152 96.21 2.29377C96.9322 2.99882 97.4911 3.83285 97.8866 4.79585C98.2993 5.74165 98.5057 6.76484 98.5057 7.86541C98.5057 8.94878 98.2993 9.97197 97.8866 10.935C97.4911 11.8808 96.9322 12.7148 96.21 13.437C95.5049 14.1421 94.6795 14.701 93.7337 15.1137C92.7879 15.5092 91.7733 15.707 90.6899 15.707ZM90.6899 12.4311C91.309 12.4311 91.8851 12.3107 92.4181 12.0699C92.9512 11.8292 93.4155 11.5024 93.8111 11.0897C94.2066 10.677 94.5161 10.1955 94.7397 9.64524C94.9632 9.07775 95.075 8.48448 95.075 7.86541C95.075 7.22914 94.9632 6.63586 94.7397 6.08558C94.5161 5.5181 94.2066 5.028 93.8111 4.61528C93.4155 4.20257 92.9512 3.87584 92.4181 3.63509C91.8851 3.39434 91.309 3.27396 90.6899 3.27396C90.0708 3.27396 89.4862 3.39434 88.9359 3.63509C88.4028 3.87584 87.9385 4.20257 87.543 4.61528C87.1646 5.028 86.8637 5.5181 86.6401 6.08558C86.4166 6.63586 86.3048 7.22914 86.3048 7.86541C86.3048 8.48448 86.4166 9.07775 86.6401 9.64524C86.8637 10.1955 87.1646 10.677 87.543 11.0897C87.9385 11.5024 88.4028 11.8292 88.9359 12.0699C89.4862 12.3107 90.0708 12.4311 90.6899 12.4311Z" fill="black"/>
<path d="M74.9216 15.707C73.821 15.707 72.7892 15.5006 71.8262 15.0879C70.8804 14.6752 70.055 14.1163 69.35 13.4113C68.6449 12.7062 68.086 11.8808 67.6733 10.935C67.2778 9.97197 67.08 8.94878 67.08 7.86541C67.08 6.76484 67.2778 5.74165 67.6733 4.79585C68.086 3.83285 68.6449 2.99882 69.35 2.29377C70.055 1.57152 70.8804 1.01264 71.8262 0.617118C72.7892 0.204404 73.821 -0.00195312 74.9216 -0.00195312C75.7642 -0.00195312 76.5553 0.118422 77.2947 0.359172C78.0513 0.582724 78.7392 0.900858 79.3583 1.31357C79.9773 1.72629 80.519 2.21638 80.9833 2.78387C81.4476 3.35135 81.826 3.97902 82.1183 4.66687L78.9971 5.9824C78.6532 5.15697 78.1201 4.50351 77.3979 4.02201C76.6928 3.52331 75.876 3.27396 74.9474 3.27396C74.3111 3.27396 73.7178 3.39434 73.1676 3.63509C72.6345 3.87584 72.1616 4.20257 71.7489 4.61528C71.3533 5.028 71.0438 5.5181 70.8202 6.08558C70.5967 6.63586 70.4849 7.22914 70.4849 7.86541C70.4849 8.48448 70.5967 9.07775 70.8202 9.64524C71.0438 10.1955 71.3533 10.677 71.7489 11.0897C72.1616 11.5024 72.6431 11.8292 73.1934 12.0699C73.7436 12.3107 74.3369 12.4311 74.9732 12.4311C75.9534 12.4311 76.7874 12.1731 77.4753 11.6572C78.1803 11.1241 78.7048 10.4449 79.0487 9.61944L82.1699 10.9608C81.8775 11.6486 81.4992 12.2849 81.0349 12.8696C80.5706 13.4542 80.0289 13.9615 79.4099 14.3914C78.808 14.8042 78.1287 15.1309 77.3721 15.3716C76.6154 15.5952 75.7986 15.707 74.9216 15.707Z" fill="black"/>
<path d="M58.3747 15.707C57.1881 15.707 56.1048 15.5092 55.1246 15.1137C54.1444 14.701 53.3018 14.1421 52.5967 13.437C51.9088 12.732 51.3672 11.9066 50.9716 10.9608C50.5933 9.99776 50.4042 8.97458 50.4042 7.8912C50.4042 6.79063 50.6019 5.75885 50.9974 4.79585C51.4101 3.83285 51.969 2.99882 52.6741 2.29377C53.3791 1.58871 54.2046 1.02983 55.1504 0.617118C56.1134 0.204404 57.1452 -0.00195312 58.2457 -0.00195312C59.3635 -0.00195312 60.3953 0.195806 61.3411 0.591323C62.3041 0.969644 63.1295 1.51133 63.8174 2.21638C64.5052 2.90424 65.0383 3.72107 65.4166 4.66687C65.8121 5.61268 66.0099 6.64446 66.0099 7.76223V9.07775H53.7317C53.9724 10.1439 54.4969 11.0038 55.3051 11.6572C56.1134 12.3107 57.1366 12.6374 58.3747 12.6374C59.3549 12.6374 60.2061 12.3967 60.9284 11.9152C61.6506 11.4337 62.1923 10.7888 62.5534 9.98057L65.4166 11.6314C64.7632 12.8524 63.8432 13.8412 62.6566 14.5978C61.4873 15.3372 60.0599 15.707 58.3747 15.707ZM58.2457 3.06761C57.1967 3.06761 56.2853 3.35135 55.5115 3.91883C54.7549 4.48631 54.2218 5.23436 53.9122 6.16296H62.476C62.2181 5.14837 61.7194 4.38313 60.98 3.86724C60.2405 3.33415 59.3291 3.06761 58.2457 3.06761Z" fill="black"/>
<path d="M88.3508 38.9189C87.1642 38.9189 86.0808 38.7211 85.1006 38.3256C84.1204 37.9129 83.2778 37.354 82.5728 36.649C81.8849 35.9439 81.3432 35.1185 80.9477 34.1727C80.5694 33.2097 80.3802 32.1865 80.3802 31.1031C80.3802 30.0025 80.578 28.9708 80.9735 28.0078C81.3862 27.0448 81.9451 26.2107 82.6502 25.5057C83.3552 24.8006 84.1806 24.2417 85.1264 23.829C86.0894 23.4163 87.1212 23.21 88.2218 23.21C89.3396 23.21 90.3713 23.4077 91.3171 23.8032C92.2801 24.1816 93.1056 24.7232 93.7934 25.4283C94.4813 26.1162 95.0144 26.933 95.3927 27.8788C95.7882 28.8246 95.986 29.8564 95.986 30.9741V32.2897H83.7077C83.9485 33.3558 84.473 34.2157 85.2812 34.8691C86.0894 35.5226 87.1126 35.8493 88.3508 35.8493C89.331 35.8493 90.1822 35.6086 90.9044 35.1271C91.6267 34.6456 92.1684 34.0007 92.5295 33.1925L95.3927 34.8433C94.7392 36.0643 93.8192 37.0531 92.6327 37.8097C91.4633 38.5492 90.036 38.9189 88.3508 38.9189ZM88.2218 26.2795C87.1728 26.2795 86.2614 26.5633 85.4876 27.1307C84.7309 27.6982 84.1978 28.4463 83.8883 29.3749H92.4521C92.1942 28.3603 91.6955 27.595 90.956 27.0792C90.2166 26.5461 89.3052 26.2795 88.2218 26.2795Z" fill="black"/>
<path d="M73.1946 38.9183C71.5266 38.9183 70.1423 38.6088 69.0417 37.9897C67.9411 37.3534 67.0899 36.442 66.488 35.2555L69.7124 33.7078C70.0735 34.4129 70.5636 34.9545 71.1827 35.3329C71.8017 35.7112 72.524 35.9003 73.3494 35.9003C74.2092 35.9003 74.8541 35.7198 75.284 35.3587C75.7139 34.9975 75.9289 34.5676 75.9289 34.0689C75.9289 33.7938 75.8257 33.5702 75.6193 33.3983C75.4302 33.2263 75.1722 33.0801 74.8455 32.9598C74.536 32.8222 74.1662 32.7104 73.7363 32.6244C73.3064 32.5384 72.8593 32.4439 72.395 32.3407C71.7415 32.2031 71.0967 32.0397 70.4604 31.8506C69.8413 31.6614 69.2825 31.4035 68.7838 31.0768C68.2851 30.7328 67.881 30.3029 67.5714 29.787C67.2619 29.2539 67.1071 28.5919 67.1071 27.8008C67.1071 27.199 67.2447 26.6229 67.5198 26.0726C67.8122 25.5051 68.2163 25.0064 68.7322 24.5765C69.2481 24.1466 69.8671 23.8113 70.5894 23.5705C71.3288 23.3126 72.1457 23.1836 73.0399 23.1836C74.5532 23.1836 75.8085 23.4673 76.8059 24.0348C77.8205 24.5851 78.6201 25.3417 79.2048 26.3047L76.2384 27.8008C75.9289 27.2677 75.499 26.8464 74.9487 26.5369C74.3984 26.2274 73.7621 26.0726 73.0399 26.0726C72.2144 26.0726 71.604 26.236 71.2085 26.5627C70.8129 26.8894 70.6152 27.2677 70.6152 27.6977C70.6152 28.1964 70.9075 28.5575 71.4922 28.781C72.0769 28.9874 72.9367 29.2109 74.0717 29.4517C74.6907 29.5721 75.3098 29.7354 75.9289 29.9418C76.5651 30.1309 77.1412 30.3975 77.6571 30.7414C78.173 31.0682 78.5857 31.4981 78.8953 32.0312C79.222 32.547 79.3854 33.2005 79.3854 33.9915C79.3854 34.5246 79.265 35.0835 79.0242 35.6682C78.7835 36.2357 78.4052 36.7688 77.8893 37.2675C77.3906 37.749 76.7543 38.1445 75.9805 38.454C75.2066 38.7635 74.278 38.9183 73.1946 38.9183Z" fill="black"/>
<path d="M62.0031 23.5208H65.5112V38.6107H62.0031V23.5208ZM61.5646 19.8322C61.5646 19.1787 61.7624 18.6542 62.1579 18.2587C62.5534 17.846 63.0865 17.6396 63.7572 17.6396C64.445 17.6396 64.9781 17.846 65.3565 18.2587C65.752 18.6542 65.9497 19.1787 65.9497 19.8322C65.9497 20.4857 65.752 21.0101 65.3565 21.4057C64.9781 21.8012 64.445 21.9989 63.7572 21.9989C63.0521 21.9989 62.5104 21.8012 62.1321 21.4057C61.7538 21.0101 61.5646 20.4857 61.5646 19.8322Z" fill="black"/>
<path d="M50.8942 23.5205H54.3507V25.7646C55.0557 24.2686 56.3455 23.5205 58.2199 23.5205C58.7702 23.5205 59.2603 23.5807 59.6902 23.7011C60.1373 23.8214 60.5328 23.9762 60.8767 24.1654L59.5612 27.4671C59.3032 27.2951 59.0109 27.1575 58.6842 27.0544C58.3746 26.934 57.9705 26.8738 57.4718 26.8738C56.4572 26.8738 55.6834 27.1661 55.1503 27.7508C54.6344 28.3183 54.3765 29.2555 54.3765 30.5624V38.6104H50.8942V23.5205Z" fill="black"/>
<path d="M20.2711 -0.000976562L10.3189 9.95118H20.2711V19.7119L30.0318 9.95118V-0.000976562H20.2711Z" fill="url(#paint0_linear_118_2087)"/>
<path d="M31.3714 11.0977L21.4193 21.0498H31.3714V30.8106L41.1322 21.0498V11.0977H31.3714Z" fill="url(#paint1_linear_118_2087)"/>
<path d="M10.7016 20.7139L0.749481 30.666H10.7016V40.4268L20.4624 30.666V20.7139H10.7016Z" fill="url(#paint2_linear_118_2087)"/>
<defs>
<linearGradient id="paint0_linear_118_2087" x1="10.8622" y1="12.0793" x2="29.8539" y2="0.453645" gradientUnits="userSpaceOnUse">
<stop stop-color="#8936FD"/>
<stop offset="1" stop-color="#DDC5FE"/>
</linearGradient>
<linearGradient id="paint1_linear_118_2087" x1="21.9626" y1="23.1779" x2="40.9543" y2="11.5523" gradientUnits="userSpaceOnUse">
<stop stop-color="#8936FD"/>
<stop offset="1" stop-color="#DDC5FE"/>
</linearGradient>
<linearGradient id="paint2_linear_118_2087" x1="3.60446" y1="38.6842" x2="20.1305" y2="24.2094" gradientUnits="userSpaceOnUse">
<stop stop-color="#67E1F6"/>
<stop offset="1" stop-color="#67E1F6" stop-opacity="0.7"/>
</linearGradient>
</defs>
</svg>
