<svg width="24" height="18" viewBox="0 0 24 18" fill="none" xmlns="http://www.w3.org/2000/svg">
<path fill-rule="evenodd" clip-rule="evenodd" d="M3.45944 0.414062H20.5407C21.722 0.414062 22.6868 1.37879 22.6868 2.56015V13.2012C22.6868 13.4859 22.4558 13.7169 22.1711 13.7169H1.82896C1.54433 13.7169 1.31335 13.4859 1.31335 13.2012V2.56015C1.31335 1.37878 2.27808 0.414062 3.45944 0.414062ZM2.34457 12.92H21.6556V2.56015C21.6556 1.9481 21.1527 1.44528 20.5407 1.44528H3.45946C2.84741 1.44528 2.34459 1.9481 2.34459 2.56015L2.34457 12.92Z" fill="black"/>
<path d="M21.7842 17.3519H2.21598C0.996578 17.3519 1.52588e-05 16.3554 1.52588e-05 15.1359V13.2012C1.52588e-05 13.0459 0.125969 12.9199 0.281266 12.9199H7.47215C7.43694 13.0068 7.41751 13.1017 7.41751 13.2012V14.1686C7.41751 15.1146 8.18873 15.8859 9.1348 15.8859H14.8652C15.3215 15.8859 15.7563 15.7045 16.0787 15.382C16.7048 14.756 16.5825 14.0015 16.5825 13.2012C16.5825 13.1017 16.5631 13.0068 16.5279 12.9199H23.7188C23.8741 12.9199 24.0001 13.0459 24.0001 13.2012V15.1359C24.0001 16.3553 23.0036 17.3519 21.7842 17.3519Z" fill="black"/>
<path d="M14.8653 15.4171H9.13482C8.44747 15.4171 7.88624 14.8559 7.88624 14.1686V13.2012C7.88624 13.0459 8.01219 12.9199 8.16749 12.9199H15.8326C15.9879 12.9199 16.1138 13.0459 16.1138 13.2012C16.1138 13.9461 16.2259 14.5721 15.7473 15.0506C15.5212 15.2767 15.2089 15.4171 14.8653 15.4171Z" fill="black"/>
<path fill-rule="evenodd" clip-rule="evenodd" d="M6.49635 7.06552L9.18047 9.74976C9.3113 9.88058 9.36694 10.0653 9.31545 10.245C9.20638 10.6258 8.73612 10.7637 8.45133 10.4789L5.40258 7.4301C5.20133 7.22891 5.20133 6.90215 5.40258 6.70095L8.45133 3.65215C8.58215 3.52127 8.76685 3.46568 8.9465 3.51717C9.32741 3.62624 9.46527 4.0965 9.18047 4.3813L6.49635 7.06552ZM17.5037 7.06552L14.8196 4.38129C14.6887 4.25046 14.6331 4.06577 14.6846 3.88606C14.7936 3.50521 15.2639 3.36735 15.5487 3.65214L18.5975 6.70095C18.7987 6.90214 18.7987 7.2289 18.5975 7.4301L15.5487 10.4789C15.4179 10.6098 15.2332 10.6654 15.0535 10.6139C14.6726 10.5048 14.5348 10.0345 14.8196 9.74975L17.5037 7.06552ZM13.6387 4.05309L11.3294 10.4288C11.2658 10.6042 11.125 10.7305 10.9389 10.7604C10.5506 10.8228 10.2251 10.4538 10.3613 10.078L12.6706 3.7023C12.7341 3.5269 12.8749 3.40061 13.061 3.37072C13.4494 3.30827 13.7748 3.67727 13.6387 4.05309Z" fill="black"/>
</svg>
