<svg width="24" height="24" viewBox="0 0 24 24" fill="none" xmlns="http://www.w3.org/2000/svg">
<path fill-rule="evenodd" clip-rule="evenodd" d="M0.340057 19.9351C0.152237 19.9351 0 19.7829 0 19.595C0 19.4072 0.152237 19.255 0.340057 19.255H4.01634C4.04311 19.255 4.06492 19.2332 4.06492 19.2064V6.33045C4.06492 6.14263 4.21715 5.99039 4.40497 5.99039C4.59279 5.99039 4.74503 6.14263 4.74503 6.33045V19.2064C4.74503 19.2332 4.76683 19.255 4.79361 19.255H17.6696C17.8574 19.255 18.0096 19.4072 18.0096 19.595C18.0096 19.7829 17.8574 19.9351 17.6696 19.9351H4.79361C4.76683 19.9351 4.74503 19.9569 4.74503 19.9837V23.66C4.74503 23.8478 4.59279 24 4.40497 24C4.21715 24 4.06492 23.8478 4.06492 23.66V19.9837C4.06492 19.9569 4.04311 19.9351 4.01634 19.9351H0.340057ZM7.12218 6.46686C6.82122 6.46686 6.57382 6.71421 6.57382 7.01522V16.9848C6.57382 17.2858 6.82117 17.5332 7.12218 17.5332H10.6734C10.9744 17.5332 11.2218 17.2858 11.2218 16.9848V7.01522C11.2218 6.71426 10.9744 6.46686 10.6734 6.46686H7.12218ZM13.3265 12.8852C13.0242 12.8852 12.7782 13.1312 12.7782 13.4336V16.9848C12.7782 17.2858 13.0255 17.5332 13.3265 17.5332H16.8778C17.1787 17.5332 17.4261 17.2858 17.4261 16.9848V13.4336C17.4261 13.1326 17.1788 12.8852 16.8778 12.8852H13.3265ZM13.3265 6.46686C13.0256 6.46686 12.7782 6.71421 12.7782 7.01522V10.5665C12.7782 10.8672 13.0257 11.1148 13.3265 11.1148H16.8778C17.1802 11.1148 17.4261 10.8688 17.4261 10.5665V7.01522C17.4261 6.71426 17.1788 6.46686 16.8778 6.46686H13.3265ZM19.255 0.340057V4.01634C19.255 4.04311 19.2332 4.06492 19.2064 4.06492H6.33045C6.14263 4.06492 5.99039 4.21715 5.99039 4.40497C5.99039 4.59279 6.14263 4.74503 6.33045 4.74503H19.2064C19.2332 4.74503 19.255 4.76683 19.255 4.79361V17.6696C19.255 17.8574 19.4072 18.0096 19.595 18.0096C19.7829 18.0096 19.9351 17.8574 19.9351 17.6696V4.79361C19.9351 4.76683 19.9569 4.74503 19.9837 4.74503H23.66C23.8478 4.74503 24 4.59279 24 4.40497C24 4.21715 23.8478 4.06492 23.66 4.06492H19.9837C19.9569 4.06492 19.9351 4.04311 19.9351 4.01634V0.340057C19.9351 0.152237 19.7829 0 19.595 0C19.4072 0 19.255 0.152237 19.255 0.340057ZM2.82689 14.006L0.855253 12.0343C0.836335 12.0154 0.836335 11.9845 0.855253 11.9656L2.82689 9.99399C2.95969 9.86119 2.95969 9.64591 2.82689 9.51312C2.6941 9.38032 2.47882 9.38032 2.34602 9.51312L0.0996224 11.7595C-0.0331724 11.8923 -0.0331724 12.1076 0.0996224 12.2404L2.34602 14.4868C2.47882 14.6196 2.6941 14.6196 2.82689 14.4868C2.95969 14.354 2.95969 14.1388 2.82689 14.006ZM21.654 14.4868C21.5212 14.6196 21.3059 14.6196 21.1731 14.4868C21.0403 14.3541 21.0403 14.1388 21.1731 14.006L23.1448 12.0343C23.1637 12.0154 23.1637 11.9845 23.1448 11.9656L21.1731 9.99399C21.0403 9.86119 21.0403 9.64591 21.1731 9.51312C21.3059 9.38032 21.5212 9.38032 21.654 9.51312L23.9004 11.7595C24.0332 11.8923 24.0332 12.1076 23.9004 12.2404L21.654 14.4868Z" fill="black"/>
</svg>
