<svg width="24" height="24" viewBox="0 0 24 24" fill="none" xmlns="http://www.w3.org/2000/svg">
<path d="M22.125 9.705H20.3775C20.1843 9.00429 19.9047 8.33036 19.545 7.69875L20.7825 6.46125C20.9932 6.25031 21.1115 5.96438 21.1115 5.66625C21.1115 5.36812 20.9932 5.08219 20.7825 4.87125L19.1287 3.2175C18.9178 3.00682 18.6319 2.88849 18.3337 2.88849C18.0356 2.88849 17.7497 3.00682 17.5387 3.2175L16.3013 4.455C15.6696 4.09531 14.9957 3.81566 14.295 3.6225V1.875C14.295 1.57663 14.1765 1.29048 13.9655 1.0795C13.7545 0.868526 13.4684 0.75 13.17 0.75H10.83C10.5319 0.75089 10.2463 0.869703 10.0355 1.08049C9.8247 1.29127 9.70589 1.57691 9.705 1.875V3.6225C9.00429 3.81566 8.33036 4.09531 7.69875 4.455L6.46125 3.2175C6.24945 3.00846 5.96384 2.89125 5.66625 2.89125C5.36866 2.89125 5.08305 3.00846 4.87125 3.2175L3.2175 4.87125C3.00682 5.08219 2.88849 5.36812 2.88849 5.66625C2.88849 5.96438 3.00682 6.25031 3.2175 6.46125L4.455 7.69875C4.09531 8.33036 3.81566 9.00429 3.6225 9.705H1.875C1.57663 9.705 1.29048 9.82353 1.0795 10.0345C0.868526 10.2455 0.75 10.5316 0.75 10.83V13.17C0.75089 13.4681 0.869703 13.7537 1.08049 13.9645C1.29127 14.1753 1.57691 14.2941 1.875 14.295H3.6225C3.81566 14.9957 4.09531 15.6696 4.455 16.3013L3.2175 17.5387C3.00846 17.7506 2.89125 18.0362 2.89125 18.3337C2.89125 18.6313 3.00846 18.9169 3.2175 19.1287L4.87125 20.7825C5.08262 20.9924 5.3684 21.1101 5.66625 21.1101C5.9641 21.1101 6.24988 20.9924 6.46125 20.7825L7.69875 19.545C8.33036 19.9047 9.00429 20.1843 9.705 20.3775V22.125C9.705 22.4234 9.82353 22.7095 10.0345 22.9205C10.2455 23.1315 10.5316 23.25 10.83 23.25H13.17C13.4681 23.2491 13.7537 23.1303 13.9645 22.9195C14.1753 22.7087 14.2941 22.4231 14.295 22.125V20.3775C14.9957 20.1843 15.6696 19.9047 16.3013 19.545L17.5387 20.7825C17.7497 20.9932 18.0356 21.1115 18.3337 21.1115C18.6319 21.1115 18.9178 20.9932 19.1287 20.7825L20.7825 19.1287C20.9932 18.9178 21.1115 18.6319 21.1115 18.3337C21.1115 18.0356 20.9932 17.7497 20.7825 17.5387L19.545 16.3013C19.9047 15.6696 20.1843 14.9957 20.3775 14.295H22.125C22.4234 14.295 22.7095 14.1765 22.9205 13.9655C23.1315 13.7545 23.25 13.4684 23.25 13.17V10.83C23.2491 10.5319 23.1303 10.2463 22.9195 10.0355C22.7087 9.8247 22.4231 9.70589 22.125 9.705ZM12 17.625C10.8875 17.625 9.79994 17.2951 8.87492 16.677C7.94989 16.0589 7.22892 15.1804 6.80318 14.1526C6.37743 13.1248 6.26604 11.9938 6.48308 10.9026C6.70012 9.81147 7.23585 8.80919 8.02252 8.02252C8.80919 7.23585 9.81147 6.70012 10.9026 6.48308C11.9938 6.26604 13.1248 6.37743 14.1526 6.80318C15.1804 7.22892 16.0589 7.94989 16.677 8.87492C17.2951 9.79994 17.625 10.8875 17.625 12C17.6232 13.4913 17.03 14.921 15.9755 15.9755C14.921 17.03 13.4913 17.6232 12 17.625Z" fill="black"/>
<path d="M9.81749 9.26226C9.73834 9.20223 9.6386 9.17605 9.54017 9.18948C9.44174 9.20291 9.35266 9.25484 9.29249 9.33389L7.43661 11.7714C7.38704 11.8366 7.3602 11.9163 7.3602 11.9983C7.3602 12.0802 7.38704 12.1599 7.43661 12.2251L9.29249 14.6626C9.32013 14.7066 9.35661 14.7444 9.39963 14.7736C9.44264 14.8027 9.49124 14.8226 9.54234 14.832C9.59345 14.8414 9.64595 14.84 9.69651 14.828C9.74707 14.8161 9.79459 14.7937 9.83605 14.7624C9.87751 14.7311 9.91201 14.6915 9.93736 14.6461C9.96271 14.6008 9.97836 14.5506 9.98332 14.4989C9.98827 14.4472 9.98242 14.395 9.96614 14.3456C9.94986 14.2963 9.9235 14.2509 9.88874 14.2123L8.20574 11.9998L9.88874 9.78914C9.91878 9.74991 9.94077 9.70514 9.95345 9.65739C9.96613 9.60964 9.96925 9.55985 9.96262 9.51089C9.956 9.46193 9.93977 9.41476 9.91487 9.37209C9.88996 9.32943 9.85687 9.2921 9.81749 9.26226Z" fill="black"/>
<path d="M14.175 9.26429C14.0961 9.32463 14.0444 9.4138 14.0312 9.51222C14.018 9.61064 14.0443 9.71028 14.1045 9.78929L15.7939 11.9999L14.1064 14.2102C14.0749 14.2492 14.0516 14.2941 14.0378 14.3423C14.024 14.3904 14.02 14.4409 14.026 14.4906C14.0321 14.5403 14.048 14.5884 14.0729 14.6319C14.0978 14.6753 14.1311 14.7134 14.171 14.7438C14.2108 14.7741 14.2564 14.7962 14.3049 14.8087C14.3534 14.8212 14.4039 14.8238 14.4535 14.8164C14.5031 14.8091 14.5506 14.7918 14.5934 14.7658C14.6362 14.7397 14.6733 14.7053 14.7026 14.6647L16.5641 12.2272C16.6139 12.1619 16.6408 12.082 16.6408 11.9999C16.6408 11.9178 16.6139 11.838 16.5641 11.7727L14.7026 9.33517C14.6727 9.29571 14.6354 9.26256 14.5926 9.23762C14.5499 9.21268 14.5026 9.19645 14.4536 9.18986C14.4045 9.18327 14.3547 9.18646 14.3068 9.19923C14.259 9.21201 14.2142 9.23412 14.175 9.26429Z" fill="black"/>
<path d="M12.6165 9.1962C12.5684 9.18565 12.5187 9.18469 12.4702 9.19336C12.4217 9.20203 12.3754 9.22017 12.3339 9.24674C12.2924 9.27331 12.2566 9.30779 12.2284 9.34821C12.2003 9.38863 12.1804 9.43421 12.1699 9.48232L11.1034 14.3573C11.0914 14.4059 11.0893 14.4564 11.0972 14.5059C11.105 14.5553 11.1227 14.6026 11.1492 14.6451C11.1756 14.6876 11.2103 14.7244 11.2512 14.7533C11.2921 14.7821 11.3383 14.8025 11.3872 14.8132C11.4361 14.8239 11.4867 14.8248 11.5359 14.8156C11.5851 14.8065 11.632 14.7876 11.6738 14.7601C11.7156 14.7326 11.7514 14.6969 11.7793 14.6553C11.8071 14.6137 11.8263 14.567 11.8357 14.5178L12.9022 9.64282C12.9235 9.54571 12.9054 9.4441 12.8518 9.36035C12.7982 9.27659 12.7136 9.21755 12.6165 9.1962Z" fill="black"/>
</svg>
