<svg width="16" height="16" viewBox="0 0 16 16" fill="none" xmlns="http://www.w3.org/2000/svg">
<path d="M11.0356 15.9558L15.1111 14.9491L13.3467 3.08411C13.3417 3.04923 13.3249 3.01708 13.299 2.99299C13.2732 2.9689 13.2398 2.95431 13.2044 2.95164L12 2.93839L11.0356 2.00668V15.9603V15.9558ZM10.5911 1.86538L10.1111 2.01551C10.0513 1.82203 9.97392 1.63433 9.88 1.45472C9.53777 0.805613 9.03555 0.461189 8.43555 0.461189H8.43111L8.30666 0.47002L8.24889 0.408201C8.12217 0.270831 7.96634 0.163131 7.79264 0.0928773C7.61893 0.0226237 7.43169 -0.00843047 7.24444 0.00195726C6.46666 0.0240357 5.68889 0.584828 5.05777 1.57836C4.61333 2.28045 4.27555 3.15918 4.18222 3.83919L2.64444 4.31167C2.19111 4.45297 2.17777 4.47063 2.11555 4.89013L0.888885 14.3132L10.7111 16V1.84772C10.6667 1.84772 10.6222 1.86096 10.5911 1.86538ZM8.32444 2.56747L6.66666 3.07528C6.81401 2.48033 7.10025 1.9282 7.50222 1.46355C7.64444 1.31342 7.83555 1.15004 8.06666 1.05289C8.28444 1.50329 8.33333 2.13474 8.32444 2.56747ZM7.25777 0.518593C7.44444 0.518593 7.6 0.553918 7.72889 0.642232C7.52 0.748209 7.31555 0.907174 7.12444 1.1103C6.59649 1.72067 6.24207 2.45998 6.09777 3.2519L4.73777 3.66698C5.00444 2.42175 6.05777 0.553918 7.26222 0.518593H7.25777ZM5.74222 7.61461C5.79555 8.44476 7.99111 8.63021 8.11555 10.5731C8.21333 12.1009 7.29777 13.1475 5.98222 13.2314C4.40444 13.3329 3.53333 12.4056 3.53333 12.4056L3.86666 10.9926C3.86666 10.9926 4.74222 11.6461 5.44444 11.602C5.52852 11.5998 5.61129 11.5807 5.68774 11.5459C5.76419 11.511 5.83273 11.4611 5.88923 11.3992C5.94573 11.3373 5.989 11.2647 6.01645 11.1857C6.04389 11.1067 6.05492 11.023 6.04889 10.9396C5.98222 9.85778 4.19111 9.92401 4.07555 8.14007C3.98222 6.64315 4.97333 5.12857 7.15555 4.99169C8 4.9387 8.42666 5.15065 8.42666 5.15065L7.92889 7.00524C7.92889 7.00524 7.37333 6.75355 6.71111 6.7977C5.74222 6.85952 5.73333 7.46447 5.74222 7.61461ZM8.84444 2.40409C8.84573 1.92297 8.76457 1.44513 8.60444 0.991072C9.2 1.10588 9.49333 1.77265 9.61333 2.17006L8.84444 2.40409Z" fill="black"/>
</svg>
