<svg width="12" height="22" viewBox="0 0 12 22" fill="none" xmlns="http://www.w3.org/2000/svg">
<path d="M11.805 8.14645C11.7427 8.01989 11.6145 7.93926 11.4735 7.93739L6.96037 7.88076L9.01762 0.475075C9.06656 0.299575 8.98219 0.114325 8.81756 0.036138C8.65331 -0.0424245 8.45625 0.00876294 8.35069 0.15745L0.22556 11.595C0.144373 11.7093 0.133873 11.8595 0.198186 11.984C0.262686 12.1087 0.391123 12.1871 0.531373 12.1871H4.02469L1.17281 21.515C1.11956 21.6894 1.19944 21.8769 1.362 21.9592C1.416 21.9866 1.47412 21.9997 1.53131 21.9997C1.64644 21.9997 1.75912 21.9466 1.83206 21.849L11.7696 8.53645C11.8537 8.42376 11.8674 8.27283 11.805 8.14645Z" fill="black"/>
</svg>
