<svg width="20" height="20" viewBox="0 0 20 20" fill="none" xmlns="http://www.w3.org/2000/svg">
<path d="M10.005 18.1262C6.91499 18.1265 4.06561 16.3559 2.70092 13.569C1.31999 10.7481 1.73811 7.22997 3.74186 4.81466C5.74342 2.40185 8.99749 1.34903 12.0312 2.13247C12.3653 2.21872 12.5662 2.55966 12.4803 2.89403C12.394 3.22841 12.0528 3.42903 11.7187 3.3431C9.15249 2.68028 6.39811 3.57091 4.70405 5.6131C3.00905 7.65653 2.6553 10.6331 3.82374 13.02C4.9878 15.3975 7.55561 16.9462 10.1912 16.8743C12.8265 16.8025 15.2181 15.1997 16.284 12.7912C16.91 11.3768 17.0425 9.77528 16.6565 8.28122C16.5703 7.94716 16.7712 7.60622 17.1056 7.51966C17.439 7.43309 17.7806 7.63435 17.8672 7.96872C18.3228 9.73403 18.1669 11.6265 17.4275 13.2972C16.1675 16.144 13.3403 18.0387 10.2256 18.1237C10.1519 18.1253 10.0781 18.1262 10.005 18.1262Z" fill="#37BD4F"/>
<path d="M10 11.9501C9.84001 11.9501 9.68001 11.8892 9.55814 11.767C9.31408 11.5229 9.31408 11.1273 9.55814 10.8832L17.0581 3.38324C17.3019 3.13918 17.6981 3.13918 17.9419 3.38324C18.186 3.6273 18.186 4.02293 17.9419 4.26699L10.4419 11.767C10.32 11.8889 10.16 11.9501 10 11.9501Z" fill="#37BD4F"/>
<path d="M10 11.9503C9.84 11.9503 9.68 11.8894 9.55812 11.7672L6.90656 9.11563C6.6625 8.87156 6.6625 8.47594 6.90656 8.23188C7.15031 7.98781 7.54656 7.98781 7.79031 8.23188L10.4419 10.8834C10.6859 11.1275 10.6859 11.5231 10.4419 11.7672C10.32 11.8891 10.16 11.9503 10 11.9503Z" fill="#37BD4F"/>
</svg>
