<svg width="152" height="203" viewBox="0 0 152 203" fill="none" xmlns="http://www.w3.org/2000/svg">
<path d="M341.094 2.40211C340.431 2.40211 339.894 1.86438 339.894 1.20106C339.894 0.537731 340.431 -8.14012e-08 341.094 -5.24409e-08C341.756 -2.34805e-08 342.293 0.537731 342.293 1.20106C342.293 1.86438 341.756 2.40211 341.094 2.40211Z" fill="#E9E0D6"/>
<path d="M321.1 2.40211C320.437 2.40211 319.9 1.86438 319.9 1.20105C319.9 0.53773 320.437 -9.55354e-07 321.1 -9.26394e-07C321.762 -8.97434e-07 322.3 0.53773 322.3 1.20105C322.3 1.86438 321.762 2.40211 321.1 2.40211Z" fill="#E9E0D6"/>
<path d="M301.106 2.40211C300.444 2.40211 299.906 1.86438 299.906 1.20105C299.906 0.537729 300.444 -1.82931e-06 301.106 -1.80035e-06C301.769 -1.77139e-06 302.306 0.537729 302.306 1.20105C302.306 1.86438 301.769 2.40211 301.106 2.40211Z" fill="#E9E0D6"/>
<path d="M281.112 2.40211C280.45 2.40211 279.913 1.86438 279.913 1.20105C279.913 0.537728 280.45 -2.70326e-06 281.112 -2.6743e-06C281.775 -2.64534e-06 282.312 0.537728 282.312 1.20105C282.312 1.86438 281.775 2.40211 281.112 2.40211Z" fill="#E9E0D6"/>
<path d="M261.119 2.40211C260.456 2.40211 259.919 1.86438 259.919 1.20105C259.919 0.537727 260.456 -3.57722e-06 261.119 -3.54826e-06C261.781 -3.5193e-06 262.318 0.537727 262.318 1.20105C262.318 1.86438 261.781 2.40211 261.119 2.40211Z" fill="#E9E0D6"/>
<path d="M241.125 2.40211C240.462 2.40211 239.925 1.86438 239.925 1.20105C239.925 0.537726 240.462 -4.45117e-06 241.125 -4.42221e-06C241.787 -4.39325e-06 242.325 0.537726 242.325 1.20105C242.325 1.86438 241.787 2.40211 241.125 2.40211Z" fill="#E9E0D6"/>
<path d="M221.131 2.40211C220.469 2.40211 219.931 1.86437 219.931 1.20105C219.931 0.537725 220.469 -5.32513e-06 221.131 -5.29617e-06C221.794 -5.26721e-06 222.331 0.537725 222.331 1.20105C222.331 1.86437 221.794 2.40211 221.131 2.40211Z" fill="#E9E0D6"/>
<path d="M201.137 2.4021C200.475 2.4021 199.938 1.86437 199.938 1.20105C199.938 0.537724 200.475 -6.19909e-06 201.137 -6.17013e-06C201.8 -6.14117e-06 202.337 0.537725 202.337 1.20105C202.337 1.86437 201.8 2.4021 201.137 2.4021Z" fill="#E9E0D6"/>
<path d="M181.144 2.4021C180.481 2.4021 179.944 1.86437 179.944 1.20105C179.944 0.537724 180.481 -7.07304e-06 181.144 -7.04408e-06C181.806 -7.01512e-06 182.343 0.537724 182.343 1.20105C182.343 1.86437 181.806 2.4021 181.144 2.4021Z" fill="#E9E0D6"/>
<path d="M161.15 2.4021C160.487 2.4021 159.95 1.86437 159.95 1.20105C159.95 0.537723 160.487 -7.94699e-06 161.15 -7.91803e-06C161.812 -7.88907e-06 162.349 0.537723 162.349 1.20105C162.349 1.86437 161.812 2.4021 161.15 2.4021Z" fill="#E9E0D6"/>
<path d="M141.156 2.4021C140.494 2.4021 139.956 1.86437 139.956 1.20105C139.956 0.537722 140.494 -8.82095e-06 141.156 -8.79199e-06C141.819 -8.76303e-06 142.356 0.537722 142.356 1.20105C142.356 1.86437 141.819 2.4021 141.156 2.4021Z" fill="#E9E0D6"/>
<path d="M121.162 2.4021C120.5 2.4021 119.963 1.86437 119.963 1.20105C119.963 0.537721 120.5 -9.69491e-06 121.162 -9.66594e-06C121.825 -9.63698e-06 122.362 0.537721 122.362 1.20105C122.362 1.86437 121.825 2.4021 121.162 2.4021Z" fill="#E9E0D6"/>
<path d="M101.169 2.4021C100.506 2.4021 99.9688 1.86437 99.9688 1.20104C99.9688 0.53772 100.506 -1.05689e-05 101.169 -1.05399e-05C101.831 -1.05109e-05 102.368 0.53772 102.368 1.20104C102.368 1.86437 101.831 2.4021 101.169 2.4021Z" fill="#E9E0D6"/>
<path d="M81.1747 2.4021C80.5122 2.4021 79.9752 1.86437 79.9752 1.20104C79.9752 0.537719 80.5122 -1.14428e-05 81.1747 -1.14139e-05C81.8373 -1.13849e-05 82.3745 0.537719 82.3745 1.20104C82.3745 1.86437 81.8373 2.4021 81.1747 2.4021Z" fill="#E9E0D6"/>
<path d="M61.181 2.4021C60.5184 2.4021 59.9814 1.86437 59.9814 1.20104C59.9814 0.537718 60.5184 -1.23168e-05 61.181 -1.22878e-05C61.8435 -1.22589e-05 62.3807 0.537718 62.3807 1.20104C62.3807 1.86437 61.8435 2.4021 61.181 2.4021Z" fill="#E9E0D6"/>
<path d="M41.1872 2.4021C40.5247 2.4021 39.9876 1.86437 39.9876 1.20104C39.9876 0.537717 40.5247 -1.31907e-05 41.1872 -1.31618e-05C41.8497 -1.31328e-05 42.3869 0.537718 42.3869 1.20104C42.3869 1.86437 41.8497 2.4021 41.1872 2.4021Z" fill="#E9E0D6"/>
<path d="M21.1934 2.4021C20.5309 2.4021 19.9938 1.86437 19.9938 1.20104C19.9938 0.537717 20.5309 -1.40647e-05 21.1934 -1.40357e-05C21.856 -1.40068e-05 22.3931 0.537717 22.3931 1.20104C22.3931 1.86437 21.856 2.4021 21.1934 2.4021Z" fill="#E9E0D6"/>
<path d="M1.19977 2.4021C0.537231 2.4021 6.09537e-05 1.86436 6.09827e-05 1.20104C6.10117e-05 0.537716 0.537231 -1.49386e-05 1.19977 -1.49097e-05C1.8623 -1.48807e-05 2.39935 0.537716 2.39935 1.20104C2.39935 1.86436 1.8623 2.4021 1.19977 2.4021Z" fill="#E9E0D6"/>
<path d="M341.094 22.4197C340.431 22.4197 339.894 21.882 339.894 21.2186C339.894 20.5553 340.431 20.0176 341.094 20.0176C341.756 20.0176 342.293 20.5553 342.293 21.2186C342.293 21.882 341.756 22.4197 341.094 22.4197Z" fill="#E9E0D6"/>
<path d="M321.1 22.4197C320.437 22.4197 319.9 21.882 319.9 21.2186C319.9 20.5553 320.437 20.0176 321.1 20.0176C321.762 20.0176 322.3 20.5553 322.3 21.2186C322.3 21.882 321.762 22.4197 321.1 22.4197Z" fill="#E9E0D6"/>
<path d="M301.106 22.4197C300.444 22.4197 299.906 21.882 299.906 21.2186C299.906 20.5553 300.444 20.0176 301.106 20.0176C301.769 20.0176 302.306 20.5553 302.306 21.2186C302.306 21.882 301.769 22.4197 301.106 22.4197Z" fill="#E9E0D6"/>
<path d="M281.112 22.4197C280.45 22.4197 279.913 21.882 279.913 21.2186C279.913 20.5553 280.45 20.0176 281.112 20.0176C281.775 20.0176 282.312 20.5553 282.312 21.2186C282.312 21.882 281.775 22.4197 281.112 22.4197Z" fill="#E9E0D6"/>
<path d="M261.119 22.4197C260.456 22.4197 259.919 21.882 259.919 21.2186C259.919 20.5553 260.456 20.0176 261.119 20.0176C261.781 20.0176 262.318 20.5553 262.318 21.2186C262.318 21.882 261.781 22.4197 261.119 22.4197Z" fill="#E9E0D6"/>
<path d="M241.125 22.4197C240.462 22.4197 239.925 21.882 239.925 21.2186C239.925 20.5553 240.462 20.0176 241.125 20.0176C241.787 20.0176 242.325 20.5553 242.325 21.2186C242.325 21.882 241.787 22.4197 241.125 22.4197Z" fill="#E9E0D6"/>
<path d="M221.131 22.4197C220.469 22.4197 219.931 21.882 219.931 21.2186C219.931 20.5553 220.469 20.0176 221.131 20.0176C221.794 20.0176 222.331 20.5553 222.331 21.2186C222.331 21.882 221.794 22.4197 221.131 22.4197Z" fill="#E9E0D6"/>
<path d="M201.137 22.4197C200.475 22.4197 199.938 21.882 199.938 21.2186C199.938 20.5553 200.475 20.0176 201.137 20.0176C201.8 20.0176 202.337 20.5553 202.337 21.2186C202.337 21.882 201.8 22.4197 201.137 22.4197Z" fill="#E9E0D6"/>
<path d="M181.144 22.4197C180.481 22.4197 179.944 21.882 179.944 21.2186C179.944 20.5553 180.481 20.0176 181.144 20.0176C181.806 20.0176 182.343 20.5553 182.343 21.2186C182.343 21.882 181.806 22.4197 181.144 22.4197Z" fill="#E9E0D6"/>
<path d="M161.15 22.4197C160.487 22.4197 159.95 21.882 159.95 21.2186C159.95 20.5553 160.487 20.0176 161.15 20.0176C161.812 20.0176 162.349 20.5553 162.349 21.2186C162.349 21.882 161.812 22.4197 161.15 22.4197Z" fill="#E9E0D6"/>
<path d="M141.156 22.4197C140.494 22.4197 139.956 21.882 139.956 21.2186C139.956 20.5553 140.494 20.0176 141.156 20.0176C141.819 20.0176 142.356 20.5553 142.356 21.2186C142.356 21.882 141.819 22.4197 141.156 22.4197Z" fill="#E9E0D6"/>
<path d="M121.162 22.4197C120.5 22.4197 119.963 21.882 119.963 21.2186C119.963 20.5553 120.5 20.0176 121.162 20.0176C121.825 20.0176 122.362 20.5553 122.362 21.2186C122.362 21.882 121.825 22.4197 121.162 22.4197Z" fill="#E9E0D6"/>
<path d="M101.169 22.4197C100.506 22.4197 99.9688 21.882 99.9688 21.2186C99.9688 20.5553 100.506 20.0176 101.169 20.0176C101.831 20.0176 102.368 20.5553 102.368 21.2186C102.368 21.882 101.831 22.4197 101.169 22.4197Z" fill="#E9E0D6"/>
<path d="M81.1747 22.4197C80.5122 22.4197 79.9752 21.882 79.9752 21.2186C79.9752 20.5553 80.5122 20.0176 81.1747 20.0176C81.8373 20.0176 82.3744 20.5553 82.3744 21.2186C82.3744 21.882 81.8373 22.4197 81.1747 22.4197Z" fill="#E9E0D6"/>
<path d="M61.181 22.4197C60.5184 22.4197 59.9814 21.882 59.9814 21.2186C59.9814 20.5553 60.5184 20.0176 61.181 20.0176C61.8435 20.0176 62.3807 20.5553 62.3807 21.2186C62.3807 21.882 61.8435 22.4197 61.181 22.4197Z" fill="#E9E0D6"/>
<path d="M41.1872 22.4197C40.5247 22.4197 39.9876 21.882 39.9876 21.2186C39.9876 20.5553 40.5247 20.0176 41.1872 20.0176C41.8497 20.0176 42.3869 20.5553 42.3869 21.2186C42.3869 21.882 41.8497 22.4197 41.1872 22.4197Z" fill="#E9E0D6"/>
<path d="M21.1934 22.4197C20.5309 22.4197 19.9938 21.882 19.9938 21.2186C19.9938 20.5553 20.5309 20.0176 21.1934 20.0176C21.856 20.0176 22.3931 20.5553 22.3931 21.2186C22.3931 21.882 21.856 22.4197 21.1934 22.4197Z" fill="#E9E0D6"/>
<path d="M1.19977 22.4197C0.53723 22.4197 6.00787e-05 21.882 6.01077e-05 21.2186C6.01367e-05 20.5553 0.537231 20.0176 1.19977 20.0176C1.8623 20.0176 2.39935 20.5553 2.39935 21.2186C2.39935 21.882 1.8623 22.4197 1.19977 22.4197Z" fill="#E9E0D6"/>
<path d="M341.094 42.4373C340.431 42.4373 339.894 41.8996 339.894 41.2362C339.894 40.5729 340.431 40.0352 341.094 40.0352C341.756 40.0352 342.293 40.5729 342.293 41.2362C342.293 41.8996 341.756 42.4373 341.094 42.4373Z" fill="#E9E0D6"/>
<path d="M321.1 42.4373C320.437 42.4373 319.9 41.8996 319.9 41.2362C319.9 40.5729 320.437 40.0352 321.1 40.0352C321.762 40.0352 322.3 40.5729 322.3 41.2362C322.3 41.8996 321.762 42.4373 321.1 42.4373Z" fill="#E9E0D6"/>
<path d="M301.106 42.4373C300.444 42.4373 299.906 41.8996 299.906 41.2362C299.906 40.5729 300.444 40.0352 301.106 40.0352C301.769 40.0352 302.306 40.5729 302.306 41.2362C302.306 41.8996 301.769 42.4373 301.106 42.4373Z" fill="#E9E0D6"/>
<path d="M281.112 42.4373C280.45 42.4373 279.913 41.8996 279.913 41.2362C279.913 40.5729 280.45 40.0352 281.112 40.0352C281.775 40.0352 282.312 40.5729 282.312 41.2362C282.312 41.8996 281.775 42.4373 281.112 42.4373Z" fill="#E9E0D6"/>
<path d="M261.119 42.4373C260.456 42.4373 259.919 41.8996 259.919 41.2362C259.919 40.5729 260.456 40.0352 261.119 40.0352C261.781 40.0352 262.318 40.5729 262.318 41.2362C262.318 41.8996 261.781 42.4373 261.119 42.4373Z" fill="#E9E0D6"/>
<path d="M241.125 42.4373C240.462 42.4373 239.925 41.8996 239.925 41.2362C239.925 40.5729 240.462 40.0352 241.125 40.0352C241.787 40.0352 242.325 40.5729 242.325 41.2362C242.325 41.8996 241.787 42.4373 241.125 42.4373Z" fill="#E9E0D6"/>
<path d="M221.131 42.4373C220.469 42.4373 219.931 41.8995 219.931 41.2362C219.931 40.5729 220.469 40.0352 221.131 40.0352C221.794 40.0352 222.331 40.5729 222.331 41.2362C222.331 41.8995 221.794 42.4373 221.131 42.4373Z" fill="#E9E0D6"/>
<path d="M201.137 42.4373C200.475 42.4373 199.938 41.8995 199.938 41.2362C199.938 40.5729 200.475 40.0352 201.137 40.0352C201.8 40.0352 202.337 40.5729 202.337 41.2362C202.337 41.8995 201.8 42.4373 201.137 42.4373Z" fill="#E9E0D6"/>
<path d="M181.144 42.4373C180.481 42.4373 179.944 41.8995 179.944 41.2362C179.944 40.5729 180.481 40.0352 181.144 40.0352C181.806 40.0352 182.343 40.5729 182.343 41.2362C182.343 41.8995 181.806 42.4373 181.144 42.4373Z" fill="#E9E0D6"/>
<path d="M161.15 42.4373C160.487 42.4373 159.95 41.8995 159.95 41.2362C159.95 40.5729 160.487 40.0352 161.15 40.0352C161.812 40.0352 162.349 40.5729 162.349 41.2362C162.349 41.8995 161.812 42.4373 161.15 42.4373Z" fill="#E9E0D6"/>
<path d="M141.156 42.4373C140.494 42.4373 139.956 41.8995 139.956 41.2362C139.956 40.5729 140.494 40.0352 141.156 40.0352C141.819 40.0352 142.356 40.5729 142.356 41.2362C142.356 41.8995 141.819 42.4373 141.156 42.4373Z" fill="#E9E0D6"/>
<path d="M121.162 42.4373C120.5 42.4373 119.963 41.8995 119.963 41.2362C119.963 40.5729 120.5 40.0352 121.162 40.0352C121.825 40.0352 122.362 40.5729 122.362 41.2362C122.362 41.8995 121.825 42.4373 121.162 42.4373Z" fill="#E9E0D6"/>
<path d="M101.169 42.4373C100.506 42.4373 99.9688 41.8995 99.9688 41.2362C99.9688 40.5729 100.506 40.0352 101.169 40.0352C101.831 40.0352 102.368 40.5729 102.368 41.2362C102.368 41.8995 101.831 42.4373 101.169 42.4373Z" fill="#E9E0D6"/>
<path d="M81.1747 42.4373C80.5122 42.4373 79.9752 41.8995 79.9752 41.2362C79.9752 40.5729 80.5122 40.0352 81.1747 40.0352C81.8373 40.0352 82.3744 40.5729 82.3744 41.2362C82.3744 41.8995 81.8373 42.4373 81.1747 42.4373Z" fill="#E9E0D6"/>
<path d="M61.181 42.4373C60.5184 42.4373 59.9814 41.8995 59.9814 41.2362C59.9814 40.5729 60.5184 40.0352 61.181 40.0352C61.8435 40.0352 62.3807 40.5729 62.3807 41.2362C62.3807 41.8995 61.8435 42.4373 61.181 42.4373Z" fill="#E9E0D6"/>
<path d="M41.1872 42.4373C40.5247 42.4373 39.9876 41.8995 39.9876 41.2362C39.9876 40.5729 40.5247 40.0352 41.1872 40.0352C41.8497 40.0352 42.3869 40.5729 42.3869 41.2362C42.3869 41.8995 41.8497 42.4373 41.1872 42.4373Z" fill="#E9E0D6"/>
<path d="M21.1934 42.4373C20.5309 42.4373 19.9938 41.8995 19.9938 41.2362C19.9938 40.5729 20.5309 40.0352 21.1934 40.0352C21.856 40.0352 22.3931 40.5729 22.3931 41.2362C22.3931 41.8995 21.856 42.4373 21.1934 42.4373Z" fill="#E9E0D6"/>
<path d="M1.19977 42.4373C0.53723 42.4373 5.92037e-05 41.8995 5.92327e-05 41.2362C5.92617e-05 40.5729 0.53723 40.0352 1.19977 40.0352C1.8623 40.0352 2.39935 40.5729 2.39935 41.2362C2.39935 41.8995 1.8623 42.4373 1.19977 42.4373Z" fill="#E9E0D6"/>
<path d="M341.094 62.4549C340.431 62.4549 339.894 61.9171 339.894 61.2538C339.894 60.5905 340.431 60.0528 341.094 60.0528C341.756 60.0528 342.293 60.5905 342.293 61.2538C342.293 61.9171 341.756 62.4549 341.094 62.4549Z" fill="#E9E0D6"/>
<path d="M321.1 62.4549C320.437 62.4549 319.9 61.9171 319.9 61.2538C319.9 60.5905 320.437 60.0528 321.1 60.0528C321.762 60.0528 322.3 60.5905 322.3 61.2538C322.3 61.9171 321.762 62.4549 321.1 62.4549Z" fill="#E9E0D6"/>
<path d="M301.106 62.4549C300.444 62.4549 299.906 61.9171 299.906 61.2538C299.906 60.5905 300.444 60.0528 301.106 60.0528C301.769 60.0528 302.306 60.5905 302.306 61.2538C302.306 61.9171 301.769 62.4549 301.106 62.4549Z" fill="#E9E0D6"/>
<path d="M281.112 62.4549C280.45 62.4549 279.913 61.9171 279.913 61.2538C279.913 60.5905 280.45 60.0528 281.112 60.0528C281.775 60.0528 282.312 60.5905 282.312 61.2538C282.312 61.9171 281.775 62.4549 281.112 62.4549Z" fill="#E9E0D6"/>
<path d="M261.119 62.4549C260.456 62.4549 259.919 61.9171 259.919 61.2538C259.919 60.5905 260.456 60.0528 261.119 60.0528C261.781 60.0528 262.318 60.5905 262.318 61.2538C262.318 61.9171 261.781 62.4549 261.119 62.4549Z" fill="#E9E0D6"/>
<path d="M241.125 62.4549C240.462 62.4549 239.925 61.9171 239.925 61.2538C239.925 60.5905 240.462 60.0528 241.125 60.0528C241.787 60.0528 242.325 60.5905 242.325 61.2538C242.325 61.9171 241.787 62.4549 241.125 62.4549Z" fill="#E9E0D6"/>
<path d="M221.131 62.4549C220.469 62.4549 219.931 61.9171 219.931 61.2538C219.931 60.5905 220.469 60.0528 221.131 60.0528C221.794 60.0528 222.331 60.5905 222.331 61.2538C222.331 61.9171 221.794 62.4549 221.131 62.4549Z" fill="#E9E0D6"/>
<path d="M201.137 62.4549C200.475 62.4549 199.938 61.9171 199.938 61.2538C199.938 60.5905 200.475 60.0528 201.137 60.0528C201.8 60.0528 202.337 60.5905 202.337 61.2538C202.337 61.9171 201.8 62.4549 201.137 62.4549Z" fill="#E9E0D6"/>
<path d="M181.144 62.4549C180.481 62.4549 179.944 61.9171 179.944 61.2538C179.944 60.5905 180.481 60.0528 181.144 60.0528C181.806 60.0528 182.343 60.5905 182.343 61.2538C182.343 61.9171 181.806 62.4549 181.144 62.4549Z" fill="#E9E0D6"/>
<path d="M161.15 62.4549C160.487 62.4549 159.95 61.9171 159.95 61.2538C159.95 60.5905 160.487 60.0527 161.15 60.0527C161.812 60.0527 162.349 60.5905 162.349 61.2538C162.349 61.9171 161.812 62.4549 161.15 62.4549Z" fill="#E9E0D6"/>
<path d="M141.156 62.4549C140.494 62.4549 139.956 61.9171 139.956 61.2538C139.956 60.5905 140.494 60.0527 141.156 60.0527C141.819 60.0527 142.356 60.5905 142.356 61.2538C142.356 61.9171 141.819 62.4549 141.156 62.4549Z" fill="#E9E0D6"/>
<path d="M121.162 62.4549C120.5 62.4549 119.963 61.9171 119.963 61.2538C119.963 60.5905 120.5 60.0527 121.162 60.0527C121.825 60.0527 122.362 60.5905 122.362 61.2538C122.362 61.9171 121.825 62.4549 121.162 62.4549Z" fill="#E9E0D6"/>
<path d="M101.169 62.4549C100.506 62.4549 99.9688 61.9171 99.9688 61.2538C99.9688 60.5905 100.506 60.0527 101.169 60.0527C101.831 60.0527 102.368 60.5905 102.368 61.2538C102.368 61.9171 101.831 62.4549 101.169 62.4549Z" fill="#E9E0D6"/>
<path d="M81.1747 62.4549C80.5122 62.4549 79.9752 61.9171 79.9752 61.2538C79.9752 60.5905 80.5122 60.0527 81.1747 60.0527C81.8373 60.0527 82.3744 60.5905 82.3744 61.2538C82.3744 61.9171 81.8373 62.4549 81.1747 62.4549Z" fill="#E9E0D6"/>
<path d="M61.181 62.4549C60.5184 62.4549 59.9814 61.9171 59.9814 61.2538C59.9814 60.5905 60.5184 60.0527 61.181 60.0527C61.8435 60.0527 62.3807 60.5905 62.3807 61.2538C62.3807 61.9171 61.8435 62.4549 61.181 62.4549Z" fill="#E9E0D6"/>
<path d="M41.1872 62.4549C40.5247 62.4549 39.9876 61.9171 39.9876 61.2538C39.9876 60.5905 40.5247 60.0527 41.1872 60.0527C41.8497 60.0527 42.3869 60.5905 42.3869 61.2538C42.3869 61.9171 41.8497 62.4549 41.1872 62.4549Z" fill="#E9E0D6"/>
<path d="M21.1934 62.4549C20.5309 62.4549 19.9938 61.9171 19.9938 61.2538C19.9938 60.5905 20.5309 60.0527 21.1934 60.0527C21.856 60.0527 22.3931 60.5905 22.3931 61.2538C22.3931 61.9171 21.856 62.4549 21.1934 62.4549Z" fill="#E9E0D6"/>
<path d="M1.19977 62.4549C0.537229 62.4549 5.83287e-05 61.9171 5.83577e-05 61.2538C5.83867e-05 60.5905 0.537229 60.0527 1.19977 60.0527C1.8623 60.0527 2.39935 60.5905 2.39935 61.2538C2.39935 61.9171 1.8623 62.4549 1.19977 62.4549Z" fill="#E9E0D6"/>
<path d="M341.094 82.4725C340.431 82.4725 339.894 81.9347 339.894 81.2714C339.894 80.6081 340.431 80.0703 341.094 80.0703C341.756 80.0703 342.293 80.6081 342.293 81.2714C342.293 81.9347 341.756 82.4725 341.094 82.4725Z" fill="#E9E0D6"/>
<path d="M321.1 82.4725C320.437 82.4725 319.9 81.9347 319.9 81.2714C319.9 80.6081 320.437 80.0703 321.1 80.0703C321.762 80.0703 322.3 80.6081 322.3 81.2714C322.3 81.9347 321.762 82.4725 321.1 82.4725Z" fill="#E9E0D6"/>
<path d="M301.106 82.4725C300.444 82.4725 299.906 81.9347 299.906 81.2714C299.906 80.6081 300.444 80.0703 301.106 80.0703C301.769 80.0703 302.306 80.6081 302.306 81.2714C302.306 81.9347 301.769 82.4725 301.106 82.4725Z" fill="#E9E0D6"/>
<path d="M281.112 82.4725C280.45 82.4725 279.913 81.9347 279.913 81.2714C279.913 80.6081 280.45 80.0703 281.112 80.0703C281.775 80.0703 282.312 80.6081 282.312 81.2714C282.312 81.9347 281.775 82.4725 281.112 82.4725Z" fill="#E9E0D6"/>
<path d="M261.119 82.4725C260.456 82.4725 259.919 81.9347 259.919 81.2714C259.919 80.6081 260.456 80.0703 261.119 80.0703C261.781 80.0703 262.318 80.6081 262.318 81.2714C262.318 81.9347 261.781 82.4725 261.119 82.4725Z" fill="#E9E0D6"/>
<path d="M241.125 82.4725C240.462 82.4725 239.925 81.9347 239.925 81.2714C239.925 80.6081 240.462 80.0703 241.125 80.0703C241.787 80.0703 242.325 80.6081 242.325 81.2714C242.325 81.9347 241.787 82.4725 241.125 82.4725Z" fill="#E9E0D6"/>
<path d="M221.131 82.4725C220.469 82.4725 219.931 81.9347 219.931 81.2714C219.931 80.6081 220.469 80.0703 221.131 80.0703C221.794 80.0703 222.331 80.6081 222.331 81.2714C222.331 81.9347 221.794 82.4725 221.131 82.4725Z" fill="#E9E0D6"/>
<path d="M201.137 82.4725C200.475 82.4725 199.938 81.9347 199.938 81.2714C199.938 80.6081 200.475 80.0703 201.137 80.0703C201.8 80.0703 202.337 80.6081 202.337 81.2714C202.337 81.9347 201.8 82.4725 201.137 82.4725Z" fill="#E9E0D6"/>
<path d="M181.144 82.4725C180.481 82.4725 179.944 81.9347 179.944 81.2714C179.944 80.6081 180.481 80.0703 181.144 80.0703C181.806 80.0703 182.343 80.6081 182.343 81.2714C182.343 81.9347 181.806 82.4725 181.144 82.4725Z" fill="#E9E0D6"/>
<path d="M161.15 82.4724C160.487 82.4724 159.95 81.9347 159.95 81.2714C159.95 80.6081 160.487 80.0703 161.15 80.0703C161.812 80.0703 162.349 80.6081 162.349 81.2714C162.349 81.9347 161.812 82.4724 161.15 82.4724Z" fill="#E9E0D6"/>
<path d="M141.156 82.4724C140.494 82.4724 139.956 81.9347 139.956 81.2714C139.956 80.6081 140.494 80.0703 141.156 80.0703C141.819 80.0703 142.356 80.6081 142.356 81.2714C142.356 81.9347 141.819 82.4724 141.156 82.4724Z" fill="#E9E0D6"/>
<path d="M121.162 82.4724C120.5 82.4724 119.963 81.9347 119.963 81.2714C119.963 80.6081 120.5 80.0703 121.162 80.0703C121.825 80.0703 122.362 80.6081 122.362 81.2714C122.362 81.9347 121.825 82.4724 121.162 82.4724Z" fill="#E9E0D6"/>
<path d="M101.169 82.4724C100.506 82.4724 99.9688 81.9347 99.9688 81.2714C99.9688 80.6081 100.506 80.0703 101.169 80.0703C101.831 80.0703 102.368 80.6081 102.368 81.2714C102.368 81.9347 101.831 82.4724 101.169 82.4724Z" fill="#E9E0D6"/>
<path d="M81.1747 82.4724C80.5122 82.4724 79.9752 81.9347 79.9752 81.2714C79.9752 80.6081 80.5122 80.0703 81.1747 80.0703C81.8373 80.0703 82.3744 80.6081 82.3744 81.2714C82.3744 81.9347 81.8373 82.4724 81.1747 82.4724Z" fill="#E9E0D6"/>
<path d="M61.181 82.4724C60.5184 82.4724 59.9814 81.9347 59.9814 81.2714C59.9814 80.6081 60.5184 80.0703 61.181 80.0703C61.8435 80.0703 62.3807 80.6081 62.3807 81.2714C62.3807 81.9347 61.8435 82.4724 61.181 82.4724Z" fill="#E9E0D6"/>
<path d="M41.1872 82.4724C40.5247 82.4724 39.9876 81.9347 39.9876 81.2714C39.9876 80.6081 40.5247 80.0703 41.1872 80.0703C41.8497 80.0703 42.3869 80.6081 42.3869 81.2714C42.3869 81.9347 41.8497 82.4724 41.1872 82.4724Z" fill="#E9E0D6"/>
<path d="M21.1934 82.4724C20.5309 82.4724 19.9938 81.9347 19.9938 81.2714C19.9938 80.6081 20.5309 80.0703 21.1934 80.0703C21.856 80.0703 22.3931 80.6081 22.3931 81.2714C22.3931 81.9347 21.856 82.4724 21.1934 82.4724Z" fill="#E9E0D6"/>
<path d="M1.19976 82.4724C0.537228 82.4724 5.74537e-05 81.9347 5.74827e-05 81.2714C5.75117e-05 80.6081 0.537228 80.0703 1.19976 80.0703C1.8623 80.0703 2.39935 80.6081 2.39935 81.2714C2.39935 81.9347 1.8623 82.4724 1.19976 82.4724Z" fill="#E9E0D6"/>
<path d="M341.094 102.49C340.431 102.49 339.894 101.952 339.894 101.289C339.894 100.626 340.431 100.088 341.094 100.088C341.756 100.088 342.293 100.626 342.293 101.289C342.293 101.952 341.756 102.49 341.094 102.49Z" fill="#E9E0D6"/>
<path d="M321.1 102.49C320.437 102.49 319.9 101.952 319.9 101.289C319.9 100.626 320.437 100.088 321.1 100.088C321.762 100.088 322.3 100.626 322.3 101.289C322.3 101.952 321.762 102.49 321.1 102.49Z" fill="#E9E0D6"/>
<path d="M301.106 102.49C300.444 102.49 299.906 101.952 299.906 101.289C299.906 100.626 300.444 100.088 301.106 100.088C301.769 100.088 302.306 100.626 302.306 101.289C302.306 101.952 301.769 102.49 301.106 102.49Z" fill="#E9E0D6"/>
<path d="M281.112 102.49C280.45 102.49 279.913 101.952 279.913 101.289C279.913 100.626 280.45 100.088 281.112 100.088C281.775 100.088 282.312 100.626 282.312 101.289C282.312 101.952 281.775 102.49 281.112 102.49Z" fill="#E9E0D6"/>
<path d="M261.119 102.49C260.456 102.49 259.919 101.952 259.919 101.289C259.919 100.626 260.456 100.088 261.119 100.088C261.781 100.088 262.318 100.626 262.318 101.289C262.318 101.952 261.781 102.49 261.119 102.49Z" fill="#E9E0D6"/>
<path d="M241.125 102.49C240.462 102.49 239.925 101.952 239.925 101.289C239.925 100.626 240.462 100.088 241.125 100.088C241.787 100.088 242.325 100.626 242.325 101.289C242.325 101.952 241.787 102.49 241.125 102.49Z" fill="#E9E0D6"/>
<path d="M221.131 102.49C220.469 102.49 219.931 101.952 219.931 101.289C219.931 100.626 220.469 100.088 221.131 100.088C221.794 100.088 222.331 100.626 222.331 101.289C222.331 101.952 221.794 102.49 221.131 102.49Z" fill="#E9E0D6"/>
<path d="M201.137 102.49C200.475 102.49 199.938 101.952 199.938 101.289C199.938 100.626 200.475 100.088 201.137 100.088C201.8 100.088 202.337 100.626 202.337 101.289C202.337 101.952 201.8 102.49 201.137 102.49Z" fill="#E9E0D6"/>
<path d="M181.144 102.49C180.481 102.49 179.944 101.952 179.944 101.289C179.944 100.626 180.481 100.088 181.144 100.088C181.806 100.088 182.343 100.626 182.343 101.289C182.343 101.952 181.806 102.49 181.144 102.49Z" fill="#E9E0D6"/>
<path d="M161.15 102.49C160.487 102.49 159.95 101.952 159.95 101.289C159.95 100.626 160.487 100.088 161.15 100.088C161.812 100.088 162.349 100.626 162.349 101.289C162.349 101.952 161.812 102.49 161.15 102.49Z" fill="#E9E0D6"/>
<path d="M141.156 102.49C140.494 102.49 139.956 101.952 139.956 101.289C139.956 100.626 140.494 100.088 141.156 100.088C141.819 100.088 142.356 100.626 142.356 101.289C142.356 101.952 141.819 102.49 141.156 102.49Z" fill="#E9E0D6"/>
<path d="M121.162 102.49C120.5 102.49 119.963 101.952 119.963 101.289C119.963 100.626 120.5 100.088 121.162 100.088C121.825 100.088 122.362 100.626 122.362 101.289C122.362 101.952 121.825 102.49 121.162 102.49Z" fill="#E9E0D6"/>
<path d="M101.169 102.49C100.506 102.49 99.9688 101.952 99.9688 101.289C99.9688 100.626 100.506 100.088 101.169 100.088C101.831 100.088 102.368 100.626 102.368 101.289C102.368 101.952 101.831 102.49 101.169 102.49Z" fill="#E9E0D6"/>
<path d="M81.1747 102.49C80.5122 102.49 79.9752 101.952 79.9752 101.289C79.9752 100.626 80.5122 100.088 81.1747 100.088C81.8373 100.088 82.3744 100.626 82.3744 101.289C82.3744 101.952 81.8373 102.49 81.1747 102.49Z" fill="#E9E0D6"/>
<path d="M61.181 102.49C60.5184 102.49 59.9814 101.952 59.9814 101.289C59.9814 100.626 60.5184 100.088 61.181 100.088C61.8435 100.088 62.3807 100.626 62.3807 101.289C62.3807 101.952 61.8435 102.49 61.181 102.49Z" fill="#E9E0D6"/>
<path d="M41.1872 102.49C40.5247 102.49 39.9876 101.952 39.9876 101.289C39.9876 100.626 40.5247 100.088 41.1872 100.088C41.8497 100.088 42.3869 100.626 42.3869 101.289C42.3869 101.952 41.8497 102.49 41.1872 102.49Z" fill="#E9E0D6"/>
<path d="M21.1934 102.49C20.5309 102.49 19.9938 101.952 19.9938 101.289C19.9938 100.626 20.5309 100.088 21.1934 100.088C21.856 100.088 22.3931 100.626 22.3931 101.289C22.3931 101.952 21.856 102.49 21.1934 102.49Z" fill="#E9E0D6"/>
<path d="M1.19976 102.49C0.537227 102.49 5.65787e-05 101.952 5.66077e-05 101.289C5.66367e-05 100.626 0.537227 100.088 1.19976 100.088C1.8623 100.088 2.39935 100.626 2.39935 101.289C2.39935 101.952 1.8623 102.49 1.19976 102.49Z" fill="#E9E0D6"/>
<path d="M341.094 122.508C340.431 122.508 339.894 121.97 339.894 121.307C339.894 120.643 340.431 120.106 341.094 120.106C341.756 120.106 342.293 120.643 342.293 121.307C342.293 121.97 341.756 122.508 341.094 122.508Z" fill="#E9E0D6"/>
<path d="M321.1 122.508C320.437 122.508 319.9 121.97 319.9 121.307C319.9 120.643 320.437 120.106 321.1 120.106C321.762 120.106 322.3 120.643 322.3 121.307C322.3 121.97 321.762 122.508 321.1 122.508Z" fill="#E9E0D6"/>
<path d="M301.106 122.508C300.444 122.508 299.906 121.97 299.906 121.307C299.906 120.643 300.444 120.106 301.106 120.106C301.769 120.106 302.306 120.643 302.306 121.307C302.306 121.97 301.769 122.508 301.106 122.508Z" fill="#E9E0D6"/>
<path d="M281.112 122.508C280.45 122.508 279.913 121.97 279.913 121.307C279.913 120.643 280.45 120.106 281.112 120.106C281.775 120.106 282.312 120.643 282.312 121.307C282.312 121.97 281.775 122.508 281.112 122.508Z" fill="#E9E0D6"/>
<path d="M261.119 122.508C260.456 122.508 259.919 121.97 259.919 121.307C259.919 120.643 260.456 120.106 261.119 120.106C261.781 120.106 262.318 120.643 262.318 121.307C262.318 121.97 261.781 122.508 261.119 122.508Z" fill="#E9E0D6"/>
<path d="M241.125 122.508C240.462 122.508 239.925 121.97 239.925 121.307C239.925 120.643 240.462 120.106 241.125 120.106C241.787 120.106 242.325 120.643 242.325 121.307C242.325 121.97 241.787 122.508 241.125 122.508Z" fill="#E9E0D6"/>
<path d="M221.131 122.508C220.469 122.508 219.931 121.97 219.931 121.307C219.931 120.643 220.469 120.106 221.131 120.106C221.794 120.106 222.331 120.643 222.331 121.307C222.331 121.97 221.794 122.508 221.131 122.508Z" fill="#E9E0D6"/>
<path d="M201.137 122.508C200.475 122.508 199.938 121.97 199.938 121.307C199.938 120.643 200.475 120.106 201.137 120.106C201.8 120.106 202.337 120.643 202.337 121.307C202.337 121.97 201.8 122.508 201.137 122.508Z" fill="#E9E0D6"/>
<path d="M181.144 122.508C180.481 122.508 179.944 121.97 179.944 121.307C179.944 120.643 180.481 120.106 181.144 120.106C181.806 120.106 182.343 120.643 182.343 121.307C182.343 121.97 181.806 122.508 181.144 122.508Z" fill="#E9E0D6"/>
<path d="M161.15 122.508C160.487 122.508 159.95 121.97 159.95 121.307C159.95 120.643 160.487 120.106 161.15 120.106C161.812 120.106 162.349 120.643 162.349 121.307C162.349 121.97 161.812 122.508 161.15 122.508Z" fill="#E9E0D6"/>
<path d="M141.156 122.508C140.494 122.508 139.956 121.97 139.956 121.307C139.956 120.643 140.494 120.106 141.156 120.106C141.819 120.106 142.356 120.643 142.356 121.307C142.356 121.97 141.819 122.508 141.156 122.508Z" fill="#E9E0D6"/>
<path d="M121.162 122.508C120.5 122.508 119.963 121.97 119.963 121.307C119.963 120.643 120.5 120.106 121.162 120.106C121.825 120.106 122.362 120.643 122.362 121.307C122.362 121.97 121.825 122.508 121.162 122.508Z" fill="#E9E0D6"/>
<path d="M101.169 122.508C100.506 122.508 99.9688 121.97 99.9688 121.307C99.9688 120.643 100.506 120.106 101.169 120.106C101.831 120.106 102.368 120.643 102.368 121.307C102.368 121.97 101.831 122.508 101.169 122.508Z" fill="#E9E0D6"/>
<path d="M81.1747 122.508C80.5122 122.508 79.9752 121.97 79.9752 121.307C79.9752 120.643 80.5122 120.106 81.1747 120.106C81.8373 120.106 82.3744 120.643 82.3744 121.307C82.3744 121.97 81.8373 122.508 81.1747 122.508Z" fill="#E9E0D6"/>
<path d="M61.181 122.508C60.5184 122.508 59.9814 121.97 59.9814 121.307C59.9814 120.643 60.5184 120.106 61.181 120.106C61.8435 120.106 62.3807 120.643 62.3807 121.307C62.3807 121.97 61.8435 122.508 61.181 122.508Z" fill="#E9E0D6"/>
<path d="M41.1872 122.508C40.5247 122.508 39.9876 121.97 39.9876 121.307C39.9876 120.643 40.5247 120.106 41.1872 120.106C41.8497 120.106 42.3869 120.643 42.3869 121.307C42.3869 121.97 41.8497 122.508 41.1872 122.508Z" fill="#E9E0D6"/>
<path d="M21.1934 122.508C20.5309 122.508 19.9938 121.97 19.9938 121.307C19.9938 120.643 20.5309 120.106 21.1934 120.106C21.856 120.106 22.3931 120.643 22.3931 121.307C22.3931 121.97 21.856 122.508 21.1934 122.508Z" fill="#E9E0D6"/>
<path d="M1.19976 122.508C0.537226 122.508 5.57037e-05 121.97 5.57327e-05 121.307C5.57617e-05 120.643 0.537226 120.105 1.19976 120.105C1.8623 120.105 2.39935 120.643 2.39935 121.307C2.39935 121.97 1.8623 122.508 1.19976 122.508Z" fill="#E9E0D6"/>
<path d="M341.094 142.525C340.431 142.525 339.894 141.988 339.894 141.324C339.894 140.661 340.431 140.123 341.094 140.123C341.756 140.123 342.293 140.661 342.293 141.324C342.293 141.988 341.756 142.525 341.094 142.525Z" fill="#E9E0D6"/>
<path d="M321.1 142.525C320.437 142.525 319.9 141.988 319.9 141.324C319.9 140.661 320.437 140.123 321.1 140.123C321.762 140.123 322.3 140.661 322.3 141.324C322.3 141.988 321.762 142.525 321.1 142.525Z" fill="#E9E0D6"/>
<path d="M301.106 142.525C300.444 142.525 299.906 141.988 299.906 141.324C299.906 140.661 300.444 140.123 301.106 140.123C301.769 140.123 302.306 140.661 302.306 141.324C302.306 141.988 301.769 142.525 301.106 142.525Z" fill="#E9E0D6"/>
<path d="M281.112 142.525C280.45 142.525 279.913 141.988 279.913 141.324C279.913 140.661 280.45 140.123 281.112 140.123C281.775 140.123 282.312 140.661 282.312 141.324C282.312 141.988 281.775 142.525 281.112 142.525Z" fill="#E9E0D6"/>
<path d="M261.119 142.525C260.456 142.525 259.919 141.987 259.919 141.324C259.919 140.661 260.456 140.123 261.119 140.123C261.781 140.123 262.318 140.661 262.318 141.324C262.318 141.987 261.781 142.525 261.119 142.525Z" fill="#E9E0D6"/>
<path d="M241.125 142.525C240.462 142.525 239.925 141.987 239.925 141.324C239.925 140.661 240.462 140.123 241.125 140.123C241.787 140.123 242.325 140.661 242.325 141.324C242.325 141.987 241.787 142.525 241.125 142.525Z" fill="#E9E0D6"/>
<path d="M221.131 142.525C220.468 142.525 219.931 141.987 219.931 141.324C219.931 140.661 220.468 140.123 221.131 140.123C221.794 140.123 222.331 140.661 222.331 141.324C222.331 141.987 221.794 142.525 221.131 142.525Z" fill="#E9E0D6"/>
<path d="M201.137 142.525C200.475 142.525 199.938 141.987 199.938 141.324C199.938 140.661 200.475 140.123 201.137 140.123C201.8 140.123 202.337 140.661 202.337 141.324C202.337 141.987 201.8 142.525 201.137 142.525Z" fill="#E9E0D6"/>
<path d="M181.144 142.525C180.481 142.525 179.944 141.987 179.944 141.324C179.944 140.661 180.481 140.123 181.144 140.123C181.806 140.123 182.343 140.661 182.343 141.324C182.343 141.987 181.806 142.525 181.144 142.525Z" fill="#E9E0D6"/>
<path d="M161.15 142.525C160.487 142.525 159.95 141.987 159.95 141.324C159.95 140.661 160.487 140.123 161.15 140.123C161.812 140.123 162.349 140.661 162.349 141.324C162.349 141.987 161.812 142.525 161.15 142.525Z" fill="#E9E0D6"/>
<path d="M141.156 142.525C140.494 142.525 139.956 141.987 139.956 141.324C139.956 140.661 140.494 140.123 141.156 140.123C141.819 140.123 142.356 140.661 142.356 141.324C142.356 141.987 141.819 142.525 141.156 142.525Z" fill="#E9E0D6"/>
<path d="M121.162 142.525C120.5 142.525 119.963 141.987 119.963 141.324C119.963 140.661 120.5 140.123 121.162 140.123C121.825 140.123 122.362 140.661 122.362 141.324C122.362 141.987 121.825 142.525 121.162 142.525Z" fill="#E9E0D6"/>
<path d="M101.169 142.525C100.506 142.525 99.9688 141.987 99.9688 141.324C99.9688 140.661 100.506 140.123 101.169 140.123C101.831 140.123 102.368 140.661 102.368 141.324C102.368 141.987 101.831 142.525 101.169 142.525Z" fill="#E9E0D6"/>
<path d="M81.1747 142.525C80.5122 142.525 79.9752 141.987 79.9752 141.324C79.9752 140.661 80.5122 140.123 81.1747 140.123C81.8373 140.123 82.3744 140.661 82.3744 141.324C82.3744 141.987 81.8373 142.525 81.1747 142.525Z" fill="#E9E0D6"/>
<path d="M61.181 142.525C60.5184 142.525 59.9814 141.987 59.9814 141.324C59.9814 140.661 60.5184 140.123 61.181 140.123C61.8435 140.123 62.3807 140.661 62.3807 141.324C62.3807 141.987 61.8435 142.525 61.181 142.525Z" fill="#E9E0D6"/>
<path d="M41.1872 142.525C40.5247 142.525 39.9876 141.987 39.9876 141.324C39.9876 140.661 40.5247 140.123 41.1872 140.123C41.8497 140.123 42.3869 140.661 42.3869 141.324C42.3869 141.987 41.8497 142.525 41.1872 142.525Z" fill="#E9E0D6"/>
<path d="M21.1934 142.525C20.5309 142.525 19.9938 141.987 19.9938 141.324C19.9938 140.661 20.5309 140.123 21.1934 140.123C21.856 140.123 22.3931 140.661 22.3931 141.324C22.3931 141.987 21.856 142.525 21.1934 142.525Z" fill="#E9E0D6"/>
<path d="M1.19976 142.525C0.537225 142.525 5.48287e-05 141.987 5.48577e-05 141.324C5.48867e-05 140.661 0.537225 140.123 1.19976 140.123C1.8623 140.123 2.39935 140.661 2.39935 141.324C2.39935 141.987 1.8623 142.525 1.19976 142.525Z" fill="#E9E0D6"/>
<path d="M341.094 162.543C340.431 162.543 339.894 162.005 339.894 161.342C339.894 160.678 340.431 160.141 341.094 160.141C341.756 160.141 342.293 160.678 342.293 161.342C342.293 162.005 341.756 162.543 341.094 162.543Z" fill="#E9E0D6"/>
<path d="M321.1 162.543C320.437 162.543 319.9 162.005 319.9 161.342C319.9 160.678 320.437 160.141 321.1 160.141C321.762 160.141 322.3 160.678 322.3 161.342C322.3 162.005 321.762 162.543 321.1 162.543Z" fill="#E9E0D6"/>
<path d="M301.106 162.543C300.444 162.543 299.906 162.005 299.906 161.342C299.906 160.678 300.444 160.141 301.106 160.141C301.769 160.141 302.306 160.678 302.306 161.342C302.306 162.005 301.769 162.543 301.106 162.543Z" fill="#E9E0D6"/>
<path d="M281.112 162.543C280.45 162.543 279.913 162.005 279.913 161.342C279.913 160.678 280.45 160.141 281.112 160.141C281.775 160.141 282.312 160.678 282.312 161.342C282.312 162.005 281.775 162.543 281.112 162.543Z" fill="#E9E0D6"/>
<path d="M261.119 162.543C260.456 162.543 259.919 162.005 259.919 161.342C259.919 160.678 260.456 160.141 261.119 160.141C261.781 160.141 262.318 160.678 262.318 161.342C262.318 162.005 261.781 162.543 261.119 162.543Z" fill="#E9E0D6"/>
<path d="M241.125 162.543C240.462 162.543 239.925 162.005 239.925 161.342C239.925 160.678 240.462 160.141 241.125 160.141C241.787 160.141 242.325 160.678 242.325 161.342C242.325 162.005 241.787 162.543 241.125 162.543Z" fill="#E9E0D6"/>
<path d="M221.131 162.543C220.468 162.543 219.931 162.005 219.931 161.342C219.931 160.678 220.468 160.141 221.131 160.141C221.794 160.141 222.331 160.678 222.331 161.342C222.331 162.005 221.794 162.543 221.131 162.543Z" fill="#E9E0D6"/>
<path d="M201.137 162.543C200.475 162.543 199.938 162.005 199.938 161.342C199.938 160.678 200.475 160.141 201.137 160.141C201.8 160.141 202.337 160.678 202.337 161.342C202.337 162.005 201.8 162.543 201.137 162.543Z" fill="#E9E0D6"/>
<path d="M181.144 162.543C180.481 162.543 179.944 162.005 179.944 161.342C179.944 160.678 180.481 160.141 181.144 160.141C181.806 160.141 182.343 160.678 182.343 161.342C182.343 162.005 181.806 162.543 181.144 162.543Z" fill="#E9E0D6"/>
<path d="M161.15 162.543C160.487 162.543 159.95 162.005 159.95 161.342C159.95 160.678 160.487 160.141 161.15 160.141C161.812 160.141 162.349 160.678 162.349 161.342C162.349 162.005 161.812 162.543 161.15 162.543Z" fill="#E9E0D6"/>
<path d="M141.156 162.543C140.494 162.543 139.956 162.005 139.956 161.342C139.956 160.678 140.494 160.141 141.156 160.141C141.819 160.141 142.356 160.678 142.356 161.342C142.356 162.005 141.819 162.543 141.156 162.543Z" fill="#E9E0D6"/>
<path d="M121.162 162.543C120.5 162.543 119.963 162.005 119.963 161.342C119.963 160.678 120.5 160.141 121.162 160.141C121.825 160.141 122.362 160.678 122.362 161.342C122.362 162.005 121.825 162.543 121.162 162.543Z" fill="#E9E0D6"/>
<path d="M101.169 162.543C100.506 162.543 99.9688 162.005 99.9688 161.342C99.9688 160.678 100.506 160.141 101.169 160.141C101.831 160.141 102.368 160.678 102.368 161.342C102.368 162.005 101.831 162.543 101.169 162.543Z" fill="#E9E0D6"/>
<path d="M81.1747 162.543C80.5122 162.543 79.9752 162.005 79.9752 161.342C79.9752 160.678 80.5122 160.141 81.1747 160.141C81.8373 160.141 82.3744 160.678 82.3744 161.342C82.3744 162.005 81.8373 162.543 81.1747 162.543Z" fill="#E9E0D6"/>
<path d="M61.181 162.543C60.5184 162.543 59.9814 162.005 59.9814 161.342C59.9814 160.678 60.5184 160.141 61.181 160.141C61.8435 160.141 62.3807 160.678 62.3807 161.342C62.3807 162.005 61.8435 162.543 61.181 162.543Z" fill="#E9E0D6"/>
<path d="M41.1872 162.543C40.5247 162.543 39.9876 162.005 39.9876 161.342C39.9876 160.678 40.5247 160.141 41.1872 160.141C41.8497 160.141 42.3869 160.678 42.3869 161.342C42.3869 162.005 41.8497 162.543 41.1872 162.543Z" fill="#E9E0D6"/>
<path d="M21.1934 162.543C20.5309 162.543 19.9938 162.005 19.9938 161.342C19.9938 160.678 20.5309 160.141 21.1934 160.141C21.856 160.141 22.3931 160.678 22.3931 161.342C22.3931 162.005 21.8559 162.543 21.1934 162.543Z" fill="#E9E0D6"/>
<path d="M1.19976 162.543C0.537224 162.543 5.39537e-05 162.005 5.39827e-05 161.342C5.40117e-05 160.678 0.537224 160.141 1.19976 160.141C1.8623 160.141 2.39935 160.678 2.39935 161.342C2.39935 162.005 1.8623 162.543 1.19976 162.543Z" fill="#E9E0D6"/>
<path d="M341.094 182.56C340.431 182.56 339.894 182.023 339.894 181.359C339.894 180.696 340.431 180.158 341.094 180.158C341.756 180.158 342.293 180.696 342.293 181.359C342.293 182.023 341.756 182.56 341.094 182.56Z" fill="#E9E0D6"/>
<path d="M321.1 182.56C320.437 182.56 319.9 182.023 319.9 181.359C319.9 180.696 320.437 180.158 321.1 180.158C321.762 180.158 322.3 180.696 322.3 181.359C322.3 182.023 321.762 182.56 321.1 182.56Z" fill="#E9E0D6"/>
<path d="M301.106 182.56C300.444 182.56 299.906 182.023 299.906 181.359C299.906 180.696 300.444 180.158 301.106 180.158C301.769 180.158 302.306 180.696 302.306 181.359C302.306 182.023 301.769 182.56 301.106 182.56Z" fill="#E9E0D6"/>
<path d="M281.112 182.56C280.45 182.56 279.913 182.023 279.913 181.359C279.913 180.696 280.45 180.158 281.112 180.158C281.775 180.158 282.312 180.696 282.312 181.359C282.312 182.023 281.775 182.56 281.112 182.56Z" fill="#E9E0D6"/>
<path d="M261.119 182.56C260.456 182.56 259.919 182.023 259.919 181.359C259.919 180.696 260.456 180.158 261.119 180.158C261.781 180.158 262.318 180.696 262.318 181.359C262.318 182.023 261.781 182.56 261.119 182.56Z" fill="#E9E0D6"/>
<path d="M241.125 182.56C240.462 182.56 239.925 182.023 239.925 181.359C239.925 180.696 240.462 180.158 241.125 180.158C241.787 180.158 242.325 180.696 242.325 181.359C242.325 182.023 241.787 182.56 241.125 182.56Z" fill="#E9E0D6"/>
<path d="M221.131 182.56C220.468 182.56 219.931 182.023 219.931 181.359C219.931 180.696 220.468 180.158 221.131 180.158C221.794 180.158 222.331 180.696 222.331 181.359C222.331 182.023 221.794 182.56 221.131 182.56Z" fill="#E9E0D6"/>
<path d="M201.137 182.56C200.475 182.56 199.938 182.023 199.938 181.359C199.938 180.696 200.475 180.158 201.137 180.158C201.8 180.158 202.337 180.696 202.337 181.359C202.337 182.023 201.8 182.56 201.137 182.56Z" fill="#E9E0D6"/>
<path d="M181.144 182.56C180.481 182.56 179.944 182.023 179.944 181.359C179.944 180.696 180.481 180.158 181.144 180.158C181.806 180.158 182.343 180.696 182.343 181.359C182.343 182.023 181.806 182.56 181.144 182.56Z" fill="#E9E0D6"/>
<path d="M161.15 182.56C160.487 182.56 159.95 182.023 159.95 181.359C159.95 180.696 160.487 180.158 161.15 180.158C161.812 180.158 162.349 180.696 162.349 181.359C162.349 182.023 161.812 182.56 161.15 182.56Z" fill="#E9E0D6"/>
<path d="M141.156 182.56C140.494 182.56 139.956 182.023 139.956 181.359C139.956 180.696 140.494 180.158 141.156 180.158C141.819 180.158 142.356 180.696 142.356 181.359C142.356 182.023 141.819 182.56 141.156 182.56Z" fill="#E9E0D6"/>
<path d="M121.162 182.56C120.5 182.56 119.963 182.023 119.963 181.359C119.963 180.696 120.5 180.158 121.162 180.158C121.825 180.158 122.362 180.696 122.362 181.359C122.362 182.023 121.825 182.56 121.162 182.56Z" fill="#E9E0D6"/>
<path d="M101.169 182.56C100.506 182.56 99.9688 182.023 99.9688 181.359C99.9688 180.696 100.506 180.158 101.169 180.158C101.831 180.158 102.368 180.696 102.368 181.359C102.368 182.023 101.831 182.56 101.169 182.56Z" fill="#E9E0D6"/>
<path d="M81.1747 182.56C80.5122 182.56 79.9752 182.023 79.9752 181.359C79.9752 180.696 80.5122 180.158 81.1747 180.158C81.8373 180.158 82.3744 180.696 82.3744 181.359C82.3744 182.023 81.8373 182.56 81.1747 182.56Z" fill="#E9E0D6"/>
<path d="M61.181 182.56C60.5184 182.56 59.9814 182.023 59.9814 181.359C59.9814 180.696 60.5184 180.158 61.181 180.158C61.8435 180.158 62.3807 180.696 62.3807 181.359C62.3807 182.023 61.8435 182.56 61.181 182.56Z" fill="#E9E0D6"/>
<path d="M41.1872 182.56C40.5247 182.56 39.9876 182.023 39.9876 181.359C39.9876 180.696 40.5247 180.158 41.1872 180.158C41.8497 180.158 42.3869 180.696 42.3869 181.359C42.3869 182.023 41.8497 182.56 41.1872 182.56Z" fill="#E9E0D6"/>
<path d="M21.1934 182.56C20.5309 182.56 19.9938 182.023 19.9938 181.359C19.9938 180.696 20.5309 180.158 21.1934 180.158C21.8559 180.158 22.3931 180.696 22.3931 181.359C22.3931 182.023 21.8559 182.56 21.1934 182.56Z" fill="#E9E0D6"/>
<path d="M1.19976 182.56C0.537223 182.56 5.30787e-05 182.023 5.31077e-05 181.359C5.31367e-05 180.696 0.537224 180.158 1.19976 180.158C1.8623 180.158 2.39935 180.696 2.39935 181.359C2.39935 182.023 1.8623 182.56 1.19976 182.56Z" fill="#E9E0D6"/>
<path d="M341.094 202.578C340.431 202.578 339.894 202.04 339.894 201.377C339.894 200.714 340.431 200.176 341.094 200.176C341.756 200.176 342.293 200.714 342.293 201.377C342.293 202.04 341.756 202.578 341.094 202.578Z" fill="#E9E0D6"/>
<path d="M321.1 202.578C320.437 202.578 319.9 202.04 319.9 201.377C319.9 200.714 320.437 200.176 321.1 200.176C321.762 200.176 322.3 200.714 322.3 201.377C322.3 202.04 321.762 202.578 321.1 202.578Z" fill="#E9E0D6"/>
<path d="M301.106 202.578C300.444 202.578 299.906 202.04 299.906 201.377C299.906 200.714 300.444 200.176 301.106 200.176C301.769 200.176 302.306 200.714 302.306 201.377C302.306 202.04 301.769 202.578 301.106 202.578Z" fill="#E9E0D6"/>
<path d="M281.112 202.578C280.45 202.578 279.913 202.04 279.913 201.377C279.913 200.714 280.45 200.176 281.112 200.176C281.775 200.176 282.312 200.714 282.312 201.377C282.312 202.04 281.775 202.578 281.112 202.578Z" fill="#E9E0D6"/>
<path d="M261.119 202.578C260.456 202.578 259.919 202.04 259.919 201.377C259.919 200.714 260.456 200.176 261.119 200.176C261.781 200.176 262.318 200.714 262.318 201.377C262.318 202.04 261.781 202.578 261.119 202.578Z" fill="#E9E0D6"/>
<path d="M241.125 202.578C240.462 202.578 239.925 202.04 239.925 201.377C239.925 200.714 240.462 200.176 241.125 200.176C241.787 200.176 242.325 200.714 242.325 201.377C242.325 202.04 241.787 202.578 241.125 202.578Z" fill="#E9E0D6"/>
<path d="M221.131 202.578C220.468 202.578 219.931 202.04 219.931 201.377C219.931 200.714 220.468 200.176 221.131 200.176C221.794 200.176 222.331 200.714 222.331 201.377C222.331 202.04 221.794 202.578 221.131 202.578Z" fill="#E9E0D6"/>
<path d="M201.137 202.578C200.475 202.578 199.938 202.04 199.938 201.377C199.938 200.714 200.475 200.176 201.137 200.176C201.8 200.176 202.337 200.714 202.337 201.377C202.337 202.04 201.8 202.578 201.137 202.578Z" fill="#E9E0D6"/>
<path d="M181.144 202.578C180.481 202.578 179.944 202.04 179.944 201.377C179.944 200.714 180.481 200.176 181.144 200.176C181.806 200.176 182.343 200.714 182.343 201.377C182.343 202.04 181.806 202.578 181.144 202.578Z" fill="#E9E0D6"/>
<path d="M161.15 202.578C160.487 202.578 159.95 202.04 159.95 201.377C159.95 200.714 160.487 200.176 161.15 200.176C161.812 200.176 162.349 200.714 162.349 201.377C162.349 202.04 161.812 202.578 161.15 202.578Z" fill="#E9E0D6"/>
<path d="M141.156 202.578C140.494 202.578 139.956 202.04 139.956 201.377C139.956 200.714 140.494 200.176 141.156 200.176C141.819 200.176 142.356 200.714 142.356 201.377C142.356 202.04 141.819 202.578 141.156 202.578Z" fill="#E9E0D6"/>
<path d="M121.162 202.578C120.5 202.578 119.963 202.04 119.963 201.377C119.963 200.714 120.5 200.176 121.162 200.176C121.825 200.176 122.362 200.714 122.362 201.377C122.362 202.04 121.825 202.578 121.162 202.578Z" fill="#E9E0D6"/>
<path d="M101.169 202.578C100.506 202.578 99.9688 202.04 99.9688 201.377C99.9688 200.714 100.506 200.176 101.169 200.176C101.831 200.176 102.368 200.714 102.368 201.377C102.368 202.04 101.831 202.578 101.169 202.578Z" fill="#E9E0D6"/>
<path d="M81.1747 202.578C80.5122 202.578 79.9751 202.04 79.9751 201.377C79.9751 200.714 80.5122 200.176 81.1747 200.176C81.8373 200.176 82.3744 200.714 82.3744 201.377C82.3744 202.04 81.8373 202.578 81.1747 202.578Z" fill="#E9E0D6"/>
<path d="M61.181 202.578C60.5184 202.578 59.9814 202.04 59.9814 201.377C59.9814 200.714 60.5184 200.176 61.181 200.176C61.8435 200.176 62.3807 200.714 62.3807 201.377C62.3807 202.04 61.8435 202.578 61.181 202.578Z" fill="#E9E0D6"/>
<path d="M41.1872 202.578C40.5246 202.578 39.9876 202.04 39.9876 201.377C39.9876 200.714 40.5246 200.176 41.1872 200.176C41.8497 200.176 42.3869 200.714 42.3869 201.377C42.3869 202.04 41.8497 202.578 41.1872 202.578Z" fill="#E9E0D6"/>
<path d="M21.1934 202.578C20.5309 202.578 19.9938 202.04 19.9938 201.377C19.9938 200.714 20.5309 200.176 21.1934 200.176C21.8559 200.176 22.3931 200.714 22.3931 201.377C22.3931 202.04 21.8559 202.578 21.1934 202.578Z" fill="#E9E0D6"/>
<path d="M1.19976 202.578C0.537223 202.578 5.22037e-05 202.04 5.22327e-05 201.377C5.22617e-05 200.714 0.537223 200.176 1.19976 200.176C1.8623 200.176 2.39934 200.714 2.39934 201.377C2.39934 202.04 1.8623 202.578 1.19976 202.578Z" fill="#E9E0D6"/>
</svg>
