<svg width="243" height="133" viewBox="0 0 243 133" fill="none" xmlns="http://www.w3.org/2000/svg">
<path d="M241.125 -67.5979C240.462 -67.5979 239.925 -68.1356 239.925 -68.7989C239.925 -69.4623 240.462 -70 241.125 -70C241.787 -70 242.324 -69.4623 242.324 -68.7989C242.324 -68.1356 241.787 -67.5979 241.125 -67.5979Z" fill="#E9E0D6"/>
<path d="M221.131 -67.5979C220.468 -67.5979 219.931 -68.1356 219.931 -68.7989C219.931 -69.4623 220.468 -70 221.131 -70C221.794 -70 222.331 -69.4623 222.331 -68.7989C222.331 -68.1356 221.794 -67.5979 221.131 -67.5979Z" fill="#E9E0D6"/>
<path d="M201.137 -67.5979C200.475 -67.5979 199.938 -68.1356 199.938 -68.7989C199.938 -69.4623 200.475 -70 201.137 -70C201.8 -70 202.337 -69.4623 202.337 -68.7989C202.337 -68.1356 201.8 -67.5979 201.137 -67.5979Z" fill="#E9E0D6"/>
<path d="M181.144 -67.5979C180.481 -67.5979 179.944 -68.1356 179.944 -68.7989C179.944 -69.4623 180.481 -70 181.144 -70C181.806 -70 182.343 -69.4623 182.343 -68.7989C182.343 -68.1356 181.806 -67.5979 181.144 -67.5979Z" fill="#E9E0D6"/>
<path d="M161.15 -67.5979C160.487 -67.5979 159.95 -68.1356 159.95 -68.7989C159.95 -69.4623 160.487 -70 161.15 -70C161.812 -70 162.349 -69.4623 162.349 -68.7989C162.349 -68.1356 161.812 -67.5979 161.15 -67.5979Z" fill="#E9E0D6"/>
<path d="M141.156 -67.5979C140.493 -67.5979 139.956 -68.1356 139.956 -68.7989C139.956 -69.4623 140.493 -70 141.156 -70C141.819 -70 142.356 -69.4623 142.356 -68.7989C142.356 -68.1356 141.819 -67.5979 141.156 -67.5979Z" fill="#E9E0D6"/>
<path d="M121.162 -67.5979C120.5 -67.5979 119.963 -68.1356 119.963 -68.799C119.963 -69.4623 120.5 -70 121.162 -70C121.825 -70 122.362 -69.4623 122.362 -68.799C122.362 -68.1356 121.825 -67.5979 121.162 -67.5979Z" fill="#E9E0D6"/>
<path d="M101.168 -67.5979C100.506 -67.5979 99.9687 -68.1356 99.9687 -68.799C99.9687 -69.4623 100.506 -70 101.168 -70C101.831 -70 102.368 -69.4623 102.368 -68.799C102.368 -68.1356 101.831 -67.5979 101.168 -67.5979Z" fill="#E9E0D6"/>
<path d="M81.1747 -67.5979C80.5121 -67.5979 79.9751 -68.1356 79.9751 -68.799C79.9751 -69.4623 80.5121 -70 81.1747 -70C81.8372 -70 82.3744 -69.4623 82.3744 -68.799C82.3744 -68.1356 81.8372 -67.5979 81.1747 -67.5979Z" fill="#E9E0D6"/>
<path d="M61.1809 -67.5979C60.5184 -67.5979 59.9813 -68.1356 59.9813 -68.799C59.9813 -69.4623 60.5184 -70 61.1809 -70C61.8434 -70 62.3806 -69.4623 62.3806 -68.799C62.3806 -68.1356 61.8434 -67.5979 61.1809 -67.5979Z" fill="#E9E0D6"/>
<path d="M41.1871 -67.5979C40.5246 -67.5979 39.9875 -68.1356 39.9875 -68.799C39.9875 -69.4623 40.5246 -70 41.1871 -70C41.8497 -70 42.3868 -69.4623 42.3868 -68.799C42.3868 -68.1356 41.8497 -67.5979 41.1871 -67.5979Z" fill="#E9E0D6"/>
<path d="M21.1934 -67.5979C20.5308 -67.5979 19.9938 -68.1356 19.9938 -68.799C19.9938 -69.4623 20.5308 -70 21.1934 -70C21.8559 -70 22.3931 -69.4623 22.3931 -68.799C22.3931 -68.1356 21.8559 -67.5979 21.1934 -67.5979Z" fill="#E9E0D6"/>
<path d="M1.19971 -67.5979C0.53717 -67.5979 -8.14946e-08 -68.1356 -5.24998e-08 -68.799C-2.3505e-08 -69.4623 0.53717 -70 1.19971 -70C1.86224 -70 2.39929 -69.4623 2.39929 -68.799C2.39929 -68.1356 1.86224 -67.5979 1.19971 -67.5979Z" fill="#E9E0D6"/>
<path d="M241.125 -47.5803C240.462 -47.5803 239.925 -48.118 239.925 -48.7814C239.925 -49.4447 240.462 -49.9824 241.125 -49.9824C241.787 -49.9824 242.324 -49.4447 242.324 -48.7814C242.324 -48.118 241.787 -47.5803 241.125 -47.5803Z" fill="#E9E0D6"/>
<path d="M221.131 -47.5803C220.468 -47.5803 219.931 -48.118 219.931 -48.7814C219.931 -49.4447 220.468 -49.9824 221.131 -49.9824C221.794 -49.9824 222.331 -49.4447 222.331 -48.7814C222.331 -48.118 221.794 -47.5803 221.131 -47.5803Z" fill="#E9E0D6"/>
<path d="M201.137 -47.5803C200.475 -47.5803 199.938 -48.118 199.938 -48.7814C199.938 -49.4447 200.475 -49.9824 201.137 -49.9824C201.8 -49.9824 202.337 -49.4447 202.337 -48.7814C202.337 -48.118 201.8 -47.5803 201.137 -47.5803Z" fill="#E9E0D6"/>
<path d="M181.144 -47.5803C180.481 -47.5803 179.944 -48.118 179.944 -48.7814C179.944 -49.4447 180.481 -49.9824 181.144 -49.9824C181.806 -49.9824 182.343 -49.4447 182.343 -48.7814C182.343 -48.118 181.806 -47.5803 181.144 -47.5803Z" fill="#E9E0D6"/>
<path d="M161.15 -47.5803C160.487 -47.5803 159.95 -48.118 159.95 -48.7814C159.95 -49.4447 160.487 -49.9824 161.15 -49.9824C161.812 -49.9824 162.349 -49.4447 162.349 -48.7814C162.349 -48.118 161.812 -47.5803 161.15 -47.5803Z" fill="#E9E0D6"/>
<path d="M141.156 -47.5803C140.493 -47.5803 139.956 -48.118 139.956 -48.7814C139.956 -49.4447 140.493 -49.9824 141.156 -49.9824C141.819 -49.9824 142.356 -49.4447 142.356 -48.7814C142.356 -48.118 141.819 -47.5803 141.156 -47.5803Z" fill="#E9E0D6"/>
<path d="M121.162 -47.5803C120.5 -47.5803 119.963 -48.118 119.963 -48.7814C119.963 -49.4447 120.5 -49.9824 121.162 -49.9824C121.825 -49.9824 122.362 -49.4447 122.362 -48.7814C122.362 -48.118 121.825 -47.5803 121.162 -47.5803Z" fill="#E9E0D6"/>
<path d="M101.168 -47.5803C100.506 -47.5803 99.9687 -48.118 99.9687 -48.7814C99.9687 -49.4447 100.506 -49.9824 101.168 -49.9824C101.831 -49.9824 102.368 -49.4447 102.368 -48.7814C102.368 -48.118 101.831 -47.5803 101.168 -47.5803Z" fill="#E9E0D6"/>
<path d="M81.1747 -47.5803C80.5121 -47.5803 79.9751 -48.118 79.9751 -48.7814C79.9751 -49.4447 80.5121 -49.9824 81.1747 -49.9824C81.8372 -49.9824 82.3744 -49.4447 82.3744 -48.7814C82.3744 -48.118 81.8372 -47.5803 81.1747 -47.5803Z" fill="#E9E0D6"/>
<path d="M61.1809 -47.5803C60.5184 -47.5803 59.9813 -48.118 59.9813 -48.7814C59.9813 -49.4447 60.5184 -49.9824 61.1809 -49.9824C61.8434 -49.9824 62.3806 -49.4447 62.3806 -48.7814C62.3806 -48.118 61.8434 -47.5803 61.1809 -47.5803Z" fill="#E9E0D6"/>
<path d="M41.1871 -47.5803C40.5246 -47.5803 39.9875 -48.118 39.9875 -48.7814C39.9875 -49.4447 40.5246 -49.9824 41.1871 -49.9824C41.8497 -49.9824 42.3868 -49.4447 42.3868 -48.7814C42.3868 -48.118 41.8497 -47.5803 41.1871 -47.5803Z" fill="#E9E0D6"/>
<path d="M21.1934 -47.5803C20.5308 -47.5803 19.9938 -48.118 19.9938 -48.7814C19.9938 -49.4447 20.5308 -49.9824 21.1934 -49.9824C21.8559 -49.9824 22.3931 -49.4447 22.3931 -48.7814C22.3931 -48.118 21.8559 -47.5803 21.1934 -47.5803Z" fill="#E9E0D6"/>
<path d="M1.19971 -47.5803C0.537169 -47.5803 -9.56491e-07 -48.118 -9.27496e-07 -48.7814C-8.98501e-07 -49.4447 0.53717 -49.9824 1.19971 -49.9824C1.86224 -49.9824 2.39929 -49.4447 2.39929 -48.7814C2.39929 -48.118 1.86224 -47.5803 1.19971 -47.5803Z" fill="#E9E0D6"/>
<path d="M241.125 -27.5627C240.462 -27.5627 239.925 -28.1004 239.925 -28.7638C239.925 -29.4271 240.462 -29.9648 241.125 -29.9648C241.787 -29.9648 242.324 -29.4271 242.324 -28.7638C242.324 -28.1004 241.787 -27.5627 241.125 -27.5627Z" fill="#E9E0D6"/>
<path d="M221.131 -27.5627C220.468 -27.5627 219.931 -28.1004 219.931 -28.7638C219.931 -29.4271 220.468 -29.9648 221.131 -29.9648C221.794 -29.9648 222.331 -29.4271 222.331 -28.7638C222.331 -28.1004 221.794 -27.5627 221.131 -27.5627Z" fill="#E9E0D6"/>
<path d="M201.137 -27.5627C200.475 -27.5627 199.938 -28.1004 199.938 -28.7638C199.938 -29.4271 200.475 -29.9648 201.137 -29.9648C201.8 -29.9648 202.337 -29.4271 202.337 -28.7638C202.337 -28.1004 201.8 -27.5627 201.137 -27.5627Z" fill="#E9E0D6"/>
<path d="M181.144 -27.5627C180.481 -27.5627 179.944 -28.1004 179.944 -28.7638C179.944 -29.4271 180.481 -29.9648 181.144 -29.9648C181.806 -29.9648 182.343 -29.4271 182.343 -28.7638C182.343 -28.1004 181.806 -27.5627 181.144 -27.5627Z" fill="#E9E0D6"/>
<path d="M161.15 -27.5627C160.487 -27.5627 159.95 -28.1004 159.95 -28.7638C159.95 -29.4271 160.487 -29.9648 161.15 -29.9648C161.812 -29.9648 162.349 -29.4271 162.349 -28.7638C162.349 -28.1004 161.812 -27.5627 161.15 -27.5627Z" fill="#E9E0D6"/>
<path d="M141.156 -27.5627C140.493 -27.5627 139.956 -28.1004 139.956 -28.7638C139.956 -29.4271 140.493 -29.9648 141.156 -29.9648C141.819 -29.9648 142.356 -29.4271 142.356 -28.7638C142.356 -28.1004 141.819 -27.5627 141.156 -27.5627Z" fill="#E9E0D6"/>
<path d="M121.162 -27.5627C120.5 -27.5627 119.963 -28.1005 119.963 -28.7638C119.963 -29.4271 120.5 -29.9648 121.162 -29.9648C121.825 -29.9648 122.362 -29.4271 122.362 -28.7638C122.362 -28.1005 121.825 -27.5627 121.162 -27.5627Z" fill="#E9E0D6"/>
<path d="M101.168 -27.5627C100.506 -27.5627 99.9687 -28.1005 99.9687 -28.7638C99.9687 -29.4271 100.506 -29.9648 101.168 -29.9648C101.831 -29.9648 102.368 -29.4271 102.368 -28.7638C102.368 -28.1005 101.831 -27.5627 101.168 -27.5627Z" fill="#E9E0D6"/>
<path d="M81.1747 -27.5627C80.5121 -27.5627 79.9751 -28.1005 79.9751 -28.7638C79.9751 -29.4271 80.5121 -29.9648 81.1747 -29.9648C81.8372 -29.9648 82.3744 -29.4271 82.3744 -28.7638C82.3744 -28.1005 81.8372 -27.5627 81.1747 -27.5627Z" fill="#E9E0D6"/>
<path d="M61.1809 -27.5627C60.5184 -27.5627 59.9813 -28.1005 59.9813 -28.7638C59.9813 -29.4271 60.5184 -29.9648 61.1809 -29.9648C61.8434 -29.9648 62.3806 -29.4271 62.3806 -28.7638C62.3806 -28.1005 61.8434 -27.5627 61.1809 -27.5627Z" fill="#E9E0D6"/>
<path d="M41.1871 -27.5627C40.5246 -27.5627 39.9875 -28.1005 39.9875 -28.7638C39.9875 -29.4271 40.5246 -29.9648 41.1871 -29.9648C41.8497 -29.9648 42.3868 -29.4271 42.3868 -28.7638C42.3868 -28.1005 41.8497 -27.5627 41.1871 -27.5627Z" fill="#E9E0D6"/>
<path d="M21.1934 -27.5627C20.5308 -27.5627 19.9938 -28.1005 19.9938 -28.7638C19.9938 -29.4271 20.5308 -29.9648 21.1934 -29.9648C21.8559 -29.9648 22.3931 -29.4271 22.3931 -28.7638C22.3931 -28.1005 21.8559 -27.5627 21.1934 -27.5627Z" fill="#E9E0D6"/>
<path d="M1.19971 -27.5627C0.537169 -27.5627 -1.83149e-06 -28.1005 -1.80249e-06 -28.7638C-1.7735e-06 -29.4271 0.537169 -29.9648 1.19971 -29.9648C1.86224 -29.9648 2.39929 -29.4271 2.39929 -28.7638C2.39929 -28.1005 1.86224 -27.5627 1.19971 -27.5627Z" fill="#E9E0D6"/>
<path d="M241.125 -7.54513C240.462 -7.54513 239.925 -8.08286 239.925 -8.74618C239.925 -9.40951 240.462 -9.94724 241.125 -9.94724C241.787 -9.94724 242.324 -9.40951 242.324 -8.74618C242.324 -8.08286 241.787 -7.54513 241.125 -7.54513Z" fill="#E9E0D6"/>
<path d="M221.131 -7.54513C220.468 -7.54513 219.931 -8.08286 219.931 -8.74618C219.931 -9.40951 220.468 -9.94724 221.131 -9.94724C221.794 -9.94724 222.331 -9.40951 222.331 -8.74618C222.331 -8.08286 221.794 -7.54513 221.131 -7.54513Z" fill="#E9E0D6"/>
<path d="M201.137 -7.54513C200.475 -7.54513 199.938 -8.08286 199.938 -8.74618C199.938 -9.40951 200.475 -9.94724 201.137 -9.94724C201.8 -9.94724 202.337 -9.40951 202.337 -8.74618C202.337 -8.08286 201.8 -7.54513 201.137 -7.54513Z" fill="#E9E0D6"/>
<path d="M181.144 -7.54513C180.481 -7.54513 179.944 -8.08286 179.944 -8.74618C179.944 -9.40951 180.481 -9.94725 181.144 -9.94725C181.806 -9.94725 182.343 -9.40951 182.343 -8.74618C182.343 -8.08286 181.806 -7.54513 181.144 -7.54513Z" fill="#E9E0D6"/>
<path d="M161.15 -7.54513C160.487 -7.54513 159.95 -8.08286 159.95 -8.74619C159.95 -9.40951 160.487 -9.94725 161.15 -9.94725C161.812 -9.94725 162.349 -9.40951 162.349 -8.74618C162.349 -8.08286 161.812 -7.54513 161.15 -7.54513Z" fill="#E9E0D6"/>
<path d="M141.156 -7.54513C140.493 -7.54513 139.956 -8.08286 139.956 -8.74619C139.956 -9.40951 140.493 -9.94725 141.156 -9.94725C141.819 -9.94725 142.356 -9.40951 142.356 -8.74619C142.356 -8.08286 141.819 -7.54513 141.156 -7.54513Z" fill="#E9E0D6"/>
<path d="M121.162 -7.54513C120.5 -7.54513 119.963 -8.08286 119.963 -8.74619C119.963 -9.40951 120.5 -9.94725 121.162 -9.94725C121.825 -9.94725 122.362 -9.40951 122.362 -8.74619C122.362 -8.08286 121.825 -7.54513 121.162 -7.54513Z" fill="#E9E0D6"/>
<path d="M101.168 -7.54513C100.506 -7.54513 99.9687 -8.08286 99.9687 -8.74619C99.9687 -9.40951 100.506 -9.94725 101.168 -9.94725C101.831 -9.94725 102.368 -9.40951 102.368 -8.74619C102.368 -8.08286 101.831 -7.54513 101.168 -7.54513Z" fill="#E9E0D6"/>
<path d="M81.1747 -7.54513C80.5121 -7.54513 79.9751 -8.08286 79.9751 -8.74619C79.9751 -9.40951 80.5121 -9.94725 81.1747 -9.94725C81.8372 -9.94725 82.3744 -9.40951 82.3744 -8.74619C82.3744 -8.08286 81.8372 -7.54513 81.1747 -7.54513Z" fill="#E9E0D6"/>
<path d="M61.1809 -7.54514C60.5184 -7.54514 59.9813 -8.08286 59.9813 -8.74619C59.9813 -9.40952 60.5184 -9.94725 61.1809 -9.94725C61.8434 -9.94725 62.3806 -9.40952 62.3806 -8.74619C62.3806 -8.08286 61.8434 -7.54514 61.1809 -7.54514Z" fill="#E9E0D6"/>
<path d="M41.1871 -7.54514C40.5246 -7.54514 39.9875 -8.08286 39.9875 -8.74619C39.9875 -9.40952 40.5246 -9.94725 41.1871 -9.94725C41.8497 -9.94725 42.3868 -9.40952 42.3868 -8.74619C42.3868 -8.08286 41.8497 -7.54514 41.1871 -7.54514Z" fill="#E9E0D6"/>
<path d="M21.1934 -7.54514C20.5308 -7.54514 19.9938 -8.08286 19.9938 -8.74619C19.9938 -9.40952 20.5308 -9.94725 21.1934 -9.94725C21.8559 -9.94725 22.3931 -9.40952 22.3931 -8.74619C22.3931 -8.08286 21.8559 -7.54514 21.1934 -7.54514Z" fill="#E9E0D6"/>
<path d="M1.1997 -7.54514C0.537168 -7.54514 -2.70648e-06 -8.08287 -2.67749e-06 -8.74619C-2.64849e-06 -9.40952 0.537168 -9.94725 1.1997 -9.94725C1.86224 -9.94725 2.39929 -9.40952 2.39929 -8.74619C2.39929 -8.08287 1.86224 -7.54514 1.1997 -7.54514Z" fill="#E9E0D6"/>
<path d="M241.125 12.4725C240.462 12.4725 239.925 11.9347 239.925 11.2714C239.925 10.6081 240.462 10.0703 241.125 10.0703C241.787 10.0703 242.324 10.6081 242.324 11.2714C242.324 11.9347 241.787 12.4725 241.125 12.4725Z" fill="#E9E0D6"/>
<path d="M221.131 12.4725C220.468 12.4725 219.931 11.9347 219.931 11.2714C219.931 10.6081 220.468 10.0703 221.131 10.0703C221.794 10.0703 222.331 10.6081 222.331 11.2714C222.331 11.9347 221.794 12.4725 221.131 12.4725Z" fill="#E9E0D6"/>
<path d="M201.137 12.4725C200.475 12.4725 199.938 11.9347 199.938 11.2714C199.938 10.6081 200.475 10.0703 201.137 10.0703C201.8 10.0703 202.337 10.6081 202.337 11.2714C202.337 11.9347 201.8 12.4725 201.137 12.4725Z" fill="#E9E0D6"/>
<path d="M181.144 12.4725C180.481 12.4725 179.944 11.9347 179.944 11.2714C179.944 10.6081 180.481 10.0703 181.144 10.0703C181.806 10.0703 182.343 10.6081 182.343 11.2714C182.343 11.9347 181.806 12.4725 181.144 12.4725Z" fill="#E9E0D6"/>
<path d="M161.15 12.4725C160.487 12.4725 159.95 11.9347 159.95 11.2714C159.95 10.6081 160.487 10.0703 161.15 10.0703C161.812 10.0703 162.349 10.6081 162.349 11.2714C162.349 11.9347 161.812 12.4725 161.15 12.4725Z" fill="#E9E0D6"/>
<path d="M141.156 12.4725C140.493 12.4725 139.956 11.9347 139.956 11.2714C139.956 10.6081 140.493 10.0703 141.156 10.0703C141.819 10.0703 142.356 10.6081 142.356 11.2714C142.356 11.9347 141.819 12.4725 141.156 12.4725Z" fill="#E9E0D6"/>
<path d="M121.162 12.4725C120.5 12.4725 119.963 11.9347 119.963 11.2714C119.963 10.6081 120.5 10.0703 121.162 10.0703C121.825 10.0703 122.362 10.6081 122.362 11.2714C122.362 11.9347 121.825 12.4725 121.162 12.4725Z" fill="#E9E0D6"/>
<path d="M101.168 12.4725C100.506 12.4725 99.9687 11.9347 99.9687 11.2714C99.9687 10.6081 100.506 10.0703 101.168 10.0703C101.831 10.0703 102.368 10.6081 102.368 11.2714C102.368 11.9347 101.831 12.4725 101.168 12.4725Z" fill="#E9E0D6"/>
<path d="M81.1747 12.4725C80.5121 12.4725 79.9751 11.9347 79.9751 11.2714C79.9751 10.6081 80.5121 10.0703 81.1747 10.0703C81.8372 10.0703 82.3744 10.6081 82.3744 11.2714C82.3744 11.9347 81.8372 12.4725 81.1747 12.4725Z" fill="#E9E0D6"/>
<path d="M61.1809 12.4724C60.5184 12.4724 59.9813 11.9347 59.9813 11.2714C59.9813 10.6081 60.5184 10.0703 61.1809 10.0703C61.8434 10.0703 62.3806 10.6081 62.3806 11.2714C62.3806 11.9347 61.8434 12.4724 61.1809 12.4724Z" fill="#E9E0D6"/>
<path d="M41.1871 12.4724C40.5246 12.4724 39.9875 11.9347 39.9875 11.2714C39.9875 10.6081 40.5246 10.0703 41.1871 10.0703C41.8497 10.0703 42.3868 10.6081 42.3868 11.2714C42.3868 11.9347 41.8497 12.4724 41.1871 12.4724Z" fill="#E9E0D6"/>
<path d="M21.1934 12.4724C20.5308 12.4724 19.9938 11.9347 19.9938 11.2714C19.9938 10.6081 20.5308 10.0703 21.1934 10.0703C21.8559 10.0703 22.3931 10.6081 22.3931 11.2714C22.3931 11.9347 21.8559 12.4724 21.1934 12.4724Z" fill="#E9E0D6"/>
<path d="M1.1997 12.4724C0.537167 12.4724 -3.58148e-06 11.9347 -3.55249e-06 11.2714C-3.52349e-06 10.6081 0.537167 10.0703 1.1997 10.0703C1.86224 10.0703 2.39929 10.6081 2.39929 11.2714C2.39929 11.9347 1.86224 12.4724 1.1997 12.4724Z" fill="#E9E0D6"/>
<path d="M241.125 32.49C240.462 32.49 239.925 31.9523 239.925 31.289C239.925 30.6257 240.462 30.0879 241.125 30.0879C241.787 30.0879 242.324 30.6257 242.324 31.289C242.324 31.9523 241.787 32.49 241.125 32.49Z" fill="#E9E0D6"/>
<path d="M221.131 32.49C220.468 32.49 219.931 31.9523 219.931 31.289C219.931 30.6257 220.468 30.0879 221.131 30.0879C221.794 30.0879 222.331 30.6257 222.331 31.289C222.331 31.9523 221.794 32.49 221.131 32.49Z" fill="#E9E0D6"/>
<path d="M201.137 32.49C200.475 32.49 199.938 31.9523 199.938 31.289C199.938 30.6257 200.475 30.0879 201.137 30.0879C201.8 30.0879 202.337 30.6257 202.337 31.289C202.337 31.9523 201.8 32.49 201.137 32.49Z" fill="#E9E0D6"/>
<path d="M181.144 32.49C180.481 32.49 179.944 31.9523 179.944 31.289C179.944 30.6257 180.481 30.0879 181.144 30.0879C181.806 30.0879 182.343 30.6257 182.343 31.289C182.343 31.9523 181.806 32.49 181.144 32.49Z" fill="#E9E0D6"/>
<path d="M161.15 32.49C160.487 32.49 159.95 31.9523 159.95 31.289C159.95 30.6257 160.487 30.0879 161.15 30.0879C161.812 30.0879 162.349 30.6257 162.349 31.289C162.349 31.9523 161.812 32.49 161.15 32.49Z" fill="#E9E0D6"/>
<path d="M141.156 32.49C140.493 32.49 139.956 31.9523 139.956 31.289C139.956 30.6257 140.493 30.0879 141.156 30.0879C141.819 30.0879 142.356 30.6257 142.356 31.289C142.356 31.9523 141.819 32.49 141.156 32.49Z" fill="#E9E0D6"/>
<path d="M121.162 32.49C120.5 32.49 119.963 31.9523 119.963 31.289C119.963 30.6257 120.5 30.0879 121.162 30.0879C121.825 30.0879 122.362 30.6257 122.362 31.289C122.362 31.9523 121.825 32.49 121.162 32.49Z" fill="#E9E0D6"/>
<path d="M101.168 32.49C100.506 32.49 99.9687 31.9523 99.9687 31.289C99.9687 30.6257 100.506 30.0879 101.168 30.0879C101.831 30.0879 102.368 30.6257 102.368 31.289C102.368 31.9523 101.831 32.49 101.168 32.49Z" fill="#E9E0D6"/>
<path d="M81.1747 32.49C80.5121 32.49 79.9751 31.9523 79.9751 31.289C79.9751 30.6257 80.5121 30.0879 81.1747 30.0879C81.8372 30.0879 82.3744 30.6257 82.3744 31.289C82.3744 31.9523 81.8372 32.49 81.1747 32.49Z" fill="#E9E0D6"/>
<path d="M61.1809 32.49C60.5184 32.49 59.9813 31.9523 59.9813 31.289C59.9813 30.6257 60.5184 30.0879 61.1809 30.0879C61.8434 30.0879 62.3806 30.6257 62.3806 31.289C62.3806 31.9523 61.8434 32.49 61.1809 32.49Z" fill="#E9E0D6"/>
<path d="M41.1871 32.49C40.5246 32.49 39.9875 31.9523 39.9875 31.289C39.9875 30.6257 40.5246 30.0879 41.1871 30.0879C41.8497 30.0879 42.3868 30.6257 42.3868 31.289C42.3868 31.9523 41.8497 32.49 41.1871 32.49Z" fill="#E9E0D6"/>
<path d="M21.1934 32.49C20.5308 32.49 19.9938 31.9523 19.9938 31.289C19.9938 30.6257 20.5308 30.0879 21.1934 30.0879C21.8559 30.0879 22.3931 30.6257 22.3931 31.289C22.3931 31.9523 21.8559 32.49 21.1934 32.49Z" fill="#E9E0D6"/>
<path d="M1.1997 32.49C0.537166 32.49 -4.45648e-06 31.9523 -4.42748e-06 31.289C-4.39849e-06 30.6257 0.537166 30.0879 1.1997 30.0879C1.86224 30.0879 2.39929 30.6257 2.39929 31.289C2.39929 31.9523 1.86224 32.49 1.1997 32.49Z" fill="#E9E0D6"/>
<path d="M241.125 52.5076C240.462 52.5076 239.925 51.9699 239.925 51.3066C239.925 50.6432 240.462 50.1055 241.125 50.1055C241.787 50.1055 242.324 50.6432 242.324 51.3066C242.324 51.9699 241.787 52.5076 241.125 52.5076Z" fill="#E9E0D6"/>
<path d="M221.131 52.5076C220.468 52.5076 219.931 51.9699 219.931 51.3066C219.931 50.6432 220.468 50.1055 221.131 50.1055C221.794 50.1055 222.331 50.6432 222.331 51.3066C222.331 51.9699 221.794 52.5076 221.131 52.5076Z" fill="#E9E0D6"/>
<path d="M201.137 52.5076C200.475 52.5076 199.938 51.9699 199.938 51.3066C199.938 50.6432 200.475 50.1055 201.137 50.1055C201.8 50.1055 202.337 50.6432 202.337 51.3066C202.337 51.9699 201.8 52.5076 201.137 52.5076Z" fill="#E9E0D6"/>
<path d="M181.144 52.5076C180.481 52.5076 179.944 51.9699 179.944 51.3066C179.944 50.6432 180.481 50.1055 181.144 50.1055C181.806 50.1055 182.343 50.6432 182.343 51.3066C182.343 51.9699 181.806 52.5076 181.144 52.5076Z" fill="#E9E0D6"/>
<path d="M161.15 52.5076C160.487 52.5076 159.95 51.9699 159.95 51.3066C159.95 50.6432 160.487 50.1055 161.15 50.1055C161.812 50.1055 162.349 50.6432 162.349 51.3066C162.349 51.9699 161.812 52.5076 161.15 52.5076Z" fill="#E9E0D6"/>
<path d="M141.156 52.5076C140.493 52.5076 139.956 51.9699 139.956 51.3066C139.956 50.6432 140.493 50.1055 141.156 50.1055C141.819 50.1055 142.356 50.6432 142.356 51.3066C142.356 51.9699 141.819 52.5076 141.156 52.5076Z" fill="#E9E0D6"/>
<path d="M121.162 52.5076C120.5 52.5076 119.963 51.9699 119.963 51.3066C119.963 50.6432 120.5 50.1055 121.162 50.1055C121.825 50.1055 122.362 50.6432 122.362 51.3066C122.362 51.9699 121.825 52.5076 121.162 52.5076Z" fill="#E9E0D6"/>
<path d="M101.168 52.5076C100.506 52.5076 99.9687 51.9699 99.9687 51.3066C99.9687 50.6432 100.506 50.1055 101.168 50.1055C101.831 50.1055 102.368 50.6432 102.368 51.3066C102.368 51.9699 101.831 52.5076 101.168 52.5076Z" fill="#E9E0D6"/>
<path d="M81.1747 52.5076C80.5121 52.5076 79.9751 51.9699 79.9751 51.3066C79.9751 50.6432 80.5121 50.1055 81.1747 50.1055C81.8372 50.1055 82.3744 50.6432 82.3744 51.3066C82.3744 51.9699 81.8372 52.5076 81.1747 52.5076Z" fill="#E9E0D6"/>
<path d="M61.1809 52.5076C60.5184 52.5076 59.9813 51.9699 59.9813 51.3066C59.9813 50.6432 60.5184 50.1055 61.1809 50.1055C61.8434 50.1055 62.3806 50.6432 62.3806 51.3066C62.3806 51.9699 61.8434 52.5076 61.1809 52.5076Z" fill="#E9E0D6"/>
<path d="M41.1871 52.5076C40.5246 52.5076 39.9875 51.9699 39.9875 51.3066C39.9875 50.6432 40.5246 50.1055 41.1871 50.1055C41.8497 50.1055 42.3868 50.6432 42.3868 51.3066C42.3868 51.9699 41.8497 52.5076 41.1871 52.5076Z" fill="#E9E0D6"/>
<path d="M21.1934 52.5076C20.5308 52.5076 19.9938 51.9699 19.9938 51.3066C19.9938 50.6432 20.5308 50.1055 21.1934 50.1055C21.8559 50.1055 22.3931 50.6432 22.3931 51.3066C22.3931 51.9699 21.8559 52.5076 21.1934 52.5076Z" fill="#E9E0D6"/>
<path d="M1.1997 52.5076C0.537165 52.5076 -5.33147e-06 51.9699 -5.30248e-06 51.3066C-5.27348e-06 50.6432 0.537165 50.1055 1.1997 50.1055C1.86224 50.1055 2.39929 50.6432 2.39929 51.3066C2.39929 51.9699 1.86224 52.5076 1.1997 52.5076Z" fill="#E9E0D6"/>
<path d="M241.125 72.5252C240.462 72.5252 239.925 71.9875 239.925 71.3242C239.925 70.6608 240.462 70.1231 241.125 70.1231C241.787 70.1231 242.324 70.6608 242.324 71.3242C242.324 71.9875 241.787 72.5252 241.125 72.5252Z" fill="#E9E0D6"/>
<path d="M221.131 72.5252C220.468 72.5252 219.931 71.9875 219.931 71.3242C219.931 70.6608 220.468 70.1231 221.131 70.1231C221.794 70.1231 222.331 70.6608 222.331 71.3242C222.331 71.9875 221.794 72.5252 221.131 72.5252Z" fill="#E9E0D6"/>
<path d="M201.137 72.5252C200.475 72.5252 199.938 71.9875 199.938 71.3242C199.938 70.6608 200.475 70.1231 201.137 70.1231C201.8 70.1231 202.337 70.6608 202.337 71.3242C202.337 71.9875 201.8 72.5252 201.137 72.5252Z" fill="#E9E0D6"/>
<path d="M181.144 72.5252C180.481 72.5252 179.944 71.9875 179.944 71.3242C179.944 70.6608 180.481 70.1231 181.144 70.1231C181.806 70.1231 182.343 70.6608 182.343 71.3242C182.343 71.9875 181.806 72.5252 181.144 72.5252Z" fill="#E9E0D6"/>
<path d="M161.15 72.5252C160.487 72.5252 159.95 71.9875 159.95 71.3242C159.95 70.6608 160.487 70.1231 161.15 70.1231C161.812 70.1231 162.349 70.6608 162.349 71.3242C162.349 71.9875 161.812 72.5252 161.15 72.5252Z" fill="#E9E0D6"/>
<path d="M141.156 72.5252C140.493 72.5252 139.956 71.9875 139.956 71.3242C139.956 70.6608 140.493 70.1231 141.156 70.1231C141.819 70.1231 142.356 70.6608 142.356 71.3242C142.356 71.9875 141.819 72.5252 141.156 72.5252Z" fill="#E9E0D6"/>
<path d="M121.162 72.5252C120.5 72.5252 119.963 71.9875 119.963 71.3242C119.963 70.6608 120.5 70.1231 121.162 70.1231C121.825 70.1231 122.362 70.6608 122.362 71.3242C122.362 71.9875 121.825 72.5252 121.162 72.5252Z" fill="#E9E0D6"/>
<path d="M101.168 72.5252C100.506 72.5252 99.9687 71.9875 99.9687 71.3242C99.9687 70.6608 100.506 70.1231 101.168 70.1231C101.831 70.1231 102.368 70.6608 102.368 71.3242C102.368 71.9875 101.831 72.5252 101.168 72.5252Z" fill="#E9E0D6"/>
<path d="M81.1747 72.5252C80.5121 72.5252 79.9751 71.9875 79.9751 71.3242C79.9751 70.6608 80.5121 70.1231 81.1747 70.1231C81.8372 70.1231 82.3744 70.6608 82.3744 71.3242C82.3744 71.9875 81.8372 72.5252 81.1747 72.5252Z" fill="#E9E0D6"/>
<path d="M61.1809 72.5252C60.5184 72.5252 59.9813 71.9875 59.9813 71.3242C59.9813 70.6608 60.5184 70.1231 61.1809 70.1231C61.8434 70.1231 62.3806 70.6608 62.3806 71.3242C62.3806 71.9875 61.8434 72.5252 61.1809 72.5252Z" fill="#E9E0D6"/>
<path d="M41.1871 72.5252C40.5246 72.5252 39.9875 71.9875 39.9875 71.3242C39.9875 70.6608 40.5246 70.1231 41.1871 70.1231C41.8497 70.1231 42.3868 70.6608 42.3868 71.3242C42.3868 71.9875 41.8497 72.5252 41.1871 72.5252Z" fill="#E9E0D6"/>
<path d="M21.1934 72.5252C20.5308 72.5252 19.9938 71.9875 19.9938 71.3242C19.9938 70.6608 20.5308 70.1231 21.1934 70.1231C21.8559 70.1231 22.3931 70.6608 22.3931 71.3242C22.3931 71.9875 21.8559 72.5252 21.1934 72.5252Z" fill="#E9E0D6"/>
<path d="M1.1997 72.5252C0.537164 72.5252 -6.20647e-06 71.9875 -6.17748e-06 71.3242C-6.14848e-06 70.6608 0.537164 70.1231 1.1997 70.1231C1.86224 70.1231 2.39929 70.6608 2.39929 71.3242C2.39929 71.9875 1.86224 72.5252 1.1997 72.5252Z" fill="#E9E0D6"/>
<path d="M241.125 92.5428C240.462 92.5428 239.925 92.0051 239.925 91.3418C239.925 90.6784 240.462 90.1407 241.125 90.1407C241.787 90.1407 242.324 90.6784 242.324 91.3418C242.324 92.0051 241.787 92.5428 241.125 92.5428Z" fill="#E9E0D6"/>
<path d="M221.131 92.5428C220.468 92.5428 219.931 92.0051 219.931 91.3418C219.931 90.6784 220.468 90.1407 221.131 90.1407C221.794 90.1407 222.331 90.6784 222.331 91.3418C222.331 92.0051 221.794 92.5428 221.131 92.5428Z" fill="#E9E0D6"/>
<path d="M201.137 92.5428C200.475 92.5428 199.938 92.0051 199.938 91.3417C199.938 90.6784 200.475 90.1407 201.137 90.1407C201.8 90.1407 202.337 90.6784 202.337 91.3417C202.337 92.0051 201.8 92.5428 201.137 92.5428Z" fill="#E9E0D6"/>
<path d="M181.144 92.5428C180.481 92.5428 179.944 92.0051 179.944 91.3417C179.944 90.6784 180.481 90.1407 181.144 90.1407C181.806 90.1407 182.343 90.6784 182.343 91.3417C182.343 92.0051 181.806 92.5428 181.144 92.5428Z" fill="#E9E0D6"/>
<path d="M161.15 92.5428C160.487 92.5428 159.95 92.0051 159.95 91.3417C159.95 90.6784 160.487 90.1407 161.15 90.1407C161.812 90.1407 162.349 90.6784 162.349 91.3417C162.349 92.0051 161.812 92.5428 161.15 92.5428Z" fill="#E9E0D6"/>
<path d="M141.156 92.5428C140.493 92.5428 139.956 92.0051 139.956 91.3417C139.956 90.6784 140.493 90.1407 141.156 90.1407C141.819 90.1407 142.356 90.6784 142.356 91.3417C142.356 92.0051 141.819 92.5428 141.156 92.5428Z" fill="#E9E0D6"/>
<path d="M121.162 92.5428C120.5 92.5428 119.963 92.0051 119.963 91.3417C119.963 90.6784 120.5 90.1407 121.162 90.1407C121.825 90.1407 122.362 90.6784 122.362 91.3417C122.362 92.0051 121.825 92.5428 121.162 92.5428Z" fill="#E9E0D6"/>
<path d="M101.168 92.5428C100.506 92.5428 99.9687 92.0051 99.9687 91.3417C99.9687 90.6784 100.506 90.1407 101.168 90.1407C101.831 90.1407 102.368 90.6784 102.368 91.3417C102.368 92.0051 101.831 92.5428 101.168 92.5428Z" fill="#E9E0D6"/>
<path d="M81.1747 92.5428C80.5121 92.5428 79.9751 92.0051 79.9751 91.3417C79.9751 90.6784 80.5121 90.1407 81.1747 90.1407C81.8372 90.1407 82.3744 90.6784 82.3744 91.3417C82.3744 92.0051 81.8372 92.5428 81.1747 92.5428Z" fill="#E9E0D6"/>
<path d="M61.1809 92.5428C60.5184 92.5428 59.9813 92.0051 59.9813 91.3417C59.9813 90.6784 60.5184 90.1407 61.1809 90.1407C61.8434 90.1407 62.3806 90.6784 62.3806 91.3417C62.3806 92.0051 61.8434 92.5428 61.1809 92.5428Z" fill="#E9E0D6"/>
<path d="M41.1871 92.5428C40.5246 92.5428 39.9875 92.0051 39.9875 91.3417C39.9875 90.6784 40.5246 90.1407 41.1871 90.1407C41.8497 90.1407 42.3868 90.6784 42.3868 91.3417C42.3868 92.0051 41.8497 92.5428 41.1871 92.5428Z" fill="#E9E0D6"/>
<path d="M21.1934 92.5428C20.5308 92.5428 19.9938 92.0051 19.9938 91.3417C19.9938 90.6784 20.5308 90.1407 21.1934 90.1407C21.8559 90.1407 22.3931 90.6784 22.3931 91.3417C22.3931 92.0051 21.8559 92.5428 21.1934 92.5428Z" fill="#E9E0D6"/>
<path d="M1.1997 92.5428C0.537163 92.5428 -7.08147e-06 92.0051 -7.05247e-06 91.3417C-7.02348e-06 90.6784 0.537163 90.1407 1.1997 90.1407C1.86224 90.1407 2.39928 90.6784 2.39928 91.3417C2.39928 92.0051 1.86224 92.5428 1.1997 92.5428Z" fill="#E9E0D6"/>
<path d="M241.125 112.56C240.462 112.56 239.925 112.023 239.925 111.359C239.925 110.696 240.462 110.158 241.125 110.158C241.787 110.158 242.324 110.696 242.324 111.359C242.324 112.023 241.787 112.56 241.125 112.56Z" fill="#E9E0D6"/>
<path d="M221.131 112.56C220.468 112.56 219.931 112.023 219.931 111.359C219.931 110.696 220.468 110.158 221.131 110.158C221.794 110.158 222.331 110.696 222.331 111.359C222.331 112.023 221.794 112.56 221.131 112.56Z" fill="#E9E0D6"/>
<path d="M201.137 112.56C200.475 112.56 199.938 112.023 199.938 111.359C199.938 110.696 200.475 110.158 201.137 110.158C201.8 110.158 202.337 110.696 202.337 111.359C202.337 112.023 201.8 112.56 201.137 112.56Z" fill="#E9E0D6"/>
<path d="M181.144 112.56C180.481 112.56 179.944 112.023 179.944 111.359C179.944 110.696 180.481 110.158 181.144 110.158C181.806 110.158 182.343 110.696 182.343 111.359C182.343 112.023 181.806 112.56 181.144 112.56Z" fill="#E9E0D6"/>
<path d="M161.15 112.56C160.487 112.56 159.95 112.023 159.95 111.359C159.95 110.696 160.487 110.158 161.15 110.158C161.812 110.158 162.349 110.696 162.349 111.359C162.349 112.023 161.812 112.56 161.15 112.56Z" fill="#E9E0D6"/>
<path d="M141.156 112.56C140.493 112.56 139.956 112.023 139.956 111.359C139.956 110.696 140.493 110.158 141.156 110.158C141.819 110.158 142.356 110.696 142.356 111.359C142.356 112.023 141.819 112.56 141.156 112.56Z" fill="#E9E0D6"/>
<path d="M121.162 112.56C120.5 112.56 119.963 112.023 119.963 111.359C119.963 110.696 120.5 110.158 121.162 110.158C121.825 110.158 122.362 110.696 122.362 111.359C122.362 112.023 121.825 112.56 121.162 112.56Z" fill="#E9E0D6"/>
<path d="M101.168 112.56C100.506 112.56 99.9687 112.023 99.9687 111.359C99.9687 110.696 100.506 110.158 101.168 110.158C101.831 110.158 102.368 110.696 102.368 111.359C102.368 112.023 101.831 112.56 101.168 112.56Z" fill="#E9E0D6"/>
<path d="M81.1747 112.56C80.5121 112.56 79.9751 112.023 79.9751 111.359C79.9751 110.696 80.5121 110.158 81.1747 110.158C81.8372 110.158 82.3744 110.696 82.3744 111.359C82.3744 112.023 81.8372 112.56 81.1747 112.56Z" fill="#E9E0D6"/>
<path d="M61.1809 112.56C60.5184 112.56 59.9813 112.023 59.9813 111.359C59.9813 110.696 60.5184 110.158 61.1809 110.158C61.8434 110.158 62.3806 110.696 62.3806 111.359C62.3806 112.023 61.8434 112.56 61.1809 112.56Z" fill="#E9E0D6"/>
<path d="M41.1871 112.56C40.5246 112.56 39.9875 112.023 39.9875 111.359C39.9875 110.696 40.5246 110.158 41.1871 110.158C41.8497 110.158 42.3868 110.696 42.3868 111.359C42.3868 112.023 41.8497 112.56 41.1871 112.56Z" fill="#E9E0D6"/>
<path d="M21.1934 112.56C20.5308 112.56 19.9938 112.023 19.9938 111.359C19.9938 110.696 20.5308 110.158 21.1934 110.158C21.8559 110.158 22.3931 110.696 22.3931 111.359C22.3931 112.023 21.8559 112.56 21.1934 112.56Z" fill="#E9E0D6"/>
<path d="M1.1997 112.56C0.537162 112.56 -7.95646e-06 112.023 -7.92747e-06 111.359C-7.89847e-06 110.696 0.537163 110.158 1.1997 110.158C1.86224 110.158 2.39928 110.696 2.39928 111.359C2.39928 112.023 1.86224 112.56 1.1997 112.56Z" fill="#E9E0D6"/>
<path d="M241.125 132.578C240.462 132.578 239.925 132.04 239.925 131.377C239.925 130.714 240.462 130.176 241.125 130.176C241.787 130.176 242.324 130.714 242.324 131.377C242.324 132.04 241.787 132.578 241.125 132.578Z" fill="#E9E0D6"/>
<path d="M221.131 132.578C220.468 132.578 219.931 132.04 219.931 131.377C219.931 130.714 220.468 130.176 221.131 130.176C221.794 130.176 222.331 130.714 222.331 131.377C222.331 132.04 221.794 132.578 221.131 132.578Z" fill="#E9E0D6"/>
<path d="M201.137 132.578C200.475 132.578 199.938 132.04 199.938 131.377C199.938 130.714 200.475 130.176 201.137 130.176C201.8 130.176 202.337 130.714 202.337 131.377C202.337 132.04 201.8 132.578 201.137 132.578Z" fill="#E9E0D6"/>
<path d="M181.144 132.578C180.481 132.578 179.944 132.04 179.944 131.377C179.944 130.714 180.481 130.176 181.144 130.176C181.806 130.176 182.343 130.714 182.343 131.377C182.343 132.04 181.806 132.578 181.144 132.578Z" fill="#E9E0D6"/>
<path d="M161.15 132.578C160.487 132.578 159.95 132.04 159.95 131.377C159.95 130.714 160.487 130.176 161.15 130.176C161.812 130.176 162.349 130.714 162.349 131.377C162.349 132.04 161.812 132.578 161.15 132.578Z" fill="#E9E0D6"/>
<path d="M141.156 132.578C140.493 132.578 139.956 132.04 139.956 131.377C139.956 130.714 140.493 130.176 141.156 130.176C141.819 130.176 142.356 130.714 142.356 131.377C142.356 132.04 141.819 132.578 141.156 132.578Z" fill="#E9E0D6"/>
<path d="M121.162 132.578C120.5 132.578 119.963 132.04 119.963 131.377C119.963 130.714 120.5 130.176 121.162 130.176C121.825 130.176 122.362 130.714 122.362 131.377C122.362 132.04 121.825 132.578 121.162 132.578Z" fill="#E9E0D6"/>
<path d="M101.168 132.578C100.506 132.578 99.9687 132.04 99.9687 131.377C99.9687 130.714 100.506 130.176 101.168 130.176C101.831 130.176 102.368 130.714 102.368 131.377C102.368 132.04 101.831 132.578 101.168 132.578Z" fill="#E9E0D6"/>
<path d="M81.1747 132.578C80.5121 132.578 79.9751 132.04 79.9751 131.377C79.9751 130.714 80.5121 130.176 81.1747 130.176C81.8372 130.176 82.3744 130.714 82.3744 131.377C82.3744 132.04 81.8372 132.578 81.1747 132.578Z" fill="#E9E0D6"/>
<path d="M61.1809 132.578C60.5184 132.578 59.9813 132.04 59.9813 131.377C59.9813 130.714 60.5184 130.176 61.1809 130.176C61.8434 130.176 62.3806 130.714 62.3806 131.377C62.3806 132.04 61.8434 132.578 61.1809 132.578Z" fill="#E9E0D6"/>
<path d="M41.1871 132.578C40.5246 132.578 39.9875 132.04 39.9875 131.377C39.9875 130.714 40.5246 130.176 41.1871 130.176C41.8497 130.176 42.3868 130.714 42.3868 131.377C42.3868 132.04 41.8497 132.578 41.1871 132.578Z" fill="#E9E0D6"/>
<path d="M21.1934 132.578C20.5308 132.578 19.9938 132.04 19.9938 131.377C19.9938 130.714 20.5308 130.176 21.1934 130.176C21.8559 130.176 22.3931 130.714 22.3931 131.377C22.3931 132.04 21.8559 132.578 21.1934 132.578Z" fill="#E9E0D6"/>
<path d="M1.1997 132.578C0.537162 132.578 -8.83146e-06 132.04 -8.80246e-06 131.377C-8.77347e-06 130.714 0.537162 130.176 1.1997 130.176C1.86223 130.176 2.39928 130.714 2.39928 131.377C2.39928 132.04 1.86223 132.578 1.1997 132.578Z" fill="#E9E0D6"/>
</svg>
