<svg width="83" height="63" viewBox="0 0 83 63" fill="none" xmlns="http://www.w3.org/2000/svg">
<path d="M53.7344 50.5312V45.0938C58.5156 45.0937 63.2202 46.2945 67.4165 48.586L70.679 45.8604L68.8914 42.0284C66.0715 35.9892 64.6099 29.4053 64.6094 22.7402C64.6093 17.9041 62.6881 13.2661 59.2684 9.84651C53.1137 3.69207 44.7664 0.234504 36.0625 0.234375C27.3586 0.234504 19.0113 3.69207 12.8566 9.84651L11.5938 11.1094V20.625L41.5 50.5312H53.7344Z" fill="#C52C37"/>
<path d="M70.6778 45.8604L68.8903 42.0284C66.0713 35.989 64.6106 29.4051 64.611 22.7402C64.6109 17.9041 62.6896 13.2661 59.27 9.84651C55.6006 6.18164 51.1149 3.43867 46.1805 1.84252C44.8705 1.67977 43.5517 1.5967 42.2316 1.59375C41.5733 1.59796 40.9163 1.65112 40.2659 1.7528C27.7107 3.63961 22.7041 19.146 31.294 28.5012C37.9278 35.7385 46.1234 43.7344 53.7359 48.6132V45.0938C58.5171 45.0937 63.2218 46.2945 67.4181 48.586L70.6778 45.8604Z" fill="#ED4241"/>
<path d="M53.7344 50.5312L51.0156 62.7656C39.2276 60.7333 28.2611 55.3891 19.3968 47.3572C10.5326 39.3253 4.13638 28.9372 0.955281 17.406L0.71875 16.5469L11.5938 11.1094L12.9599 13.718C21.7284 30.4574 36.189 43.5132 53.7344 50.5312Z" fill="#C1CFE8"/>
<path d="M55.0953 45.0937H52.3766V41.4574C52.3782 35.9088 51.484 30.3963 49.7285 25.1327L52.3113 24.2736C54.1586 29.8142 55.0987 35.6169 55.0953 41.4574V45.0937Z" fill="#C52C37"/>
<path d="M74.125 61.4062C78.6296 61.4062 82.2812 57.7546 82.2812 53.25C82.2812 48.7454 78.6296 45.0938 74.125 45.0938C69.6204 45.0938 65.9688 48.7454 65.9688 53.25C65.9688 57.7546 69.6204 61.4062 74.125 61.4062Z" fill="#C1CFE8"/>
<path d="M11.5936 11.1094L1 16.4109C4.27205 25.5716 9.61928 33.8509 16.6233 40.6012C23.6274 47.3515 32.0983 52.3897 41.3734 55.3217C42.4106 55.6474 43.5041 55.7539 44.5846 55.6347C45.6651 55.5155 46.709 55.173 47.6502 54.6291C48.5914 54.0851 49.4093 53.3515 50.052 52.4748C50.6948 51.5981 51.1483 50.5974 51.3839 49.5362C34.8764 42.3121 21.3235 29.6784 12.9598 13.718L11.5936 11.1094ZM74.1249 45.0938C72.6281 45.0942 71.1607 45.5087 69.885 46.2914C68.9311 47.8511 68.5298 49.6865 68.7455 51.502C68.9612 53.3176 69.7815 55.0077 71.0743 56.3005C72.3671 57.5933 74.0573 58.4136 75.8728 58.6294C77.6884 58.8451 79.5237 58.4437 81.0835 57.4899C81.8393 56.2545 82.252 54.8399 82.2792 53.3919C82.3064 51.9439 81.947 50.5148 81.238 49.2519C80.5291 47.989 79.4963 46.938 78.246 46.2071C76.9957 45.4762 75.5731 45.0919 74.1249 45.0938Z" fill="#D7E0EF"/>
</svg>
