<svg width="165" height="171" viewBox="0 0 165 171" fill="none" xmlns="http://www.w3.org/2000/svg">
<path d="M146.243 80.178L142.486 80.2739C140.247 80.169 124.003 80.7118 125.025 78.2487C127.181 74.4861 127.477 70.0879 127.453 65.8736C127.451 65.4558 127.101 65.1254 126.684 65.1405C105.26 65.0912 111.589 67.1158 108.599 51.4795C111.74 49.0001 115.16 44.5252 117.819 41.3962C118.262 40.8745 117.823 40.0845 117.145 40.1844C113.248 40.7589 107.711 41.4001 104.153 42.407C104.011 42.4473 103.86 42.4436 103.72 42.3964C103.58 42.3492 103.458 42.2608 103.369 42.1427C101.121 39.1665 96.6377 35.1869 93.6758 32.3659C93.1741 31.888 92.351 32.298 92.4303 32.9864C92.8979 37.0525 93.3963 43.0053 94.3358 46.5928C94.3724 46.7345 94.3661 46.8838 94.3177 47.0219C94.2693 47.1599 94.181 47.2805 94.064 47.3683C92.2242 48.4302 90.988 50.9327 90.0581 49.5336C88.1885 45.4189 83.8822 44.4972 79.9058 45.2463C78.0279 43.7951 72.0707 41.4275 72.3411 39.4289C76.3309 32.1265 71.0556 26.2247 63.3173 30.217C63.1767 30.2898 63.0163 30.3152 62.8601 30.2894C62.7039 30.2636 62.5602 30.188 62.4506 30.0738C56.5882 23.909 49.5206 27.4496 50.9136 35.8243C50.9387 35.9806 50.9127 36.1409 50.8393 36.2812C50.766 36.4214 50.6492 36.5342 50.5065 36.6027C42.6317 40.3968 44.2185 48.1709 52.4682 49.3594C53.6586 49.8571 53.4478 52.82 53.5357 54.0194C53.5175 54.4371 53.1453 54.7398 52.7284 54.7112C52.1105 54.5548 51.2008 55.1139 50.7292 54.4874C48.0253 50.668 43.692 52.322 42.5487 55.4573C42.5 55.5929 42.4129 55.7115 42.2982 55.7986C42.1834 55.8856 42.0458 55.9375 41.9021 55.948C38.3956 56.2012 35.7463 59.8459 38.653 63.5551C38.7396 63.6655 38.793 63.7983 38.8069 63.9378C38.8209 64.0774 38.7948 64.2181 38.7318 64.3434C36.9132 67.9449 39.5912 71.71 43.7432 70.9965C43.8798 70.9738 44.0201 70.9899 44.1479 71.0431C44.2758 71.0963 44.3861 71.1845 44.4662 71.2974C46.0338 73.4963 47.6055 73.7783 49.1134 73.4348C52.7882 73.9105 43.7736 81.2108 45.4069 82.0993C47.9165 84.1888 47.4997 83.7484 44.1049 85.5881C36.8571 89.4958 42.2962 99.1164 48.5962 97.0294C52.65 96.8877 40.9769 107.617 39.9467 108.739C39.5947 109.07 39.6515 109.642 40.0584 109.902C44.159 112.522 48.4365 114.863 53.6084 115.295C54.1382 115.339 54.4554 115.902 54.2081 116.373C50.7828 122.889 45.665 128.503 40.2287 133.604C39.8891 133.922 39.9212 134.471 40.298 134.745C49.1017 141.14 62.7134 142.623 72.718 137.171C73.0324 136.999 73.295 137.027 74.1183 136.87C73.9713 138.234 74.1931 139.634 74.8382 140.928C76.7324 144.728 81.5526 146.172 85.6046 144.152C89.5101 142.205 91.2749 137.752 89.7012 134.03C92.0982 133.576 93.8571 133.216 94.141 133.079C94.3182 133.044 94.5023 133.073 94.659 133.164C94.8157 133.254 94.9341 133.398 94.992 133.569C96.6263 137.79 99.6637 148.351 101.548 147.966C105.408 145.741 120.066 140.486 121.594 136.459C110.163 115.872 114.71 129.261 124.165 110.35C124.176 110.346 124.486 110.191 125.006 109.931C125.082 110.931 125.351 111.906 125.799 112.803C127.693 116.603 132.281 118.163 136.045 116.287C139.81 114.41 141.326 109.808 139.432 106.008C138.955 105.052 138.435 103.112 138.475 103.076C145.701 96.4686 147.091 88.7761 147.005 80.9067C147.003 80.8087 146.982 80.712 146.943 80.6222C146.904 80.5323 146.848 80.4512 146.777 80.3834C146.706 80.3155 146.623 80.2624 146.531 80.2271C146.44 80.1919 146.342 80.175 146.244 80.1777L146.243 80.178Z" fill="white"/>
<path d="M94.8219 118.729C94.8219 118.729 100.083 136.445 102.958 142.561C102.958 142.561 114.289 137.291 116.298 135.787C116.298 135.787 105.686 116.588 103.459 113.921L94.8223 118.729L94.8219 118.729Z" fill="#603813"/>
<path d="M104.674 140.093C103.459 136.86 100.961 128.478 99.7359 128.288C99.236 128.211 98.9185 128.694 99.0147 128.986C100.09 132.274 101.253 135.936 102.99 140.175C103.3 140.93 104.851 141.051 104.673 140.093L104.674 140.093Z" fill="#886239"/>
<path d="M80.2572 80.7474C60.9646 89.8489 69.0373 111.55 46.5763 133.411C54.0313 137.933 70.7645 137.471 75.982 128.317C93.7982 133.233 115.021 123.74 121.374 105.784C135.933 104.383 142.421 93.5915 142.595 84.5813C108.766 85.4445 100.046 71.4117 80.2572 80.7474Z" fill="#4CAC50"/>
<path d="M117.956 82.3695C102.541 79.1281 94.1101 74.2118 80.257 80.7472C67.3257 86.8475 66.688 98.6087 60.9101 112.284C65.2549 111.726 69.1614 109.694 70.9024 105.534C85.0463 111.474 101.259 103.099 104.833 88.8522C110.436 87.701 114.849 85.3661 117.956 82.3696L117.956 82.3695Z" fill="#439D47"/>
<path d="M73.1894 66.4663C57.7583 73.7461 64.2151 91.1034 46.2498 108.589C52.413 112.327 66.1461 112.669 70.2482 104.22C83.8352 109.042 100.061 100.693 104.169 87.5181C116.138 84.7224 122.904 77.1085 123.051 69.5329C95.9927 70.2233 89.0179 58.999 73.1896 66.4662L73.1894 66.4663Z" fill="#4CAC50"/>
<path d="M73.1892 66.4664C64.7819 70.4326 62.8716 77.3905 59.969 85.7305C62.8961 85.7394 66.0745 84.7923 69.0885 82.4161C76.7067 85.7883 86.3285 82.2711 87.4629 72.9546C93.1768 72.9235 96.4144 70.041 98.011 66.5105C88.8344 64.1783 82.5647 62.0435 73.1892 66.4664Z" fill="#439D47"/>
<path d="M59.106 38.0595C56.1157 39.5501 61.2212 68.617 50.9367 81.0159C54.8799 84.2028 61.8608 85.4287 68.1275 80.488C75.7457 83.8601 85.3675 80.3429 86.5019 71.0265C96.3308 70.9728 98.8336 62.4833 98.2569 56.7683C80.3568 54.7814 62.0552 36.5896 59.106 38.0595Z" fill="#4CAC50"/>
<path d="M57.6618 65.792C57.5893 65.8287 57.5096 65.8489 57.4284 65.8512C57.3472 65.8535 57.2665 65.8379 57.192 65.8054L57.0689 65.7505C56.8015 65.6309 56.6915 65.3189 56.8228 65.0538C56.9542 64.7886 57.2777 64.671 57.5453 64.7909L57.6649 64.8442C57.9328 64.9631 58.044 65.2744 57.9135 65.54C57.8581 65.6529 57.7677 65.7392 57.6618 65.792ZM96.1914 65.7665L96.1825 65.7709L95.9455 65.8827C95.8204 65.9403 95.6775 65.9458 95.5483 65.8981C95.4192 65.8504 95.3142 65.7534 95.2565 65.6284C95.1345 65.3673 95.2477 65.053 95.5026 64.9368L95.7341 64.8278C95.8588 64.7695 96.0016 64.7631 96.1311 64.81C96.2605 64.857 96.366 64.9534 96.4244 65.0781C96.4834 65.2005 96.4921 65.3412 96.4485 65.4699C96.405 65.5986 96.3126 65.7051 96.1914 65.7665ZM94.0594 66.7087C94.0483 66.7142 94.0371 66.7195 94.0253 66.7242L93.7818 66.823C93.5175 66.9294 93.2155 66.799 93.1072 66.5316C92.9989 66.2643 93.1234 65.9619 93.3903 65.8551L93.6267 65.7589C93.7544 65.7073 93.8974 65.7085 94.0242 65.7622C94.1511 65.8159 94.2515 65.9177 94.3034 66.0453C94.3541 66.1662 94.3571 66.3019 94.3118 66.425C94.2666 66.548 94.1764 66.6494 94.0594 66.7087ZM91.8793 67.5343C91.86 67.5439 91.8398 67.5524 91.8188 67.5599L91.571 67.6451C91.4404 67.689 91.2977 67.6792 91.1742 67.6179C91.0507 67.5567 90.9566 67.4489 90.9125 67.3184C90.8898 67.2542 90.88 67.1861 90.8838 67.1181C90.8875 67.0501 90.9046 66.9835 90.9342 66.9221C90.9638 66.8607 91.0052 66.8058 91.056 66.7605C91.1069 66.7152 91.1662 66.6804 91.2305 66.6581L91.4726 66.5745C91.7417 66.4807 92.0376 66.6254 92.1333 66.8972C92.1758 67.016 92.1735 67.1463 92.1267 67.2635C92.08 67.3808 91.992 67.4769 91.8794 67.5339L91.8793 67.5343ZM89.6574 68.2424C89.6297 68.2562 89.6007 68.2675 89.5709 68.2762L89.3195 68.3482C89.1867 68.385 89.0447 68.3678 88.9245 68.3003C88.8044 68.2328 88.7158 68.1204 88.6783 67.9878C88.6589 67.9225 88.6527 67.854 88.66 67.7863C88.6672 67.7186 88.6878 67.653 88.7205 67.5933C88.7532 67.5336 88.7974 67.4809 88.8506 67.4384C88.9037 67.3958 88.9648 67.3642 89.0302 67.3453L89.277 67.2744C89.4097 67.2369 89.5518 67.2535 89.6722 67.3204C89.7927 67.3874 89.8818 67.4993 89.9201 67.6317C89.9549 67.7481 89.9476 67.873 89.8997 67.9846C89.8517 68.0962 89.766 68.1874 89.6576 68.2423L89.6574 68.2424ZM87.4008 68.8336C87.366 68.8509 87.3285 68.8645 87.2888 68.8737L87.0334 68.9327C86.7553 68.996 86.4768 68.8201 86.4112 68.5393C86.3456 68.2585 86.5175 67.9798 86.7957 67.9164L87.0455 67.8587C87.18 67.8281 87.3211 67.852 87.4381 67.925C87.555 67.998 87.6384 68.1143 87.6699 68.2486C87.6977 68.3621 87.6862 68.4818 87.6373 68.5879C87.5884 68.6941 87.505 68.7806 87.4006 68.8333L87.4008 68.8336ZM85.1159 69.3066C85.0737 69.3276 85.028 69.3429 84.9792 69.3519L84.72 69.3979C84.5839 69.4208 84.4444 69.389 84.3317 69.3095C84.219 69.23 84.1423 69.1091 84.1183 68.9733C84.1059 68.9064 84.1068 68.8377 84.121 68.7712C84.1353 68.7047 84.1625 68.6417 84.2011 68.5857C84.2398 68.5298 84.2891 68.482 84.3463 68.4452C84.4035 68.4083 84.4674 68.3832 84.5343 68.3711L84.786 68.3264C84.9219 68.3025 85.0617 68.3332 85.1749 68.4119C85.2882 68.4906 85.3658 68.6108 85.3908 68.7464C85.4122 68.8569 85.3969 68.9714 85.3473 69.0724C85.2977 69.1734 85.2165 69.2555 85.116 69.3062L85.1159 69.3066ZM82.8088 69.6624C82.7589 69.6873 82.7041 69.7043 82.6458 69.7117L82.3853 69.7443C82.102 69.7789 81.8424 69.5753 81.8055 69.2898C81.7686 69.0043 81.9681 68.7449 82.2516 68.71L82.5061 68.678C82.643 68.6614 82.7809 68.6994 82.89 68.7839C82.999 68.8683 83.0703 68.9924 83.0884 69.1292C83.1033 69.236 83.0844 69.3449 83.0342 69.4405C82.9841 69.5361 82.9053 69.6135 82.8089 69.6621L82.8088 69.6624ZM80.4859 69.9002C80.4285 69.9288 80.3647 69.9471 80.2969 69.9523L80.0358 69.9716C79.8981 69.9806 79.7623 69.9349 79.6581 69.8445C79.5538 69.754 79.4894 69.6261 79.4788 69.4885C79.4731 69.4208 79.4809 69.3526 79.5017 69.2879C79.5225 69.2232 79.5559 69.1632 79.6 69.1115C79.6441 69.0598 79.698 69.0173 79.7587 68.9865C79.8193 68.9558 79.8854 68.9373 79.9532 68.9323L80.2097 68.9134C80.3473 68.9038 80.4832 68.9489 80.5878 69.0387C80.6925 69.1286 80.7575 69.2561 80.7689 69.3936C80.7779 69.4967 80.7559 69.6001 80.7055 69.6904C80.6551 69.7808 80.5787 69.8539 80.4863 69.9003L80.4859 69.9002ZM78.1532 70.0204C78.0864 70.0537 78.0131 70.0718 77.9385 70.0735L77.6766 70.0797C77.5386 70.0818 77.4053 70.0294 77.3056 69.934C77.2059 69.8386 77.1478 69.7077 77.1438 69.5698C77.1414 69.5018 77.1525 69.4341 77.1764 69.3704C77.2004 69.3068 77.2367 69.2485 77.2834 69.1991C77.33 69.1496 77.386 69.1099 77.4481 69.0822C77.5102 69.0546 77.5772 69.0395 77.6452 69.038L77.9024 69.032C78.0404 69.0293 78.1739 69.081 78.2741 69.1761C78.3742 69.2711 78.4328 69.4017 78.4373 69.5397C78.4411 69.6387 78.4163 69.7367 78.3659 69.8219C78.3155 69.9072 78.2415 69.9761 78.153 70.0205L78.1532 70.0204ZM75.8164 70.0224C75.7443 70.0583 75.6624 70.0778 75.5761 70.0756L75.3136 70.0685C75.1757 70.0637 75.0452 70.0047 74.9503 69.9044C74.8555 69.8041 74.8039 69.6705 74.8067 69.5325C74.8077 69.4645 74.8222 69.3974 74.8493 69.3351C74.8764 69.2728 74.9157 69.2165 74.9647 69.1695C75.0138 69.1225 75.0718 69.0857 75.1352 69.0612C75.1986 69.0368 75.2663 69.0252 75.3342 69.0271L75.5912 69.034C75.7292 69.0381 75.86 69.0964 75.9554 69.1962C76.0508 69.296 76.1031 69.4293 76.101 69.5674C76.0999 69.662 76.0728 69.7546 76.0226 69.8349C75.9724 69.9151 75.9011 69.98 75.8164 70.0224ZM73.4813 69.9064C73.4017 69.9461 73.3102 69.9655 73.2148 69.9583L72.9535 69.9379C72.6686 69.9149 72.4537 69.6639 72.4737 69.3772C72.4937 69.0905 72.7412 68.8765 73.026 68.8993L73.2826 68.9192C73.4203 68.9303 73.548 68.9951 73.6382 69.0997C73.7284 69.2042 73.7739 69.3401 73.7646 69.4779C73.7591 69.5679 73.7299 69.6549 73.6802 69.7301C73.6304 69.8054 73.562 69.8661 73.4813 69.9064ZM71.1536 69.6723C71.0663 69.7159 70.9659 69.7349 70.8614 69.7216L70.601 69.6879C70.4641 69.6693 70.3401 69.5976 70.2557 69.4883C70.1713 69.379 70.1333 69.2409 70.1499 69.1038C70.1577 69.0363 70.1789 68.9711 70.2122 68.9118C70.2455 68.8526 70.2903 68.8006 70.3439 68.7588C70.3974 68.7171 70.4588 68.6864 70.5244 68.6686C70.59 68.6508 70.6584 68.6462 70.7258 68.6551L70.9808 68.6882C71.1178 68.7061 71.2422 68.7772 71.3272 68.8861C71.4121 68.9949 71.4509 69.1329 71.435 69.2701C71.4254 69.3554 71.3946 69.4369 71.3455 69.5072C71.2963 69.5775 71.2303 69.6344 71.1535 69.6727L71.1536 69.6723ZM68.8403 69.3196C68.7419 69.3687 68.6302 69.3847 68.522 69.3651L68.2628 69.3181C68.1271 69.2924 68.0069 69.2145 67.9281 69.101C67.8494 68.9875 67.8184 68.8476 67.8418 68.7115C67.8532 68.6445 67.8778 68.5805 67.9141 68.5231C67.9504 68.4657 67.9978 68.4161 68.0535 68.3772C68.1091 68.3383 68.172 68.3108 68.2383 68.2964C68.3047 68.282 68.3733 68.2809 68.4401 68.2932L68.693 68.339C68.8289 68.3638 68.9496 68.441 69.0291 68.554C69.1085 68.667 69.1403 68.8067 69.1175 68.943C69.1044 69.0232 69.0724 69.0992 69.0241 69.1647C68.9758 69.2302 68.9127 69.2832 68.8399 69.3195L68.8403 69.3196ZM66.5465 68.8479C66.4438 68.8991 66.3233 68.9161 66.2025 68.8881L65.9456 68.8276C65.8113 68.795 65.6953 68.7109 65.6225 68.5935C65.5497 68.4762 65.5259 68.3349 65.5563 68.2001C65.5711 68.1338 65.599 68.0711 65.6383 68.0157C65.6776 67.9603 65.7275 67.9133 65.7851 67.8773C65.8428 67.8414 65.907 67.8173 65.9741 67.8064C66.0411 67.7955 66.1097 67.7981 66.1757 67.814L66.4254 67.8726C66.7042 67.9372 66.8806 68.2167 66.819 68.4974C66.8027 68.5725 66.7698 68.643 66.7227 68.7037C66.6755 68.7643 66.6153 68.8136 66.5465 68.8479ZM64.2794 68.2575C64.1684 68.3128 64.0373 68.3282 63.9081 68.2908L63.6554 68.217C63.5231 68.1777 63.4115 68.0878 63.3447 67.9669C63.278 67.846 63.2614 67.7037 63.2986 67.5706C63.3168 67.5052 63.3479 67.444 63.39 67.3907C63.4321 67.3374 63.4844 67.293 63.5438 67.2602C63.6033 67.2273 63.6687 67.2066 63.7362 67.1992C63.8037 67.1919 63.8721 67.1981 63.9372 67.2174L64.1848 67.2895C64.46 67.3691 64.6213 67.6576 64.545 67.9342C64.5043 68.0809 64.4048 68.195 64.2794 68.2575ZM62.045 67.5484C61.9261 67.6076 61.7841 67.6206 61.6476 67.5733L61.3986 67.486C61.1284 67.3903 60.984 67.0927 61.0768 66.8215C61.1696 66.5503 61.4633 66.4079 61.7337 66.5034L61.9768 66.5886C62.2476 66.6824 62.3937 66.9791 62.3027 67.251C62.2577 67.386 62.1626 67.4894 62.0451 67.548L62.045 67.5484ZM59.8501 66.7198C59.7848 66.7525 59.7131 66.7708 59.6401 66.7734C59.5671 66.776 59.4943 66.763 59.4268 66.7351L59.1825 66.6346C59.055 66.5814 58.9535 66.4802 58.9 66.3529C58.8464 66.2256 58.8451 66.0823 58.8962 65.954C58.9214 65.8909 58.9589 65.8334 59.0065 65.7849C59.0541 65.7365 59.111 65.698 59.1736 65.6717C59.2363 65.6455 59.3036 65.632 59.3715 65.632C59.4395 65.6321 59.5068 65.6457 59.5694 65.672L59.8077 65.7701C60.0734 65.8785 60.2035 66.1823 60.0982 66.4489C60.0496 66.5719 59.9594 66.6654 59.8501 66.7198ZM99.9094 68.3953C99.8131 68.4432 99.6992 68.4575 99.583 68.4275C99.3093 68.3574 99.1261 68.0702 99.1739 67.7861L99.195 67.6599C99.2418 67.3755 99.502 67.201 99.7758 67.2705C100.05 67.3399 100.234 67.6265 100.186 67.9108L100.165 68.0399C100.138 68.2035 100.04 68.3302 99.9094 68.3953ZM75.2065 98.6313L75.2 98.6345L74.9753 98.7414C74.7289 98.8585 74.4253 98.7357 74.2966 98.4674C74.1681 98.1993 74.2529 97.8848 74.5103 97.7698L74.7324 97.6639C74.9786 97.5463 75.2825 97.6679 75.4116 97.936C75.5394 98.2015 75.4477 98.511 75.2065 98.6313ZM76.9747 97.743C76.735 97.8625 76.4335 97.7513 76.2978 97.491C76.16 97.2273 76.2442 96.9106 76.4854 96.7835L76.7029 96.6684C76.9463 96.5405 77.2514 96.6504 77.3898 96.9136C77.5283 97.177 77.4451 97.494 77.2041 97.622L76.9841 97.7383L76.9747 97.743ZM73.1797 99.5532C73.1723 99.557 73.1645 99.5608 73.1566 99.5642L72.9278 99.6622C72.677 99.7692 72.3769 99.6354 72.2574 99.3631C72.1382 99.0906 72.2469 98.7814 72.4955 98.6758L72.7217 98.5787C72.9722 98.4711 73.2728 98.604 73.3927 98.8761C73.5087 99.1396 73.4135 99.4367 73.1797 99.5532ZM78.9229 96.6659C78.6909 96.7816 78.3979 96.6813 78.2563 96.4323C78.1093 96.1737 78.1811 95.853 78.4168 95.7157L78.629 95.5916C78.8662 95.4555 79.1747 95.5505 79.3226 95.8087C79.4705 96.0668 79.3994 96.3881 79.1643 96.526L78.9494 96.6518C78.9407 96.6567 78.9319 96.6614 78.9229 96.6659ZM71.1178 100.395C71.105 100.402 71.092 100.408 71.0781 100.413L70.8459 100.502C70.5908 100.6 70.2947 100.455 70.1843 100.179C70.0737 99.9031 70.1916 99.6019 70.4458 99.5029L70.6758 99.4145C70.9305 99.3165 71.2268 99.4603 71.3381 99.7361C71.4433 99.9972 71.3447 100.283 71.1179 100.396L71.1178 100.395ZM80.8236 95.5044C80.5996 95.6161 80.3153 95.5268 80.1683 95.2899C80.0117 95.0373 80.0707 94.7127 80.3001 94.5646L80.5068 94.4312C80.7373 94.2817 81.0491 94.3666 81.2064 94.6186C81.3637 94.8708 81.3058 95.1957 81.0766 95.3443L80.8672 95.4794C80.8528 95.4886 80.8382 95.4968 80.8233 95.5043L80.8236 95.5044ZM69.024 101.159C69.0064 101.168 68.9878 101.176 68.9687 101.182L68.7324 101.263C68.4738 101.351 68.1819 101.195 68.0806 100.916C67.9794 100.637 68.1072 100.339 68.3657 100.252L68.5981 100.172C68.8564 100.083 69.1486 100.238 69.2512 100.517C69.3461 100.775 69.2445 101.049 69.024 101.159ZM82.6721 94.2581C82.4558 94.3659 82.1802 94.2868 82.0287 94.062C81.863 93.8158 81.909 93.4878 82.1317 93.3298L82.3323 93.1871C82.557 93.0278 82.8699 93.0986 83.0367 93.3443C83.2035 93.59 83.1583 93.9182 82.9361 94.0771L82.7327 94.2219C82.7134 94.2356 82.6931 94.2477 82.6719 94.2582L82.6721 94.2581ZM66.9023 101.847C66.8799 101.859 66.8563 101.868 66.8317 101.875L66.5926 101.948C66.3306 102.026 66.0433 101.861 65.9501 101.58C65.8574 101.298 65.9948 101.005 66.2559 100.927L66.4914 100.855C66.7528 100.776 67.0409 100.939 67.1349 101.221C67.2198 101.476 67.1167 101.74 66.9025 101.847L66.9023 101.847ZM84.4628 92.9265C84.2541 93.0305 83.9879 92.9611 83.8327 92.7494C83.6574 92.51 83.6901 92.1793 83.9055 92.0108L84.0995 91.8587C84.3143 91.6896 84.6312 91.7455 84.8074 91.9841C84.9836 92.223 84.9521 92.5537 84.7371 92.7229L84.5403 92.8773C84.5162 92.8962 84.4902 92.9127 84.4628 92.9265ZM64.7558 102.461C64.7284 102.475 64.6998 102.486 64.6702 102.494L64.4287 102.558C64.1642 102.628 63.8809 102.454 63.7961 102.17C63.7115 101.885 63.8577 101.598 64.1217 101.529L64.3597 101.465C64.624 101.394 64.9077 101.567 64.9936 101.851C65.0695 102.103 64.9646 102.358 64.756 102.462L64.7558 102.461ZM86.1918 91.5094C85.9909 91.6095 85.7343 91.5498 85.5757 91.3506C85.3912 91.1188 85.41 90.786 85.6177 90.6072L85.8037 90.4461C86.0104 90.2657 86.3284 90.3074 86.5142 90.5383C86.6998 90.7692 86.6826 91.1021 86.4761 91.2821L86.2861 91.4467C86.2566 91.472 86.2249 91.4929 86.1918 91.5094ZM62.5876 103.003C62.5556 103.019 62.5218 103.031 62.4869 103.039L62.2438 103.095C61.9769 103.157 61.6981 102.974 61.6213 102.688C61.5444 102.402 61.6984 102.12 61.9657 102.059L62.2066 102.003C62.4736 101.941 62.7524 102.123 62.8299 102.409C62.8971 102.657 62.7906 102.902 62.5875 103.003L62.5876 103.003ZM87.8524 90.0074C87.6591 90.1037 87.4122 90.053 87.2517 89.8674C87.058 89.6438 87.0624 89.3095 87.2615 89.1205L87.4399 88.9503C87.6388 88.7602 87.9566 88.7864 88.1513 89.0085C88.3459 89.2311 88.3435 89.5657 88.1452 89.7557L87.963 89.9297C87.9303 89.9609 87.8928 89.9872 87.8524 90.0074ZM60.4005 103.476C60.3653 103.494 60.3269 103.507 60.2862 103.515L60.0401 103.564C59.7709 103.616 59.4969 103.426 59.4281 103.138C59.3593 102.85 59.5222 102.574 59.7911 102.521L60.033 102.473C60.302 102.419 60.5766 102.609 60.6465 102.897C60.7056 103.141 60.5984 103.377 60.4001 103.476L60.4005 103.476ZM89.4404 88.4211C89.2552 88.5135 89.019 88.4716 88.8567 88.3001C88.6539 88.0859 88.6432 87.7503 88.8329 87.5509L89.0028 87.3714C89.1918 87.1712 89.5098 87.181 89.7136 87.3941C89.9176 87.6075 89.9298 87.9426 89.7414 88.1434L89.5678 88.3269C89.5312 88.3654 89.4882 88.3972 89.4407 88.421L89.4404 88.4211ZM58.1971 103.882C58.1578 103.901 58.1149 103.915 58.0691 103.923L57.8222 103.964C57.5511 104.009 57.2819 103.811 57.2205 103.522C57.1592 103.232 57.3291 102.962 57.6 102.917L57.8444 102.876C58.1154 102.831 58.3851 103.028 58.4471 103.317C58.4987 103.558 58.3905 103.786 58.1972 103.882L58.1971 103.882ZM55.9799 104.223C55.937 104.244 55.8896 104.259 55.8392 104.266L55.5904 104.3C55.3179 104.337 55.0533 104.132 54.9989 103.842C54.9449 103.552 55.1222 103.286 55.3943 103.249L55.6397 103.215C55.9121 103.177 56.1775 103.382 56.2324 103.672C56.2773 103.908 56.1688 104.129 55.9799 104.223ZM90.9502 86.7519C90.7729 86.8403 90.547 86.8065 90.384 86.6492C90.1723 86.4449 90.1464 86.1091 90.326 85.8997L90.4869 85.7114C90.6652 85.5011 90.9827 85.4947 91.1956 85.6981C91.4083 85.9014 91.4361 86.2369 91.2574 86.4476L91.093 86.6404C91.0533 86.6868 91.0047 86.7248 90.95 86.7523L90.9502 86.7519ZM53.7508 104.501C53.704 104.525 53.6524 104.54 53.5968 104.546L53.3469 104.574C53.073 104.603 52.8131 104.391 52.7662 104.1C52.7191 103.808 52.9033 103.548 53.1771 103.519L53.4239 103.492C53.6976 103.462 53.9581 103.674 54.0059 103.965C54.044 104.197 53.9351 104.41 53.7508 104.502L53.7508 104.501ZM92.3751 85.0015C92.2053 85.0861 91.9903 85.0596 91.8274 84.9158C91.6074 84.7216 91.5666 84.3866 91.7364 84.1677L91.8868 83.9716C92.0544 83.7514 92.37 83.7284 92.5916 83.9212C92.8128 84.1136 92.8565 84.4483 92.6886 84.6691L92.5331 84.8719C92.491 84.9266 92.4371 84.971 92.3754 85.002L92.3751 85.0015ZM93.7103 83.1718C93.5489 83.2522 93.3454 83.2329 93.1839 83.1041C92.9552 82.9214 92.8978 82.5881 93.0556 82.3591L93.1964 82.1534C93.3523 81.9237 93.6656 81.884 93.8954 82.0652C94.1251 82.2464 94.1844 82.5798 94.0279 82.8096L93.8838 83.0202C93.8397 83.0846 93.78 83.1368 93.7103 83.1718ZM94.949 81.2651C94.7958 81.3415 94.6036 81.3286 94.4445 81.2142C94.2079 81.044 94.1341 80.713 94.2798 80.4748L94.4094 80.2611C94.5534 80.0213 94.8627 79.9647 95.1002 80.1336C95.3378 80.3022 95.4136 80.633 95.2696 80.8722L95.1365 81.0915C95.0916 81.1659 95.0266 81.2261 94.949 81.2651ZM96.0845 79.2844C95.94 79.3564 95.7597 79.3499 95.6042 79.25C95.3598 79.0932 95.2691 78.7656 95.4013 78.5185L95.5194 78.2964C95.6503 78.0483 95.9553 77.9734 96.2003 78.1289C96.4453 78.2845 96.5378 78.6115 96.4067 78.8596L96.2859 79.0867C96.241 79.1721 96.1705 79.2412 96.0842 79.2845L96.0845 79.2844ZM97.1094 77.2328C96.9734 77.3006 96.805 77.2993 96.6541 77.2134C96.4028 77.0707 96.2953 76.7475 96.4138 76.4921L96.5192 76.2631C96.6358 76.0065 96.9347 75.9132 97.1871 76.0546C97.439 76.1958 97.5488 76.5181 97.4319 76.7742L97.3238 77.0097C97.28 77.1064 97.2043 77.1852 97.1094 77.2328ZM98.0157 75.1136C97.949 75.1461 97.8757 75.1626 97.8015 75.1617C97.7273 75.1609 97.6544 75.1428 97.5884 75.1089C97.3305 74.9818 97.2048 74.665 97.308 74.4012L97.3999 74.1645C97.5015 73.9001 97.7935 73.7876 98.052 73.9135C98.3107 74.0391 98.4379 74.3554 98.3362 74.6196L98.2423 74.8619C98.197 74.9778 98.1153 75.064 98.0157 75.1136ZM98.7933 72.9309C98.6756 72.9896 98.533 72.9971 98.3961 72.9398C98.1321 72.8295 97.9884 72.5202 98.0752 72.249L98.1522 72.0058C98.2372 71.7337 98.5208 71.6017 98.785 71.7106C99.0497 71.8193 99.1949 72.1275 99.1097 72.3995L99.0307 72.6488C99.0121 72.7094 98.9814 72.7656 98.9406 72.814C98.8997 72.8625 98.8495 72.9022 98.793 72.9308L98.7933 72.9309ZM99.4298 70.6896C99.3222 70.7433 99.1931 70.7543 99.065 70.7106C98.7958 70.6187 98.6334 70.319 98.7023 70.041L98.7627 69.7929C98.8291 69.514 99.1018 69.3609 99.3714 69.4506C99.6411 69.5402 99.8058 69.8388 99.7393 70.1174L99.6769 70.374C99.6612 70.4415 99.631 70.5047 99.5883 70.5592C99.5456 70.6137 99.4915 70.6582 99.4298 70.6896ZM51.5035 104.721C51.4534 104.746 51.3975 104.762 51.3375 104.767L51.2112 104.778C50.9361 104.8 50.6809 104.581 50.6409 104.289C50.6008 103.997 50.7913 103.743 51.0662 103.721L51.1888 103.711C51.4636 103.687 51.7195 103.905 51.7607 104.197C51.7928 104.425 51.684 104.631 51.5035 104.721ZM60.6205 115.999C60.4509 116.083 60.2454 116.094 60.0474 116.012L59.8707 115.938C59.4891 115.776 59.2821 115.328 59.4085 114.936C59.5351 114.544 59.9471 114.356 60.3286 114.518L60.497 114.588C60.8795 114.747 61.0888 115.195 60.9646 115.588C60.9379 115.676 60.8937 115.758 60.8345 115.829C60.7754 115.899 60.7025 115.957 60.6204 115.998L60.6205 115.999ZM114.4 111.385C114.051 111.559 113.612 111.395 113.417 111.014C113.221 110.63 113.346 110.173 113.696 109.992L114.013 109.828C114.359 109.64 114.807 109.808 115.005 110.191C115.203 110.574 115.08 111.032 114.73 111.214L114.408 111.381L114.4 111.385ZM111.815 112.647L111.797 112.656L111.468 112.807C111.109 112.971 110.671 112.787 110.49 112.396C110.309 112.005 110.446 111.556 110.812 111.391L111.136 111.242C111.494 111.077 111.932 111.259 112.115 111.649C112.295 112.033 112.16 112.475 111.815 112.647ZM117.241 109.833C116.905 110.001 116.48 109.855 116.275 109.493C116.063 109.118 116.167 108.653 116.509 108.455L116.816 108.276C117.157 108.078 117.606 108.217 117.82 108.592C118.034 108.966 117.932 109.431 117.591 109.631L117.278 109.813C117.266 109.82 117.253 109.827 117.241 109.833ZM108.846 113.936C108.831 113.944 108.816 113.951 108.8 113.957L108.465 114.093C108.098 114.24 107.667 114.037 107.501 113.64C107.335 113.242 107.497 112.799 107.864 112.653L108.194 112.519C108.56 112.371 108.992 112.572 109.16 112.969C109.32 113.349 109.179 113.771 108.846 113.937L108.846 113.936ZM120.002 108.14C119.678 108.301 119.268 108.173 119.054 107.831C118.827 107.465 118.911 106.995 119.242 106.78L119.54 106.585C119.87 106.367 120.323 106.487 120.553 106.851C120.783 107.215 120.702 107.687 120.372 107.904L120.067 108.103C120.046 108.117 120.024 108.129 120.002 108.14L120.002 108.14ZM105.82 115.089C105.797 115.101 105.773 115.111 105.747 115.12L105.405 115.241C105.032 115.372 104.608 115.151 104.458 114.747C104.307 114.344 104.487 113.912 104.86 113.78L105.195 113.662C105.568 113.53 105.993 113.748 106.145 114.151C106.287 114.527 106.142 114.929 105.82 115.089ZM122.674 106.304C122.364 106.459 121.968 106.347 121.747 106.026C121.504 105.671 121.566 105.195 121.885 104.963L122.173 104.752C122.492 104.517 122.949 104.614 123.194 104.968C123.439 105.321 123.38 105.798 123.061 106.032L122.768 106.247C122.738 106.268 122.707 106.288 122.674 106.304ZM102.744 116.108C102.712 116.124 102.678 116.137 102.643 116.148L102.297 116.253C101.918 116.368 101.501 116.129 101.366 115.721C101.231 115.313 101.427 114.891 101.806 114.775L102.148 114.671C102.526 114.556 102.943 114.792 103.08 115.2C103.204 115.57 103.055 115.953 102.744 116.108ZM125.247 104.324C124.95 104.472 124.57 104.377 124.343 104.078C124.084 103.735 124.123 103.255 124.43 103.005L124.706 102.779C125.011 102.527 125.471 102.599 125.732 102.94C125.994 103.281 125.957 103.762 125.652 104.014L125.369 104.245C125.331 104.277 125.29 104.303 125.247 104.324ZM99.6209 116.993C99.5806 117.013 99.538 117.029 99.4927 117.041L99.1399 117.132C98.7562 117.23 98.3476 116.975 98.2274 116.562C98.1071 116.15 98.3204 115.736 98.7046 115.638L99.0512 115.549C99.4343 115.449 99.8439 115.702 99.9656 116.114C100.073 116.478 99.9212 116.843 99.6209 116.993ZM127.711 102.201C127.427 102.342 127.064 102.263 126.833 101.987C126.558 101.658 126.572 101.174 126.865 100.906L127.129 100.664C127.421 100.395 127.882 100.442 128.158 100.77C128.435 101.097 128.422 101.581 128.131 101.85L127.862 102.097C127.817 102.138 127.766 102.173 127.711 102.201L127.711 102.201ZM96.457 117.745C96.4088 117.769 96.3569 117.788 96.3016 117.8L95.9447 117.876C95.5566 117.957 95.1569 117.686 95.0516 117.27C94.9462 116.854 95.1754 116.45 95.5639 116.369L95.9147 116.294C96.3025 116.211 96.7031 116.48 96.8101 116.896C96.9017 117.252 96.7474 117.6 96.457 117.745ZM93.2583 118.364C93.2024 118.392 93.1411 118.412 93.0763 118.424L92.7152 118.485C92.3231 118.55 91.9327 118.263 91.8431 117.844C91.7532 117.425 91.9984 117.033 92.3902 116.967L92.7434 116.908C93.1349 116.84 93.5267 117.125 93.6186 117.543C93.6953 117.892 93.5391 118.224 93.2583 118.364ZM130.056 99.9349C129.785 100.07 129.439 100.006 129.204 99.7519C128.914 99.4377 128.904 98.9522 129.182 98.6676L129.431 98.4105C129.707 98.1234 130.168 98.1443 130.46 98.4568C130.752 98.769 130.765 99.2549 130.489 99.5414L130.233 99.8048C130.182 99.8579 130.122 99.902 130.056 99.935L130.056 99.9349ZM90.0302 118.848C89.9655 118.881 89.8945 118.902 89.8186 118.912L89.4564 118.958C89.0613 119.006 88.6807 118.705 88.6061 118.283C88.5316 117.862 88.7916 117.481 89.187 117.432L89.5452 117.387C89.94 117.337 90.3215 117.638 90.397 118.059C90.4579 118.399 90.301 118.713 90.0303 118.848L90.0302 118.848ZM132.27 97.5285C132.012 97.6569 131.684 97.6067 131.448 97.3763C131.143 97.0786 131.107 96.5926 131.368 96.2906L131.603 96.018C131.863 95.7151 132.322 95.7085 132.629 96.0049C132.936 96.3011 132.974 96.7871 132.714 97.0904L132.474 97.3689C132.415 97.4373 132.345 97.4908 132.27 97.5284L132.27 97.5285ZM86.7774 119.196C86.7048 119.232 86.6241 119.255 86.5378 119.262L86.1722 119.292C85.7743 119.324 85.4046 119.007 85.3462 118.584C85.2878 118.162 85.5628 117.793 85.9607 117.761L86.3206 117.732C86.7181 117.698 87.0892 118.014 87.1493 118.436C87.1962 118.767 87.039 119.065 86.7777 119.196L86.7774 119.196ZM134.343 94.9858C134.099 95.1076 133.789 95.0699 133.554 94.8638C133.234 94.5839 133.172 94.0984 133.416 93.7804L133.634 93.4933C133.876 93.1733 134.332 93.1398 134.653 93.4181C134.975 93.6965 135.039 94.1812 134.797 94.5012L134.574 94.7943C134.51 94.8781 134.431 94.9421 134.343 94.9858ZM83.5046 119.402C83.4238 119.442 83.3329 119.466 83.2357 119.47L82.8679 119.484C82.4679 119.499 82.1098 119.167 82.0678 118.743C82.0258 118.319 82.3161 117.964 82.7158 117.95L83.0772 117.936C83.4771 117.919 83.8363 118.25 83.88 118.674C83.9131 118.994 83.7562 119.276 83.5046 119.402ZM136.266 92.3115C136.035 92.4267 135.743 92.4006 135.51 92.2176C135.177 91.9561 135.089 91.4737 135.314 91.14L135.514 90.8397C135.737 90.504 136.189 90.4423 136.524 90.7015C136.859 90.9608 136.949 91.4429 136.727 91.7783L136.52 92.0864C136.453 92.1866 136.365 92.2622 136.266 92.3115ZM80.2166 119.461C80.1269 119.506 80.0256 119.531 79.917 119.53L79.5477 119.528C79.1462 119.524 78.8008 119.177 78.7761 118.753C78.7515 118.329 79.057 117.989 79.4581 117.992L79.8204 117.995C80.2218 117.997 80.5685 118.342 80.5952 118.766C80.6145 119.075 80.4586 119.341 80.2166 119.461ZM138.029 89.5133C137.811 89.622 137.538 89.606 137.309 89.4464C136.963 89.205 136.849 88.7268 137.054 88.3782L137.238 88.0643C137.441 87.7143 137.887 87.6245 138.233 87.8639C138.581 88.1031 138.697 88.581 138.494 88.931L138.307 89.2522C138.242 89.3645 138.145 89.4553 138.029 89.5134L138.029 89.5133ZM76.9192 119.367C76.816 119.419 76.7013 119.442 76.5863 119.435L76.2158 119.415C75.8137 119.391 75.4829 119.029 75.4767 118.606C75.4706 118.183 75.7919 117.859 76.1936 117.882L76.5566 117.902C76.9587 117.923 77.2912 118.284 77.2992 118.707C77.3048 119.004 77.1501 119.252 76.9188 119.367L76.9192 119.367ZM73.6188 119.107C73.5095 119.162 73.3835 119.186 73.2501 119.173L72.8793 119.132C72.4775 119.088 72.1632 118.71 72.1774 118.288C72.1916 117.866 72.5285 117.561 72.9307 117.606L73.2929 117.645C73.6948 117.687 74.011 118.063 73.9994 118.485C73.9914 118.767 73.8391 118.998 73.6191 119.108L73.6188 119.107ZM70.3238 118.667C70.1972 118.73 70.054 118.751 69.9147 118.727C69.7909 118.707 69.6676 118.686 69.5443 118.665C69.1437 118.597 68.8492 118.202 68.8857 117.784C68.9226 117.366 69.277 117.081 69.6773 117.15C69.7971 117.17 69.917 117.19 70.0377 117.21C70.4384 117.276 70.7357 117.668 70.7018 118.087C70.6803 118.352 70.5315 118.564 70.3238 118.667ZM67.046 118.025C66.9118 118.092 66.7539 118.113 66.5916 118.076C66.4681 118.047 66.3453 118.018 66.223 117.989C65.8257 117.894 65.5542 117.482 65.6164 117.069C65.6788 116.656 66.0513 116.398 66.4486 116.493C66.5669 116.521 66.6858 116.549 66.805 116.577C67.2027 116.668 67.4774 117.078 67.4185 117.492C67.3837 117.737 67.2399 117.928 67.046 118.025ZM63.8021 117.15C63.644 117.227 63.4618 117.241 63.294 117.186C63.1721 117.148 63.0508 117.11 62.9299 117.071C62.5386 116.945 62.2961 116.515 62.3882 116.11C62.4805 115.705 62.8724 115.479 63.2638 115.605C63.3801 115.643 63.497 115.679 63.6143 115.716C64.0068 115.838 64.253 116.266 64.1645 116.672C64.1165 116.893 63.9797 117.061 63.8021 117.15ZM139.64 86.5703C139.436 86.6723 139.181 86.6654 138.958 86.5284C138.601 86.3082 138.46 85.8361 138.644 85.4737L138.726 85.3122C138.908 84.9488 139.347 84.8315 139.705 85.0497C140.063 85.2681 140.206 85.7399 140.024 86.1034L139.939 86.2704C139.875 86.4 139.77 86.5052 139.641 86.5702L139.64 86.5703Z" fill="#00FFFF"/>
<path d="M55.86 31.2996C57.5626 30.451 61.9181 35.9045 61.9181 35.9045C61.9181 35.9045 67.8127 32.1675 69.1459 33.5245C70.4791 34.8816 66.6384 40.7091 66.6384 40.7091C66.6384 40.7091 72.014 45.1603 71.1355 46.8476C70.2569 48.535 63.5278 46.6831 63.5278 46.6831C63.5278 46.6831 60.9556 53.1711 59.0794 52.8568C57.2032 52.5426 56.885 45.5706 56.885 45.5706C56.885 45.5706 49.9196 45.1293 49.6386 43.2478C49.3576 41.3662 55.8901 38.9091 55.8901 38.9091C55.8901 38.9091 54.1575 32.1482 55.86 31.2996Z" fill="#F7AC3B"/>
<path d="M86.1516 51.3651C88.3453 55.8164 81.5923 59.1821 79.3594 54.7507C77.1658 50.2996 83.9188 46.9339 86.1516 51.3651Z" fill="#E9407A"/>
<path d="M65.7585 75.4611C67.6389 79.2766 61.8505 82.1614 59.9367 78.3629C58.0564 74.5477 63.8448 71.6629 65.7585 75.4611Z" fill="#8DC7F6"/>
<path d="M112.69 71.4758C114.803 75.9031 108.273 79.1575 106.011 74.805C103.898 70.3777 110.428 67.1236 112.69 71.4758ZM86.0479 95.4981C88.5039 100.644 80.9144 104.425 78.2855 99.3672C75.8296 94.2221 83.419 90.4401 86.0479 95.4981Z" fill="#F7AC3B"/>
<path d="M68.3858 122.748C70.5998 127.387 63.7576 130.797 61.3873 126.237C59.1733 121.598 66.0156 118.188 68.3858 122.748Z" fill="#E9407A"/>
<path d="M114.391 103.159C116.349 107.133 110.32 110.138 108.326 106.181C106.367 102.207 112.397 99.2023 114.391 103.159Z" fill="#8DC7F6"/>
<path d="M80.3121 71.4865C82.0522 70.5186 83.0612 69.3408 83.0612 69.3408C83.0612 69.3408 81.4987 69.5763 79.7449 70.3285C78.79 68.6073 77.6795 67.5394 77.6795 67.5394C77.6795 67.5394 77.8695 69.1423 78.5938 70.892C76.8693 71.8476 75.7992 72.9607 75.7992 72.9607C75.7992 72.9607 77.4012 72.7708 79.1503 72.0472C80.119 73.7907 81.2991 74.8019 81.2991 74.8019C81.2991 74.8019 81.0637 73.2397 80.3121 71.4865ZM110.124 92.9977C111.864 92.0298 112.873 90.852 112.873 90.852C112.873 90.852 111.31 91.0875 109.556 91.8397C108.601 90.1185 107.491 89.0506 107.491 89.0506C107.491 89.0506 107.681 90.6535 108.405 92.403C106.681 93.3586 105.611 94.4717 105.611 94.4717C105.611 94.4717 107.213 94.2818 108.962 93.5582C109.93 95.3017 111.111 96.3129 111.111 96.3129C111.111 96.3129 110.875 94.751 110.124 92.9977ZM103.004 50.0398C106.409 48.1459 108.381 45.841 108.381 45.841C108.381 45.841 105.325 46.3006 101.894 47.7716C100.026 44.4032 97.8519 42.3168 97.8519 42.3168C97.8519 42.3168 98.2229 45.4517 99.6397 48.8743C96.2644 50.7442 94.1731 52.9232 94.1731 52.9232C94.1731 52.9232 97.307 52.5525 100.729 51.1363C102.624 54.548 104.934 56.5252 104.934 56.5252C104.934 56.5252 104.474 53.47 103.004 50.0398Z" fill="#F8EA21"/>
<path d="M82.7204 136.374C83.7531 134.803 84.4853 133.605 84.1635 133.392C83.844 133.181 83.0466 134.35 82.0161 135.907C81.1836 134.236 80.5348 132.978 80.192 133.149C79.8516 133.318 80.4397 134.621 81.2606 136.285C79.3962 136.17 77.9816 136.102 77.9581 136.485C77.9347 136.864 79.3566 137.006 81.2082 137.127C80.1767 138.685 79.4111 139.876 79.7304 140.088C80.0476 140.298 80.8817 139.137 81.9126 137.593C82.7575 139.274 83.4288 140.508 83.7742 140.335C84.117 140.165 83.5027 138.889 82.669 137.217C84.5463 137.326 85.9495 137.361 85.9731 136.976C85.9966 136.594 84.5842 136.488 82.72 136.374L82.7204 136.374ZM52.6301 59.1039C52.2674 58.6209 50.4646 59.936 48.1104 61.7048C47.7575 58.7819 47.4593 56.5698 46.8594 56.6424C46.2642 56.7144 46.449 58.9595 46.7886 61.8659C44.0793 60.7092 42.0139 59.8613 41.7769 60.4171C41.5416 60.9686 43.5787 61.9312 46.265 63.0902C43.9089 64.8582 42.1417 66.2229 42.5045 66.7061C42.8647 67.1858 44.7173 65.9025 47.0651 64.1547C47.4312 67.0981 47.7759 69.2855 48.3803 69.2125C48.9802 69.14 48.7422 66.9201 48.3876 63.996C51.1186 65.1499 53.1847 65.9448 53.4232 65.3853C53.6602 64.8296 51.6184 63.9257 48.9094 62.7707C51.2751 60.9821 52.9955 59.5906 52.6301 59.1039Z" fill="#29A7DE"/>
<path d="M92.679 109.987C93.7639 112.189 90.4241 113.853 89.32 111.662C88.2352 109.46 91.575 107.796 92.679 109.987ZM48.5257 90.2549C49.6106 92.4564 46.2708 94.1208 45.1667 91.9292C44.0819 89.728 47.4217 88.0636 48.5257 90.2549Z" fill="#F8EA21"/>
<path d="M135.593 110.944L133.744 111.227L132.928 112.911C132.721 113.34 132.11 113.345 131.896 112.919L131.056 111.247C130.472 111.078 128.003 111.244 128.876 110.012L130.206 108.697L129.877 106.855C129.876 105.344 131.792 106.904 132.37 107.101L134.019 106.218C134.44 105.993 134.936 106.348 134.859 106.819L134.556 108.665L135.905 109.96C136.249 110.291 136.065 110.873 135.594 110.945L135.593 110.944Z" fill="#ED628F"/>
<path d="M66.3431 92.3736L63.8405 91.768L61.9227 93.4862L61.7254 90.9188L59.4987 89.6258L61.8793 88.6448L62.421 86.1277L64.0896 88.0886L66.6511 87.8257L65.3016 90.0189L66.3431 92.3736Z" fill="#FFEB3B"/>
</svg>
