<svg width="32" height="32" viewBox="0 0 32 32" fill="none" xmlns="http://www.w3.org/2000/svg">
<rect x="0.4" y="0.4" width="31.2" height="31.2" rx="15.6" fill="url(#paint0_linear_136_2667)"/>
<rect x="0.4" y="0.4" width="31.2" height="31.2" rx="15.6" stroke="url(#paint1_linear_136_2667)" stroke-width="0.8"/>
<path fill-rule="evenodd" clip-rule="evenodd" d="M14.7356 21.8582C14.0489 21.5826 13.4302 21.1615 12.922 20.6237C12.3947 20.0557 11.9912 19.3843 11.7371 18.6521C11.4441 17.7999 11.3016 16.9033 11.3161 16.0024C11.3038 15.1317 11.4406 14.2654 11.7203 13.4408C11.9663 12.7189 12.3608 12.0565 12.8783 11.4962C13.3874 10.9561 14.009 10.5347 14.6992 10.2617C15.4614 9.96492 16.2739 9.81826 17.0918 9.82977C17.6181 9.82357 18.1437 9.87238 18.6599 9.97543C19.0519 10.0555 19.4358 10.1708 19.807 10.3199C20.0937 10.4354 20.3696 10.576 20.6315 10.7402C20.8572 10.8858 21.0612 11.0097 21.2433 11.1116C21.358 11.1846 21.4898 11.226 21.6256 11.2318C21.7248 11.2303 21.8219 11.2021 21.9064 11.1502C21.991 11.0983 22.0601 11.0246 22.1063 10.9368L22.7072 9.97543C22.3717 9.66927 22.0097 9.39339 21.6256 9.15097C21.2275 8.90091 20.8048 8.69224 20.3642 8.52823C19.8842 8.3505 19.3884 8.21881 18.8834 8.13494C18.313 8.04064 17.7355 7.99483 17.1573 7.99801C16.0257 7.98168 14.901 8.1781 13.8419 8.57703C12.8944 8.93247 12.0349 9.48842 11.3221 10.2068C10.6094 10.9252 10.0602 11.7892 9.71229 12.7395C9.32619 13.7847 9.13535 14.8919 9.14929 16.006C9.13651 17.1139 9.33118 18.2144 9.72323 19.2507C10.0804 20.1938 10.6256 21.0544 11.3256 21.7802C12.0196 22.4894 12.8528 23.0473 13.7728 23.419C14.7658 23.8168 15.8276 24.0148 16.8973 24.0016C17.4997 24.0044 18.1018 23.9699 18.6999 23.8982C19.2266 23.8345 19.7474 23.7286 20.2571 23.5814C20.7269 23.4449 21.1839 23.2675 21.6227 23.0512C22.0521 22.8379 22.4631 22.5894 22.8514 22.3083V16.2995H18.0444V17.5013C18.0435 17.5566 18.0542 17.6114 18.0759 17.6622C18.0976 17.7131 18.1299 17.7587 18.1704 17.7963C18.2153 17.8372 18.2678 17.8689 18.3249 17.8896C18.382 17.9102 18.4426 17.9193 18.5033 17.9164H20.9286V21.3687C20.6519 21.5144 20.3751 21.6438 20.0983 21.7569C19.8103 21.8741 19.5147 21.9715 19.2134 22.0483C18.8848 22.1313 18.551 22.1917 18.2141 22.2289C17.8271 22.2706 17.438 22.2906 17.0488 22.2886C16.2571 22.2966 15.4714 22.1504 14.7356 21.8582Z" fill="white"/>
<defs>
<linearGradient id="paint0_linear_136_2667" x1="10.5731" y1="-9.33333" x2="37.4947" y2="6.08691" gradientUnits="userSpaceOnUse">
<stop stop-color="#B59677"/>
<stop offset="1" stop-color="#CBB6A0"/>
</linearGradient>
<linearGradient id="paint1_linear_136_2667" x1="16" y1="0" x2="16" y2="32" gradientUnits="userSpaceOnUse">
<stop stop-color="#F5E0B6"/>
<stop offset="1" stop-color="#FCEAC7" stop-opacity="0"/>
</linearGradient>
</defs>
</svg>
